M48
INCH,TZ
T1C0.016
T2C0.031
T3C0.032
T4C0.039
T5C0.040
%
G90
G05
T1
X61809Y-50692
T2
X60500Y-45000
X60500Y-47000
X63000Y-42000
X69000Y-44000
X69000Y-46000
T3
X59516Y-45000
X59516Y-47000
X62500Y-45039
X62500Y-46961
X63000Y-42984
X69000Y-43016
X69000Y-46984
T4
X60500Y-37047
X60500Y-42953
T5
X55500Y-39500
X55500Y-40500
X55500Y-41500
X55500Y-42500
X55500Y-43500
X55500Y-44500
X55500Y-45500
X55500Y-46500
X55500Y-49500
X55500Y-50500
X55500Y-51500
X55500Y-52500
X64500Y-37500
X64500Y-38500
X64500Y-39500
X64500Y-40500
X64500Y-41500
X64500Y-42500
X64500Y-43500
X64500Y-44500
X64500Y-45500
X64500Y-46500
X64500Y-47500
X64500Y-48500
X64500Y-49500
X64500Y-50500
X65000Y-54500
X66000Y-54500
X67000Y-54500
X67500Y-37500
X67500Y-38500
X67500Y-39500
X67500Y-40500
X67500Y-41500
X67500Y-42500
X67500Y-43500
X67500Y-44500
X67500Y-45500
X67500Y-46500
X67500Y-47500
X67500Y-48500
X67500Y-49500
X67500Y-50500
X72500Y-43000
X72500Y-44000
X72500Y-45000
X72500Y-46000
X72500Y-47000
X72500Y-48000
T0
M30
