G04 #@! TF.FileFunction,Copper,L2,Bot,Signal*
%FSLAX46Y46*%
G04 Gerber Fmt 4.6, Leading zero omitted, Abs format (unit mm)*
G04 Created by KiCad (PCBNEW (2015-10-31 BZR 6288)-product) date Sunday, February 14, 2016 'PMt' 02:04:00 PM*
%MOMM*%
G01*
G04 APERTURE LIST*
%ADD10C,0.100000*%
%ADD11R,1.300000X1.300000*%
%ADD12C,1.300000*%
%ADD13O,1.600000X2.300000*%
%ADD14R,1.727200X2.032000*%
%ADD15O,1.727200X2.032000*%
%ADD16R,2.032000X1.727200*%
%ADD17O,2.032000X1.727200*%
%ADD18R,1.727200X1.727200*%
%ADD19O,1.727200X1.727200*%
%ADD20R,2.032000X2.032000*%
%ADD21O,2.032000X2.032000*%
%ADD22C,1.998980*%
%ADD23C,1.501140*%
%ADD24C,1.699260*%
%ADD25C,0.700000*%
%ADD26C,0.750000*%
G04 APERTURE END LIST*
D10*
D11*
X182880000Y-88900000D03*
D12*
X185380000Y-88900000D03*
D11*
X125730000Y-82550000D03*
D12*
X125730000Y-85050000D03*
D11*
X180340000Y-88900000D03*
D12*
X177840000Y-88900000D03*
D11*
X186690000Y-105410000D03*
D12*
X189190000Y-105410000D03*
D11*
X181610000Y-105410000D03*
D12*
X179110000Y-105410000D03*
D11*
X152400000Y-102870000D03*
D12*
X152400000Y-105370000D03*
D11*
X152400000Y-97790000D03*
D12*
X152400000Y-95290000D03*
D13*
X162560000Y-100330000D03*
X165100000Y-100330000D03*
X167640000Y-100330000D03*
X170180000Y-100330000D03*
X172720000Y-100330000D03*
X175260000Y-100330000D03*
X177800000Y-100330000D03*
X180340000Y-100330000D03*
X182880000Y-100330000D03*
X185420000Y-100330000D03*
X187960000Y-100330000D03*
X190500000Y-100330000D03*
X193040000Y-100330000D03*
X195580000Y-100330000D03*
X195580000Y-92710000D03*
X193040000Y-92710000D03*
X190500000Y-92710000D03*
X187960000Y-92710000D03*
X185420000Y-92710000D03*
X182880000Y-92710000D03*
X180340000Y-92710000D03*
X177800000Y-92710000D03*
X175260000Y-92710000D03*
X172720000Y-92710000D03*
X170180000Y-92710000D03*
X167640000Y-92710000D03*
X165100000Y-92710000D03*
X162560000Y-92710000D03*
D14*
X208280000Y-85090000D03*
D15*
X210820000Y-85090000D03*
X213360000Y-85090000D03*
D16*
X121920000Y-80010000D03*
D17*
X121920000Y-82550000D03*
X121920000Y-85090000D03*
X121920000Y-87630000D03*
D16*
X121920000Y-107950000D03*
D17*
X121920000Y-110490000D03*
X121920000Y-113030000D03*
X121920000Y-115570000D03*
X121920000Y-118110000D03*
X121920000Y-120650000D03*
X121920000Y-123190000D03*
X121920000Y-125730000D03*
D16*
X222250000Y-96520000D03*
D17*
X222250000Y-99060000D03*
X222250000Y-101600000D03*
X222250000Y-104140000D03*
X222250000Y-106680000D03*
X222250000Y-109220000D03*
D18*
X129540000Y-125730000D03*
D19*
X129540000Y-123190000D03*
X132080000Y-125730000D03*
X132080000Y-123190000D03*
X134620000Y-125730000D03*
X134620000Y-123190000D03*
D20*
X203200000Y-120650000D03*
D21*
X203200000Y-118110000D03*
D20*
X140970000Y-125730000D03*
D21*
X143510000Y-125730000D03*
D22*
X162560000Y-104140000D03*
X162560000Y-114300000D03*
X175260000Y-114300000D03*
X175260000Y-104140000D03*
D23*
X181709060Y-111760000D03*
X186590940Y-111760000D03*
D24*
X140335000Y-100330000D03*
X140335000Y-98038920D03*
X140335000Y-102621080D03*
D25*
X137879500Y-93031000D03*
X182880000Y-98475000D03*
D26*
X124826000Y-81150000D02*
X125730000Y-81150000D01*
X123686000Y-80010000D02*
X124826000Y-81150000D01*
X121920000Y-80010000D02*
X123686000Y-80010000D01*
X125730000Y-82550000D02*
X125730000Y-81150000D01*
X127398500Y-82550000D02*
X137879500Y-93031000D01*
X125730000Y-82550000D02*
X127398500Y-82550000D01*
X175861100Y-102268900D02*
X177800000Y-100330000D01*
X174591100Y-102268900D02*
X175861100Y-102268900D01*
X162560000Y-114300000D02*
X174591100Y-102268900D01*
X179655000Y-98475000D02*
X182880000Y-98475000D01*
X177800000Y-100330000D02*
X179655000Y-98475000D01*
X211505000Y-98475000D02*
X182880000Y-98475000D01*
X222250000Y-109220000D02*
X211505000Y-98475000D01*
X128270000Y-114300000D02*
X162560000Y-114300000D01*
X121920000Y-120650000D02*
X128270000Y-114300000D01*
X208280000Y-88900000D02*
X185380000Y-88900000D01*
X208280000Y-90170000D02*
X208280000Y-88900000D01*
X222250000Y-104140000D02*
X208280000Y-90170000D01*
X208280000Y-88900000D02*
X208280000Y-85090000D01*
X184104600Y-87624600D02*
X185380000Y-88900000D01*
X179115400Y-87624600D02*
X184104600Y-87624600D01*
X177840000Y-88900000D02*
X179115400Y-87624600D01*
X123686000Y-87094000D02*
X125730000Y-85050000D01*
X123686000Y-87630000D02*
X123686000Y-87094000D01*
X121920000Y-87630000D02*
X123686000Y-87630000D01*
X140970000Y-125730000D02*
X139204000Y-125730000D01*
X136664000Y-123190000D02*
X139204000Y-125730000D01*
X134620000Y-123190000D02*
X136664000Y-123190000D01*
X123420500Y-121689500D02*
X121920000Y-123190000D01*
X133119500Y-121689500D02*
X123420500Y-121689500D01*
X134620000Y-123190000D02*
X133119500Y-121689500D01*
X153204700Y-94485300D02*
X152400000Y-95290000D01*
X176024700Y-94485300D02*
X153204700Y-94485300D01*
X177800000Y-92710000D02*
X176024700Y-94485300D01*
X180415000Y-106715000D02*
X179110000Y-105410000D01*
X187885000Y-106715000D02*
X180415000Y-106715000D01*
X189190000Y-105410000D02*
X187885000Y-106715000D01*
X175260000Y-111870000D02*
X175260000Y-114300000D01*
X180415000Y-106715000D02*
X175260000Y-111870000D01*
X149651100Y-102621100D02*
X152400000Y-105370000D01*
X149651100Y-98038900D02*
X149651100Y-102621100D01*
X140335000Y-98038900D02*
X149651100Y-98038900D01*
X149651100Y-98038900D02*
X152400000Y-95290000D01*
X173480900Y-98550900D02*
X175260000Y-100330000D01*
X161973300Y-98550900D02*
X173480900Y-98550900D01*
X157837700Y-102686500D02*
X161973300Y-98550900D01*
X157837700Y-104640100D02*
X157837700Y-102686500D01*
X151166300Y-111311500D02*
X157837700Y-104640100D01*
X128718500Y-111311500D02*
X151166300Y-111311500D01*
X121920000Y-118110000D02*
X128718500Y-111311500D01*
X203419000Y-110709000D02*
X193040000Y-100330000D01*
X223035700Y-110709000D02*
X203419000Y-110709000D01*
X223892900Y-109851800D02*
X223035700Y-110709000D01*
X223892900Y-103242900D02*
X223892900Y-109851800D01*
X222250000Y-101600000D02*
X223892900Y-103242900D01*
X186055700Y-97154300D02*
X190500000Y-92710000D01*
X161951000Y-97154300D02*
X186055700Y-97154300D01*
X156337500Y-102767800D02*
X161951000Y-97154300D01*
X156337500Y-104660200D02*
X156337500Y-102767800D01*
X151324200Y-109673500D02*
X156337500Y-104660200D01*
X127816500Y-109673500D02*
X151324200Y-109673500D01*
X121920000Y-115570000D02*
X127816500Y-109673500D01*
X129540000Y-125730000D02*
X127926400Y-125730000D01*
X120228800Y-112181200D02*
X121920000Y-110490000D01*
X120228800Y-126320400D02*
X120228800Y-112181200D01*
X121147900Y-127239500D02*
X120228800Y-126320400D01*
X126416900Y-127239500D02*
X121147900Y-127239500D01*
X127926400Y-125730000D02*
X126416900Y-127239500D01*
X186180000Y-90930000D02*
X187960000Y-92710000D01*
X141761300Y-90930000D02*
X186180000Y-90930000D01*
X122201300Y-110490000D02*
X141761300Y-90930000D01*
X121920000Y-110490000D02*
X122201300Y-110490000D01*
X127500700Y-107449300D02*
X121920000Y-113030000D01*
X152133700Y-107449300D02*
X127500700Y-107449300D01*
X154336800Y-105246200D02*
X152133700Y-107449300D01*
X154336800Y-103310100D02*
X154336800Y-105246200D01*
X161653600Y-95993300D02*
X154336800Y-103310100D01*
X182136700Y-95993300D02*
X161653600Y-95993300D01*
X185420000Y-92710000D02*
X182136700Y-95993300D01*
X152896000Y-118110000D02*
X203200000Y-118110000D01*
X145276000Y-125730000D02*
X152896000Y-118110000D01*
X143510000Y-125730000D02*
X145276000Y-125730000D01*
M02*
