G04 #@! TF.FileFunction,Copper,L2,Bot,Signal*
%FSLAX46Y46*%
G04 Gerber Fmt 4.6, Leading zero omitted, Abs format (unit mm)*
G04 Created by KiCad (PCBNEW (2015-10-31 BZR 6288)-product) date Sunday, February 14, 2016 'AMt' 12:13:45 AM*
%MOMM*%
G01*
G04 APERTURE LIST*
%ADD10C,0.100000*%
%ADD11R,1.300000X1.300000*%
%ADD12C,1.300000*%
%ADD13O,1.600000X2.300000*%
%ADD14R,1.727200X2.032000*%
%ADD15O,1.727200X2.032000*%
%ADD16R,2.032000X1.727200*%
%ADD17O,2.032000X1.727200*%
%ADD18R,1.727200X1.727200*%
%ADD19O,1.727200X1.727200*%
%ADD20R,2.032000X2.032000*%
%ADD21O,2.032000X2.032000*%
%ADD22C,1.998980*%
%ADD23C,1.501140*%
%ADD24C,1.699260*%
%ADD25C,0.700000*%
%ADD26C,0.750000*%
G04 APERTURE END LIST*
D10*
D11*
X182880000Y-88900000D03*
D12*
X185380000Y-88900000D03*
D11*
X125730000Y-82550000D03*
D12*
X125730000Y-85050000D03*
D11*
X180340000Y-88900000D03*
D12*
X177840000Y-88900000D03*
D11*
X186690000Y-105410000D03*
D12*
X189190000Y-105410000D03*
D11*
X181610000Y-105410000D03*
D12*
X179110000Y-105410000D03*
D11*
X133350000Y-105410000D03*
D12*
X133350000Y-107910000D03*
D11*
X133350000Y-100330000D03*
D12*
X133350000Y-97830000D03*
D13*
X162560000Y-100330000D03*
X165100000Y-100330000D03*
X167640000Y-100330000D03*
X170180000Y-100330000D03*
X172720000Y-100330000D03*
X175260000Y-100330000D03*
X177800000Y-100330000D03*
X180340000Y-100330000D03*
X182880000Y-100330000D03*
X185420000Y-100330000D03*
X187960000Y-100330000D03*
X190500000Y-100330000D03*
X193040000Y-100330000D03*
X195580000Y-100330000D03*
X195580000Y-92710000D03*
X193040000Y-92710000D03*
X190500000Y-92710000D03*
X187960000Y-92710000D03*
X185420000Y-92710000D03*
X182880000Y-92710000D03*
X180340000Y-92710000D03*
X177800000Y-92710000D03*
X175260000Y-92710000D03*
X172720000Y-92710000D03*
X170180000Y-92710000D03*
X167640000Y-92710000D03*
X165100000Y-92710000D03*
X162560000Y-92710000D03*
D14*
X208280000Y-85090000D03*
D15*
X210820000Y-85090000D03*
X213360000Y-85090000D03*
D16*
X121920000Y-80010000D03*
D17*
X121920000Y-82550000D03*
X121920000Y-85090000D03*
X121920000Y-87630000D03*
D16*
X121920000Y-107950000D03*
D17*
X121920000Y-110490000D03*
X121920000Y-113030000D03*
X121920000Y-115570000D03*
X121920000Y-118110000D03*
X121920000Y-120650000D03*
X121920000Y-123190000D03*
X121920000Y-125730000D03*
D16*
X222250000Y-96520000D03*
D17*
X222250000Y-99060000D03*
X222250000Y-101600000D03*
X222250000Y-104140000D03*
X222250000Y-106680000D03*
X222250000Y-109220000D03*
D18*
X129540000Y-125730000D03*
D19*
X129540000Y-123190000D03*
X132080000Y-125730000D03*
X132080000Y-123190000D03*
X134620000Y-125730000D03*
X134620000Y-123190000D03*
D20*
X203200000Y-120650000D03*
D21*
X203200000Y-118110000D03*
D20*
X140970000Y-125730000D03*
D21*
X143510000Y-125730000D03*
D22*
X162560000Y-104140000D03*
X162560000Y-114300000D03*
X175260000Y-114300000D03*
X175260000Y-104140000D03*
D23*
X181709060Y-111760000D03*
X186590940Y-111760000D03*
D24*
X143510000Y-102870000D03*
X143510000Y-100578920D03*
X143510000Y-105161080D03*
D25*
X179456400Y-97518600D03*
X154980800Y-109484600D03*
X149152900Y-96892200D03*
X132201200Y-91706900D03*
X161460900Y-95712000D03*
D26*
X137290000Y-102870000D02*
X134750000Y-100330000D01*
X143510000Y-102870000D02*
X137290000Y-102870000D01*
X133350000Y-100330000D02*
X134750000Y-100330000D01*
X154940000Y-114300000D02*
X143510000Y-102870000D01*
X162560000Y-114300000D02*
X154940000Y-114300000D01*
X124826000Y-81150000D02*
X125730000Y-81150000D01*
X123686000Y-80010000D02*
X124826000Y-81150000D01*
X121920000Y-80010000D02*
X123686000Y-80010000D01*
X125730000Y-82550000D02*
X125730000Y-81150000D01*
X178545000Y-98430000D02*
X179456400Y-97518600D01*
X177800000Y-98430000D02*
X178545000Y-98430000D01*
X177800000Y-100330000D02*
X177800000Y-98430000D01*
X125386400Y-120650000D02*
X121920000Y-120650000D01*
X127926400Y-123190000D02*
X125386400Y-120650000D01*
X129540000Y-123190000D02*
X127926400Y-123190000D01*
X123686000Y-87094000D02*
X125730000Y-85050000D01*
X123686000Y-87630000D02*
X123686000Y-87094000D01*
X121920000Y-87630000D02*
X123686000Y-87630000D01*
X184104600Y-87624600D02*
X185380000Y-88900000D01*
X179115400Y-87624600D02*
X184104600Y-87624600D01*
X177840000Y-88900000D02*
X179115400Y-87624600D01*
X136664000Y-123190000D02*
X139204000Y-125730000D01*
X134620000Y-123190000D02*
X136664000Y-123190000D01*
X140970000Y-125730000D02*
X139204000Y-125730000D01*
X125001400Y-106634600D02*
X123686000Y-107950000D01*
X132074600Y-106634600D02*
X125001400Y-106634600D01*
X132074600Y-99105400D02*
X132074600Y-106634600D01*
X133350000Y-97830000D02*
X132074600Y-99105400D01*
X132074600Y-106634600D02*
X133350000Y-107910000D01*
X121920000Y-107950000D02*
X123686000Y-107950000D01*
X140761100Y-97830000D02*
X133350000Y-97830000D01*
X143510000Y-100578900D02*
X140761100Y-97830000D01*
X175260000Y-114300000D02*
X175260000Y-111887600D01*
X154818700Y-111887600D02*
X143510000Y-100578900D01*
X175260000Y-111887600D02*
X154818700Y-111887600D01*
X180340000Y-100330000D02*
X180340000Y-101970600D01*
X220484000Y-105132000D02*
X220484000Y-104140000D01*
X204966000Y-120650000D02*
X220484000Y-105132000D01*
X203200000Y-120650000D02*
X204966000Y-120650000D01*
X222250000Y-104140000D02*
X220484000Y-104140000D01*
X179110000Y-108037600D02*
X179110000Y-105410000D01*
X175260000Y-111887600D02*
X179110000Y-108037600D01*
X179110000Y-104250000D02*
X180864700Y-102495300D01*
X179110000Y-105410000D02*
X179110000Y-104250000D01*
X186275300Y-102495300D02*
X180864700Y-102495300D01*
X189190000Y-105410000D02*
X186275300Y-102495300D01*
X180864700Y-102495300D02*
X180340000Y-101970600D01*
X160325400Y-104140000D02*
X154980800Y-109484600D01*
X162560000Y-104140000D02*
X160325400Y-104140000D01*
X162662600Y-97892600D02*
X165100000Y-100330000D01*
X148738800Y-97892600D02*
X162662600Y-97892600D01*
X143553400Y-92707200D02*
X148738800Y-97892600D01*
X124719900Y-92707200D02*
X143553400Y-92707200D01*
X120270400Y-88257700D02*
X124719900Y-92707200D01*
X120270400Y-86739600D02*
X120270400Y-88257700D01*
X121920000Y-85090000D02*
X120270400Y-86739600D01*
X175260000Y-100330000D02*
X175260000Y-102230000D01*
X175260000Y-102230000D02*
X174305000Y-103185000D01*
X173388900Y-102268900D02*
X174305000Y-103185000D01*
X151529200Y-102268900D02*
X173388900Y-102268900D01*
X145781100Y-96520800D02*
X151529200Y-102268900D01*
X130525500Y-96520800D02*
X145781100Y-96520800D01*
X120253500Y-106792800D02*
X130525500Y-96520800D01*
X120253500Y-116443500D02*
X120253500Y-106792800D01*
X121920000Y-118110000D02*
X120253500Y-116443500D01*
X174305000Y-103185000D02*
X175260000Y-104140000D01*
X191789500Y-96500500D02*
X187960000Y-100330000D01*
X220464500Y-96500500D02*
X191789500Y-96500500D01*
X220484000Y-96520000D02*
X220464500Y-96500500D01*
X222250000Y-96520000D02*
X220484000Y-96520000D01*
X222250000Y-99060000D02*
X220484000Y-99060000D01*
X193329200Y-97500800D02*
X190500000Y-100330000D01*
X218924800Y-97500800D02*
X193329200Y-97500800D01*
X220484000Y-99060000D02*
X218924800Y-97500800D01*
X194842100Y-98527900D02*
X193040000Y-100330000D01*
X200998400Y-98527900D02*
X194842100Y-98527900D01*
X204070500Y-101600000D02*
X200998400Y-98527900D01*
X222250000Y-101600000D02*
X204070500Y-101600000D01*
X124460000Y-115570000D02*
X121920000Y-115570000D01*
X132080000Y-123190000D02*
X124460000Y-115570000D01*
X178668200Y-96892200D02*
X149152900Y-96892200D01*
X179042100Y-96518300D02*
X178668200Y-96892200D01*
X186691700Y-96518300D02*
X179042100Y-96518300D01*
X190500000Y-92710000D02*
X186691700Y-96518300D01*
X186171900Y-90921900D02*
X187960000Y-92710000D01*
X132986200Y-90921900D02*
X186171900Y-90921900D01*
X132201200Y-91706900D02*
X132986200Y-90921900D01*
X182774700Y-95355300D02*
X185420000Y-92710000D01*
X161817600Y-95355300D02*
X182774700Y-95355300D01*
X161460900Y-95712000D02*
X161817600Y-95355300D01*
X143510000Y-125730000D02*
X145276000Y-125730000D01*
X145276000Y-125730000D02*
X152896000Y-118110000D01*
X152896000Y-118110000D02*
X203200000Y-118110000D01*
X133350000Y-105410000D02*
X134750000Y-105410000D01*
X143510000Y-105410000D02*
X134750000Y-105410000D01*
X143510000Y-108724000D02*
X143510000Y-105410000D01*
X152896000Y-118110000D02*
X143510000Y-108724000D01*
X143510000Y-105410000D02*
X143510000Y-105161100D01*
M02*
