G04 #@! TF.FileFunction,Soldermask,Top*
%FSLAX46Y46*%
G04 Gerber Fmt 4.6, Leading zero omitted, Abs format (unit mm)*
G04 Created by KiCad (PCBNEW (2015-10-31 BZR 6288)-product) date Tuesday, December 15, 2015 'PMt' 06:06:37 PM*
%MOMM*%
G01*
G04 APERTURE LIST*
%ADD10C,0.100000*%
%ADD11R,1.300000X1.300000*%
%ADD12C,1.300000*%
%ADD13R,1.727200X2.032000*%
%ADD14O,1.727200X2.032000*%
%ADD15R,2.032000X1.727200*%
%ADD16O,2.032000X1.727200*%
%ADD17C,1.998980*%
%ADD18C,1.501140*%
%ADD19O,2.300000X1.600000*%
%ADD20R,1.727200X1.727200*%
%ADD21O,1.727200X1.727200*%
G04 APERTURE END LIST*
D10*
D11*
X160020000Y-106680000D03*
D12*
X160020000Y-109180000D03*
D11*
X175260000Y-116840000D03*
D12*
X175260000Y-119340000D03*
D11*
X175260000Y-111760000D03*
D12*
X175260000Y-109260000D03*
D11*
X153670000Y-119380000D03*
D12*
X151170000Y-119380000D03*
D11*
X153670000Y-114300000D03*
D12*
X151170000Y-114300000D03*
D13*
X165100000Y-138430000D03*
D14*
X167640000Y-138430000D03*
X170180000Y-138430000D03*
D15*
X140970000Y-125730000D03*
D16*
X140970000Y-128270000D03*
X140970000Y-130810000D03*
X140970000Y-133350000D03*
D15*
X140970000Y-100330000D03*
D16*
X140970000Y-102870000D03*
X140970000Y-105410000D03*
X140970000Y-107950000D03*
X140970000Y-110490000D03*
X140970000Y-113030000D03*
X140970000Y-115570000D03*
X140970000Y-118110000D03*
D15*
X184150000Y-109220000D03*
D16*
X184150000Y-111760000D03*
X184150000Y-114300000D03*
X184150000Y-116840000D03*
X184150000Y-119380000D03*
X184150000Y-121920000D03*
D17*
X153670000Y-94100000D03*
X153670000Y-109100000D03*
D18*
X158750000Y-114399060D03*
X158750000Y-119280940D03*
D19*
X163830000Y-95250000D03*
X163830000Y-97790000D03*
X163830000Y-100330000D03*
X163830000Y-102870000D03*
X163830000Y-105410000D03*
X163830000Y-107950000D03*
X163830000Y-110490000D03*
X163830000Y-113030000D03*
X163830000Y-115570000D03*
X163830000Y-118110000D03*
X163830000Y-120650000D03*
X163830000Y-123190000D03*
X163830000Y-125730000D03*
X163830000Y-128270000D03*
X171450000Y-128270000D03*
X171450000Y-125730000D03*
X171450000Y-123190000D03*
X171450000Y-120650000D03*
X171450000Y-118110000D03*
X171450000Y-115570000D03*
X171450000Y-113030000D03*
X171450000Y-110490000D03*
X171450000Y-107950000D03*
X171450000Y-105410000D03*
X171450000Y-102870000D03*
X171450000Y-100330000D03*
X171450000Y-97790000D03*
X171450000Y-95250000D03*
D17*
X184150000Y-134579360D03*
X184150000Y-129578100D03*
X179070000Y-134579360D03*
X179070000Y-129578100D03*
X173990000Y-134579360D03*
X173990000Y-129578100D03*
X160020000Y-134579360D03*
X160020000Y-129578100D03*
X154940000Y-134579360D03*
X154940000Y-129578100D03*
X149860000Y-134579360D03*
X149860000Y-129578100D03*
D20*
X179070000Y-96520000D03*
D21*
X179070000Y-93980000D03*
X181610000Y-96520000D03*
X181610000Y-93980000D03*
X184150000Y-96520000D03*
X184150000Y-93980000D03*
M02*
