G04 #@! TF.FileFunction,Copper,L2,Bot,Signal*
%FSLAX46Y46*%
G04 Gerber Fmt 4.6, Leading zero omitted, Abs format (unit mm)*
G04 Created by KiCad (PCBNEW (2015-10-31 BZR 6288)-product) date Tuesday, December 01, 2015 'PMt' 04:48:33 PM*
%MOMM*%
G01*
G04 APERTURE LIST*
%ADD10C,0.100000*%
%ADD11R,1.300000X1.300000*%
%ADD12C,1.300000*%
%ADD13R,1.727200X2.032000*%
%ADD14O,1.727200X2.032000*%
%ADD15R,2.032000X1.727200*%
%ADD16O,2.032000X1.727200*%
%ADD17C,1.998980*%
%ADD18C,1.501140*%
%ADD19O,2.300000X1.600000*%
%ADD20C,0.700000*%
%ADD21C,0.750000*%
G04 APERTURE END LIST*
D10*
D11*
X160020000Y-106680000D03*
D12*
X160020000Y-109180000D03*
D11*
X175260000Y-116840000D03*
D12*
X175260000Y-119340000D03*
D11*
X175260000Y-111760000D03*
D12*
X175260000Y-109260000D03*
D11*
X153670000Y-119380000D03*
D12*
X151170000Y-119380000D03*
D11*
X153670000Y-114300000D03*
D12*
X151170000Y-114300000D03*
D13*
X165100000Y-138430000D03*
D14*
X167640000Y-138430000D03*
X170180000Y-138430000D03*
D15*
X140970000Y-125730000D03*
D16*
X140970000Y-128270000D03*
X140970000Y-130810000D03*
X140970000Y-133350000D03*
D15*
X140970000Y-100330000D03*
D16*
X140970000Y-102870000D03*
X140970000Y-105410000D03*
X140970000Y-107950000D03*
X140970000Y-110490000D03*
X140970000Y-113030000D03*
X140970000Y-115570000D03*
X140970000Y-118110000D03*
D15*
X184150000Y-109220000D03*
D16*
X184150000Y-111760000D03*
X184150000Y-114300000D03*
X184150000Y-116840000D03*
X184150000Y-119380000D03*
X184150000Y-121920000D03*
D17*
X153670000Y-94100000D03*
X153670000Y-109100000D03*
D18*
X158750000Y-114399060D03*
X158750000Y-119280940D03*
D19*
X163830000Y-95250000D03*
X163830000Y-97790000D03*
X163830000Y-100330000D03*
X163830000Y-102870000D03*
X163830000Y-105410000D03*
X163830000Y-107950000D03*
X163830000Y-110490000D03*
X163830000Y-113030000D03*
X163830000Y-115570000D03*
X163830000Y-118110000D03*
X163830000Y-120650000D03*
X163830000Y-123190000D03*
X163830000Y-125730000D03*
X163830000Y-128270000D03*
X171450000Y-128270000D03*
X171450000Y-125730000D03*
X171450000Y-123190000D03*
X171450000Y-120650000D03*
X171450000Y-118110000D03*
X171450000Y-115570000D03*
X171450000Y-113030000D03*
X171450000Y-110490000D03*
X171450000Y-107950000D03*
X171450000Y-105410000D03*
X171450000Y-102870000D03*
X171450000Y-100330000D03*
X171450000Y-97790000D03*
X171450000Y-95250000D03*
D20*
X156994700Y-128757500D03*
D21*
X179070000Y-116840000D02*
X175260000Y-116840000D01*
X184150000Y-121920000D02*
X179070000Y-116840000D01*
X140970000Y-118110000D02*
X142736000Y-118110000D01*
X173350000Y-116330000D02*
X173860000Y-116840000D01*
X173350000Y-115570000D02*
X173350000Y-116330000D01*
X175260000Y-116840000D02*
X173860000Y-116840000D01*
X171450000Y-115570000D02*
X173350000Y-115570000D01*
X163830000Y-110490000D02*
X160020000Y-106680000D01*
X144013900Y-116832100D02*
X142736000Y-118110000D01*
X158266600Y-116832100D02*
X144013900Y-116832100D01*
X161321300Y-113777400D02*
X158266600Y-116832100D01*
X161321300Y-112998700D02*
X161321300Y-113777400D01*
X163830000Y-110490000D02*
X161321300Y-112998700D01*
X149900000Y-115570000D02*
X151170000Y-114300000D01*
X140970000Y-115570000D02*
X149900000Y-115570000D01*
X156290000Y-109180000D02*
X160020000Y-109180000D01*
X151170000Y-114300000D02*
X156290000Y-109180000D01*
X159027600Y-117832400D02*
X163830000Y-113030000D01*
X152717600Y-117832400D02*
X159027600Y-117832400D01*
X151170000Y-119380000D02*
X152717600Y-117832400D01*
X172680000Y-109260000D02*
X171450000Y-110490000D01*
X175260000Y-109260000D02*
X172680000Y-109260000D01*
X166370000Y-110490000D02*
X163830000Y-113030000D01*
X171450000Y-110490000D02*
X166370000Y-110490000D01*
X175260000Y-128270000D02*
X165100000Y-138430000D01*
X175260000Y-119340000D02*
X175260000Y-128270000D01*
X173350000Y-112270000D02*
X173860000Y-111760000D01*
X173350000Y-113030000D02*
X173350000Y-112270000D01*
X175260000Y-111760000D02*
X173860000Y-111760000D01*
X171450000Y-113030000D02*
X173350000Y-113030000D01*
X153670000Y-119380000D02*
X155070000Y-119380000D01*
X155169100Y-119280900D02*
X158750000Y-119280900D01*
X155070000Y-119380000D02*
X155169100Y-119280900D01*
X160759100Y-119280900D02*
X161930000Y-118110000D01*
X158750000Y-119280900D02*
X160759100Y-119280900D01*
X163830000Y-118110000D02*
X161930000Y-118110000D01*
X155169100Y-114399100D02*
X155070000Y-114300000D01*
X158750000Y-114399100D02*
X155169100Y-114399100D01*
X153670000Y-114300000D02*
X155070000Y-114300000D01*
X160780000Y-94100000D02*
X161930000Y-95250000D01*
X153670000Y-94100000D02*
X160780000Y-94100000D01*
X163830000Y-95250000D02*
X161930000Y-95250000D01*
X184150000Y-105576800D02*
X184150000Y-109220000D01*
X172374200Y-93801000D02*
X184150000Y-105576800D01*
X170439400Y-93801000D02*
X172374200Y-93801000D01*
X168640300Y-95600100D02*
X170439400Y-93801000D01*
X168640300Y-103139700D02*
X168640300Y-95600100D01*
X163830000Y-107950000D02*
X168640300Y-103139700D01*
X157482200Y-128270000D02*
X163830000Y-128270000D01*
X156994700Y-128757500D02*
X157482200Y-128270000D01*
X171450000Y-128270000D02*
X171450000Y-129820000D01*
X170511900Y-130758100D02*
X171450000Y-129820000D01*
X143458100Y-130758100D02*
X170511900Y-130758100D01*
X140970000Y-128270000D02*
X143458100Y-130758100D01*
X167422200Y-129757800D02*
X171450000Y-125730000D01*
X150351300Y-129757800D02*
X167422200Y-129757800D01*
X139321700Y-118728200D02*
X150351300Y-129757800D01*
X139321700Y-112138300D02*
X139321700Y-118728200D01*
X140970000Y-110490000D02*
X139321700Y-112138300D01*
M02*
