G04 #@! TF.FileFunction,Soldermask,Bot*
%FSLAX46Y46*%
G04 Gerber Fmt 4.6, Leading zero omitted, Abs format (unit mm)*
G04 Created by KiCad (PCBNEW (2015-10-31 BZR 6288)-product) date Sunday, February 14, 2016 'AMt' 12:13:45 AM*
%MOMM*%
G01*
G04 APERTURE LIST*
%ADD10C,0.100000*%
%ADD11R,1.300000X1.300000*%
%ADD12C,1.300000*%
%ADD13O,1.600000X2.300000*%
%ADD14R,1.727200X2.032000*%
%ADD15O,1.727200X2.032000*%
%ADD16R,2.032000X1.727200*%
%ADD17O,2.032000X1.727200*%
%ADD18R,1.727200X1.727200*%
%ADD19O,1.727200X1.727200*%
%ADD20R,2.032000X2.032000*%
%ADD21O,2.032000X2.032000*%
%ADD22C,1.998980*%
%ADD23C,1.501140*%
%ADD24C,1.699260*%
G04 APERTURE END LIST*
D10*
D11*
X182880000Y-88900000D03*
D12*
X185380000Y-88900000D03*
D11*
X125730000Y-82550000D03*
D12*
X125730000Y-85050000D03*
D11*
X180340000Y-88900000D03*
D12*
X177840000Y-88900000D03*
D11*
X186690000Y-105410000D03*
D12*
X189190000Y-105410000D03*
D11*
X181610000Y-105410000D03*
D12*
X179110000Y-105410000D03*
D11*
X133350000Y-105410000D03*
D12*
X133350000Y-107910000D03*
D11*
X133350000Y-100330000D03*
D12*
X133350000Y-97830000D03*
D13*
X162560000Y-100330000D03*
X165100000Y-100330000D03*
X167640000Y-100330000D03*
X170180000Y-100330000D03*
X172720000Y-100330000D03*
X175260000Y-100330000D03*
X177800000Y-100330000D03*
X180340000Y-100330000D03*
X182880000Y-100330000D03*
X185420000Y-100330000D03*
X187960000Y-100330000D03*
X190500000Y-100330000D03*
X193040000Y-100330000D03*
X195580000Y-100330000D03*
X195580000Y-92710000D03*
X193040000Y-92710000D03*
X190500000Y-92710000D03*
X187960000Y-92710000D03*
X185420000Y-92710000D03*
X182880000Y-92710000D03*
X180340000Y-92710000D03*
X177800000Y-92710000D03*
X175260000Y-92710000D03*
X172720000Y-92710000D03*
X170180000Y-92710000D03*
X167640000Y-92710000D03*
X165100000Y-92710000D03*
X162560000Y-92710000D03*
D14*
X208280000Y-85090000D03*
D15*
X210820000Y-85090000D03*
X213360000Y-85090000D03*
D16*
X121920000Y-80010000D03*
D17*
X121920000Y-82550000D03*
X121920000Y-85090000D03*
X121920000Y-87630000D03*
D16*
X121920000Y-107950000D03*
D17*
X121920000Y-110490000D03*
X121920000Y-113030000D03*
X121920000Y-115570000D03*
X121920000Y-118110000D03*
X121920000Y-120650000D03*
X121920000Y-123190000D03*
X121920000Y-125730000D03*
D16*
X222250000Y-96520000D03*
D17*
X222250000Y-99060000D03*
X222250000Y-101600000D03*
X222250000Y-104140000D03*
X222250000Y-106680000D03*
X222250000Y-109220000D03*
D18*
X129540000Y-125730000D03*
D19*
X129540000Y-123190000D03*
X132080000Y-125730000D03*
X132080000Y-123190000D03*
X134620000Y-125730000D03*
X134620000Y-123190000D03*
D20*
X203200000Y-120650000D03*
D21*
X203200000Y-118110000D03*
D20*
X140970000Y-125730000D03*
D21*
X143510000Y-125730000D03*
D22*
X162560000Y-104140000D03*
X162560000Y-114300000D03*
X175260000Y-114300000D03*
X175260000Y-104140000D03*
D23*
X181709060Y-111760000D03*
X186590940Y-111760000D03*
D24*
X143510000Y-102870000D03*
X143510000Y-100578920D03*
X143510000Y-105161080D03*
M02*
