M48
INCH,TZ
T1C0.016
T2C0.031
T3C0.032
T4C0.039
T5C0.040
T6C0.047
%
G90
G05
T1
X54283Y-36626
X72000Y-38770
T2
X49500Y-32500
X60000Y-37516
X60000Y-38500
X60000Y-40500
X60000Y-41484
X64000Y-36500
X64000Y-39500
X65000Y-36500
X65000Y-39500
X66000Y-36500
X66000Y-39500
X67000Y-36500
X67000Y-39500
X68000Y-36500
X68000Y-39500
X69000Y-36500
X69000Y-39500
X70000Y-36500
X70000Y-39500
X71000Y-35000
X71000Y-36500
X71000Y-39500
X71500Y-41500
X72000Y-35000
X72000Y-36500
X72000Y-39500
X73000Y-36500
X73000Y-39500
X73500Y-41500
X74000Y-36500
X74000Y-39500
X75000Y-36500
X75000Y-39500
X76000Y-36500
X76000Y-39500
X77000Y-36500
X77000Y-39500
T3
X49500Y-33484
X70016Y-35000
X70516Y-41500
X71539Y-44000
X72984Y-35000
X73461Y-44000
X74484Y-41500
T4
X64000Y-41000
X64000Y-45000
X69000Y-41000
X69000Y-45000
T5
X48000Y-31500
X48000Y-32500
X48000Y-33500
X48000Y-34500
X48000Y-42500
X48000Y-43500
X48000Y-44500
X48000Y-45500
X48000Y-46500
X48000Y-47500
X48000Y-48500
X48000Y-49500
X51000Y-48500
X51000Y-49500
X52000Y-48500
X52000Y-49500
X53000Y-48500
X53000Y-49500
X55500Y-49500
X56500Y-49500
X80000Y-46500
X80000Y-47500
X82000Y-33500
X83000Y-33500
X84000Y-33500
X87500Y-38000
X87500Y-39000
X87500Y-40000
X87500Y-41000
X87500Y-42000
X87500Y-43000
T6
X55250Y-38598
X55250Y-39500
X55250Y-40402
T0
M30
