G04 #@! TF.FileFunction,Copper,L2,Bot,Signal*
%FSLAX46Y46*%
G04 Gerber Fmt 4.6, Leading zero omitted, Abs format (unit mm)*
G04 Created by KiCad (PCBNEW (2015-10-31 BZR 6288)-product) date Tuesday, December 15, 2015 'PMt' 06:06:37 PM*
%MOMM*%
G01*
G04 APERTURE LIST*
%ADD10C,0.100000*%
%ADD11R,1.300000X1.300000*%
%ADD12C,1.300000*%
%ADD13R,1.727200X2.032000*%
%ADD14O,1.727200X2.032000*%
%ADD15R,2.032000X1.727200*%
%ADD16O,2.032000X1.727200*%
%ADD17C,1.998980*%
%ADD18C,1.501140*%
%ADD19O,2.300000X1.600000*%
%ADD20R,1.727200X1.727200*%
%ADD21O,1.727200X1.727200*%
%ADD22C,0.700000*%
%ADD23C,0.750000*%
G04 APERTURE END LIST*
D10*
D11*
X160020000Y-106680000D03*
D12*
X160020000Y-109180000D03*
D11*
X175260000Y-116840000D03*
D12*
X175260000Y-119340000D03*
D11*
X175260000Y-111760000D03*
D12*
X175260000Y-109260000D03*
D11*
X153670000Y-119380000D03*
D12*
X151170000Y-119380000D03*
D11*
X153670000Y-114300000D03*
D12*
X151170000Y-114300000D03*
D13*
X165100000Y-138430000D03*
D14*
X167640000Y-138430000D03*
X170180000Y-138430000D03*
D15*
X140970000Y-125730000D03*
D16*
X140970000Y-128270000D03*
X140970000Y-130810000D03*
X140970000Y-133350000D03*
D15*
X140970000Y-100330000D03*
D16*
X140970000Y-102870000D03*
X140970000Y-105410000D03*
X140970000Y-107950000D03*
X140970000Y-110490000D03*
X140970000Y-113030000D03*
X140970000Y-115570000D03*
X140970000Y-118110000D03*
D15*
X184150000Y-109220000D03*
D16*
X184150000Y-111760000D03*
X184150000Y-114300000D03*
X184150000Y-116840000D03*
X184150000Y-119380000D03*
X184150000Y-121920000D03*
D17*
X153670000Y-94100000D03*
X153670000Y-109100000D03*
D18*
X158750000Y-114399060D03*
X158750000Y-119280940D03*
D19*
X163830000Y-95250000D03*
X163830000Y-97790000D03*
X163830000Y-100330000D03*
X163830000Y-102870000D03*
X163830000Y-105410000D03*
X163830000Y-107950000D03*
X163830000Y-110490000D03*
X163830000Y-113030000D03*
X163830000Y-115570000D03*
X163830000Y-118110000D03*
X163830000Y-120650000D03*
X163830000Y-123190000D03*
X163830000Y-125730000D03*
X163830000Y-128270000D03*
X171450000Y-128270000D03*
X171450000Y-125730000D03*
X171450000Y-123190000D03*
X171450000Y-120650000D03*
X171450000Y-118110000D03*
X171450000Y-115570000D03*
X171450000Y-113030000D03*
X171450000Y-110490000D03*
X171450000Y-107950000D03*
X171450000Y-105410000D03*
X171450000Y-102870000D03*
X171450000Y-100330000D03*
X171450000Y-97790000D03*
X171450000Y-95250000D03*
D17*
X184150000Y-134579360D03*
X184150000Y-129578100D03*
X179070000Y-134579360D03*
X179070000Y-129578100D03*
X173990000Y-134579360D03*
X173990000Y-129578100D03*
X160020000Y-134579360D03*
X160020000Y-129578100D03*
X154940000Y-134579360D03*
X154940000Y-129578100D03*
X149860000Y-134579360D03*
X149860000Y-129578100D03*
D20*
X179070000Y-96520000D03*
D21*
X179070000Y-93980000D03*
X181610000Y-96520000D03*
X181610000Y-93980000D03*
X184150000Y-96520000D03*
X184150000Y-93980000D03*
D22*
X167755900Y-111588200D03*
X180349400Y-119340000D03*
X154357500Y-117849400D03*
X174034500Y-100706600D03*
X169225600Y-130016700D03*
X173777500Y-119649700D03*
X178447200Y-115515100D03*
D23*
X166828200Y-111588200D02*
X165730000Y-110490000D01*
X167755900Y-111588200D02*
X166828200Y-111588200D01*
X163830000Y-110490000D02*
X165730000Y-110490000D01*
X156090000Y-106680000D02*
X153670000Y-109100000D01*
X160020000Y-106680000D02*
X156090000Y-106680000D01*
X144660000Y-118110000D02*
X140970000Y-118110000D01*
X153670000Y-109100000D02*
X144660000Y-118110000D01*
X184150000Y-121639600D02*
X179350400Y-116840000D01*
X184150000Y-121920000D02*
X184150000Y-121639600D01*
X179350400Y-116840000D02*
X175260000Y-116840000D01*
X172534600Y-114485400D02*
X171450000Y-115570000D01*
X178926600Y-114485400D02*
X172534600Y-114485400D01*
X179448100Y-115006900D02*
X178926600Y-114485400D01*
X179448100Y-116742300D02*
X179448100Y-115006900D01*
X179350400Y-116840000D02*
X179448100Y-116742300D01*
X160020000Y-129578100D02*
X154940000Y-129578100D01*
X146088100Y-133350000D02*
X140970000Y-133350000D01*
X149860000Y-129578100D02*
X146088100Y-133350000D01*
X184150000Y-116840000D02*
X182384000Y-116840000D01*
X151170000Y-119380000D02*
X151170000Y-114300000D01*
X175260000Y-119340000D02*
X180349400Y-119340000D01*
X171450000Y-110490000D02*
X173350000Y-110490000D01*
X175260000Y-109358200D02*
X175260000Y-109260000D01*
X174481800Y-109358200D02*
X173350000Y-110490000D01*
X175260000Y-109358200D02*
X174481800Y-109358200D01*
X182384000Y-116482200D02*
X175260000Y-109358200D01*
X182384000Y-116840000D02*
X182384000Y-116482200D01*
X173350000Y-112270000D02*
X173860000Y-111760000D01*
X173350000Y-113030000D02*
X173350000Y-112270000D01*
X175260000Y-111760000D02*
X173860000Y-111760000D01*
X171450000Y-113030000D02*
X173350000Y-113030000D01*
X155169100Y-119280900D02*
X155070000Y-119380000D01*
X158750000Y-119280900D02*
X155169100Y-119280900D01*
X153670000Y-119380000D02*
X155070000Y-119380000D01*
X160759100Y-119280900D02*
X158750000Y-119280900D01*
X161930000Y-118110000D02*
X160759100Y-119280900D01*
X163830000Y-118110000D02*
X161930000Y-118110000D01*
X155169100Y-114399100D02*
X155070000Y-114300000D01*
X158750000Y-114399100D02*
X155169100Y-114399100D01*
X153670000Y-114300000D02*
X155070000Y-114300000D01*
X173578300Y-93700000D02*
X163830000Y-93700000D01*
X177887300Y-98009000D02*
X173578300Y-93700000D01*
X182661000Y-98009000D02*
X177887300Y-98009000D01*
X184150000Y-96520000D02*
X182661000Y-98009000D01*
X163830000Y-95250000D02*
X163830000Y-94475000D01*
X163830000Y-94475000D02*
X163830000Y-93700000D01*
X154045000Y-94475000D02*
X153670000Y-94100000D01*
X163830000Y-94475000D02*
X154045000Y-94475000D01*
X161290000Y-102870000D02*
X140970000Y-102870000D01*
X163830000Y-100330000D02*
X161290000Y-102870000D01*
X154357500Y-117849300D02*
X154357500Y-117849400D01*
X157252500Y-117849300D02*
X154357500Y-117849300D01*
X161590100Y-113511700D02*
X157252500Y-117849300D01*
X161590100Y-105109900D02*
X161590100Y-113511700D01*
X163830000Y-102870000D02*
X161590100Y-105109900D01*
X169445900Y-111025900D02*
X163830000Y-105410000D01*
X169445900Y-128651200D02*
X169445900Y-111025900D01*
X172030700Y-131236000D02*
X169445900Y-128651200D01*
X177412100Y-131236000D02*
X172030700Y-131236000D01*
X179070000Y-129578100D02*
X177412100Y-131236000D01*
X163830000Y-120650000D02*
X161930000Y-120650000D01*
X184150000Y-109220000D02*
X184150000Y-107606400D01*
X161870000Y-120710000D02*
X161930000Y-120650000D01*
X141291700Y-120710000D02*
X161870000Y-120710000D01*
X139328600Y-118746900D02*
X141291700Y-120710000D01*
X139328600Y-99164300D02*
X139328600Y-118746900D01*
X146056400Y-92436500D02*
X139328600Y-99164300D01*
X184769500Y-92436500D02*
X146056400Y-92436500D01*
X185660300Y-93327300D02*
X184769500Y-92436500D01*
X185660300Y-106096100D02*
X185660300Y-93327300D01*
X184150000Y-107606400D02*
X185660300Y-106096100D01*
X184150000Y-111760000D02*
X182384000Y-111760000D01*
X174034500Y-103410500D02*
X174034500Y-100706600D01*
X182384000Y-111760000D02*
X174034500Y-103410500D01*
X165730000Y-126521100D02*
X169225600Y-130016700D01*
X165730000Y-125730000D02*
X165730000Y-126521100D01*
X163830000Y-125730000D02*
X165730000Y-125730000D01*
X143847800Y-127932200D02*
X140970000Y-130810000D01*
X161592200Y-127932200D02*
X143847800Y-127932200D01*
X161930000Y-128270000D02*
X161592200Y-127932200D01*
X163830000Y-128270000D02*
X161930000Y-128270000D01*
X139278800Y-129961200D02*
X140970000Y-128270000D01*
X139278800Y-133989200D02*
X139278800Y-129961200D01*
X142523200Y-137233600D02*
X139278800Y-133989200D01*
X162827000Y-137233600D02*
X142523200Y-137233600D01*
X163272000Y-136788600D02*
X162827000Y-137233600D01*
X179226300Y-136788600D02*
X163272000Y-136788600D01*
X180732500Y-135282400D02*
X179226300Y-136788600D01*
X180732500Y-128935200D02*
X180732500Y-135282400D01*
X179726500Y-127929200D02*
X180732500Y-128935200D01*
X171790800Y-127929200D02*
X179726500Y-127929200D01*
X171450000Y-128270000D02*
X171790800Y-127929200D01*
X173777500Y-120862500D02*
X171450000Y-123190000D01*
X173777500Y-119649700D02*
X173777500Y-120862500D01*
X174044900Y-115515100D02*
X178447200Y-115515100D01*
X171450000Y-118110000D02*
X174044900Y-115515100D01*
X169281800Y-140071800D02*
X167640000Y-138430000D01*
X177359900Y-140071800D02*
X169281800Y-140071800D01*
X182482800Y-134948900D02*
X177359900Y-140071800D01*
X182482800Y-125896400D02*
X182482800Y-134948900D01*
X185803900Y-122575300D02*
X182482800Y-125896400D01*
X185803900Y-121033900D02*
X185803900Y-122575300D01*
X184150000Y-119380000D02*
X185803900Y-121033900D01*
X177444500Y-132953900D02*
X179070000Y-134579400D01*
X156565500Y-132953900D02*
X177444500Y-132953900D01*
X154940000Y-134579400D02*
X156565500Y-132953900D01*
X162853700Y-134579400D02*
X173990000Y-134579400D01*
X161204200Y-136228900D02*
X162853700Y-134579400D01*
X151509500Y-136228900D02*
X161204200Y-136228900D01*
X149860000Y-134579400D02*
X151509500Y-136228900D01*
M02*
