G04 #@! TF.FileFunction,Legend,Top*
%FSLAX46Y46*%
G04 Gerber Fmt 4.6, Leading zero omitted, Abs format (unit mm)*
G04 Created by KiCad (PCBNEW (2015-10-31 BZR 6288)-product) date Sunday, February 14, 2016 'PMt' 02:04:00 PM*
%MOMM*%
G01*
G04 APERTURE LIST*
%ADD10C,0.100000*%
%ADD11C,0.177800*%
%ADD12C,0.250000*%
%ADD13C,0.150000*%
G04 APERTURE END LIST*
D10*
D11*
X172537381Y-109910476D02*
X172537381Y-110481905D01*
X172537381Y-110196191D02*
X171537381Y-110196191D01*
X171680238Y-110291429D01*
X171775476Y-110386667D01*
X171823095Y-110481905D01*
X171537381Y-109291429D02*
X171537381Y-109196190D01*
X171585000Y-109100952D01*
X171632619Y-109053333D01*
X171727857Y-109005714D01*
X171918333Y-108958095D01*
X172156429Y-108958095D01*
X172346905Y-109005714D01*
X172442143Y-109053333D01*
X172489762Y-109100952D01*
X172537381Y-109196190D01*
X172537381Y-109291429D01*
X172489762Y-109386667D01*
X172442143Y-109434286D01*
X172346905Y-109481905D01*
X172156429Y-109529524D01*
X171918333Y-109529524D01*
X171727857Y-109481905D01*
X171632619Y-109434286D01*
X171585000Y-109386667D01*
X171537381Y-109291429D01*
X172537381Y-108529524D02*
X171537381Y-108529524D01*
X172537381Y-107958095D02*
X171965952Y-108386667D01*
X171537381Y-107958095D02*
X172108810Y-108529524D01*
X159837381Y-109910476D02*
X159837381Y-110481905D01*
X159837381Y-110196191D02*
X158837381Y-110196191D01*
X158980238Y-110291429D01*
X159075476Y-110386667D01*
X159123095Y-110481905D01*
X158837381Y-109291429D02*
X158837381Y-109196190D01*
X158885000Y-109100952D01*
X158932619Y-109053333D01*
X159027857Y-109005714D01*
X159218333Y-108958095D01*
X159456429Y-108958095D01*
X159646905Y-109005714D01*
X159742143Y-109053333D01*
X159789762Y-109100952D01*
X159837381Y-109196190D01*
X159837381Y-109291429D01*
X159789762Y-109386667D01*
X159742143Y-109434286D01*
X159646905Y-109481905D01*
X159456429Y-109529524D01*
X159218333Y-109529524D01*
X159027857Y-109481905D01*
X158932619Y-109434286D01*
X158885000Y-109386667D01*
X158837381Y-109291429D01*
X159837381Y-108529524D02*
X158837381Y-108529524D01*
X159837381Y-107958095D02*
X159265952Y-108386667D01*
X158837381Y-107958095D02*
X159408810Y-108529524D01*
X178840000Y-107497619D02*
X178887619Y-107450000D01*
X178982857Y-107402381D01*
X179220953Y-107402381D01*
X179316191Y-107450000D01*
X179363810Y-107497619D01*
X179411429Y-107592857D01*
X179411429Y-107688095D01*
X179363810Y-107830952D01*
X178792381Y-108402381D01*
X179411429Y-108402381D01*
X179792381Y-107497619D02*
X179840000Y-107450000D01*
X179935238Y-107402381D01*
X180173334Y-107402381D01*
X180268572Y-107450000D01*
X180316191Y-107497619D01*
X180363810Y-107592857D01*
X180363810Y-107688095D01*
X180316191Y-107830952D01*
X179744762Y-108402381D01*
X180363810Y-108402381D01*
X180792381Y-107735714D02*
X180792381Y-108735714D01*
X180792381Y-107783333D02*
X180887619Y-107735714D01*
X181078096Y-107735714D01*
X181173334Y-107783333D01*
X181220953Y-107830952D01*
X181268572Y-107926190D01*
X181268572Y-108211905D01*
X181220953Y-108307143D01*
X181173334Y-108354762D01*
X181078096Y-108402381D01*
X180887619Y-108402381D01*
X180792381Y-108354762D01*
X181554286Y-107735714D02*
X181935238Y-107735714D01*
X181697143Y-108402381D02*
X181697143Y-107545238D01*
X181744762Y-107450000D01*
X181840000Y-107402381D01*
X181935238Y-107402381D01*
X186460000Y-107497619D02*
X186507619Y-107450000D01*
X186602857Y-107402381D01*
X186840953Y-107402381D01*
X186936191Y-107450000D01*
X186983810Y-107497619D01*
X187031429Y-107592857D01*
X187031429Y-107688095D01*
X186983810Y-107830952D01*
X186412381Y-108402381D01*
X187031429Y-108402381D01*
X187412381Y-107497619D02*
X187460000Y-107450000D01*
X187555238Y-107402381D01*
X187793334Y-107402381D01*
X187888572Y-107450000D01*
X187936191Y-107497619D01*
X187983810Y-107592857D01*
X187983810Y-107688095D01*
X187936191Y-107830952D01*
X187364762Y-108402381D01*
X187983810Y-108402381D01*
X188412381Y-107735714D02*
X188412381Y-108735714D01*
X188412381Y-107783333D02*
X188507619Y-107735714D01*
X188698096Y-107735714D01*
X188793334Y-107783333D01*
X188840953Y-107830952D01*
X188888572Y-107926190D01*
X188888572Y-108211905D01*
X188840953Y-108307143D01*
X188793334Y-108354762D01*
X188698096Y-108402381D01*
X188507619Y-108402381D01*
X188412381Y-108354762D01*
X189174286Y-107735714D02*
X189555238Y-107735714D01*
X189317143Y-108402381D02*
X189317143Y-107545238D01*
X189364762Y-107450000D01*
X189460000Y-107402381D01*
X189555238Y-107402381D01*
X182388096Y-116022381D02*
X181816667Y-116022381D01*
X182102381Y-116022381D02*
X182102381Y-115022381D01*
X182007143Y-115165238D01*
X181911905Y-115260476D01*
X181816667Y-115308095D01*
X183245239Y-115022381D02*
X183054762Y-115022381D01*
X182959524Y-115070000D01*
X182911905Y-115117619D01*
X182816667Y-115260476D01*
X182769048Y-115450952D01*
X182769048Y-115831905D01*
X182816667Y-115927143D01*
X182864286Y-115974762D01*
X182959524Y-116022381D01*
X183150001Y-116022381D01*
X183245239Y-115974762D01*
X183292858Y-115927143D01*
X183340477Y-115831905D01*
X183340477Y-115593810D01*
X183292858Y-115498571D01*
X183245239Y-115450952D01*
X183150001Y-115403333D01*
X182959524Y-115403333D01*
X182864286Y-115450952D01*
X182816667Y-115498571D01*
X182769048Y-115593810D01*
X183769048Y-116022381D02*
X183769048Y-115022381D01*
X184102382Y-115736667D01*
X184435715Y-115022381D01*
X184435715Y-116022381D01*
X184911905Y-116022381D02*
X184911905Y-115022381D01*
X184911905Y-115498571D02*
X185483334Y-115498571D01*
X185483334Y-116022381D02*
X185483334Y-115022381D01*
X185864286Y-115022381D02*
X186530953Y-115022381D01*
X185864286Y-116022381D01*
X186530953Y-116022381D01*
X146391429Y-104592381D02*
X145820000Y-104592381D01*
X146105714Y-104592381D02*
X146105714Y-103592381D01*
X146010476Y-103735238D01*
X145915238Y-103830476D01*
X145820000Y-103878095D01*
X147010476Y-103592381D02*
X147105715Y-103592381D01*
X147200953Y-103640000D01*
X147248572Y-103687619D01*
X147296191Y-103782857D01*
X147343810Y-103973333D01*
X147343810Y-104211429D01*
X147296191Y-104401905D01*
X147248572Y-104497143D01*
X147200953Y-104544762D01*
X147105715Y-104592381D01*
X147010476Y-104592381D01*
X146915238Y-104544762D01*
X146867619Y-104497143D01*
X146820000Y-104401905D01*
X146772381Y-104211429D01*
X146772381Y-103973333D01*
X146820000Y-103782857D01*
X146867619Y-103687619D01*
X146915238Y-103640000D01*
X147010476Y-103592381D01*
X148200953Y-103925714D02*
X148200953Y-104592381D01*
X147772381Y-103925714D02*
X147772381Y-104449524D01*
X147820000Y-104544762D01*
X147915238Y-104592381D01*
X148058096Y-104592381D01*
X148153334Y-104544762D01*
X148200953Y-104497143D01*
X148534286Y-103925714D02*
X148915238Y-103925714D01*
X148677143Y-104592381D02*
X148677143Y-103735238D01*
X148724762Y-103640000D01*
X148820000Y-103592381D01*
X148915238Y-103592381D01*
X146391429Y-96972381D02*
X145820000Y-96972381D01*
X146105714Y-96972381D02*
X146105714Y-95972381D01*
X146010476Y-96115238D01*
X145915238Y-96210476D01*
X145820000Y-96258095D01*
X147010476Y-95972381D02*
X147105715Y-95972381D01*
X147200953Y-96020000D01*
X147248572Y-96067619D01*
X147296191Y-96162857D01*
X147343810Y-96353333D01*
X147343810Y-96591429D01*
X147296191Y-96781905D01*
X147248572Y-96877143D01*
X147200953Y-96924762D01*
X147105715Y-96972381D01*
X147010476Y-96972381D01*
X146915238Y-96924762D01*
X146867619Y-96877143D01*
X146820000Y-96781905D01*
X146772381Y-96591429D01*
X146772381Y-96353333D01*
X146820000Y-96162857D01*
X146867619Y-96067619D01*
X146915238Y-96020000D01*
X147010476Y-95972381D01*
X148200953Y-96305714D02*
X148200953Y-96972381D01*
X147772381Y-96305714D02*
X147772381Y-96829524D01*
X147820000Y-96924762D01*
X147915238Y-96972381D01*
X148058096Y-96972381D01*
X148153334Y-96924762D01*
X148200953Y-96877143D01*
X148534286Y-96305714D02*
X148915238Y-96305714D01*
X148677143Y-96972381D02*
X148677143Y-96115238D01*
X148724762Y-96020000D01*
X148820000Y-95972381D01*
X148915238Y-95972381D01*
X135763096Y-97290000D02*
X135667858Y-97242381D01*
X135525001Y-97242381D01*
X135382143Y-97290000D01*
X135286905Y-97385238D01*
X135239286Y-97480476D01*
X135191667Y-97670952D01*
X135191667Y-97813810D01*
X135239286Y-98004286D01*
X135286905Y-98099524D01*
X135382143Y-98194762D01*
X135525001Y-98242381D01*
X135620239Y-98242381D01*
X135763096Y-98194762D01*
X135810715Y-98147143D01*
X135810715Y-97813810D01*
X135620239Y-97813810D01*
X136239286Y-98242381D02*
X136239286Y-97242381D01*
X136810715Y-98242381D01*
X136810715Y-97242381D01*
X137286905Y-98242381D02*
X137286905Y-97242381D01*
X137525000Y-97242381D01*
X137667858Y-97290000D01*
X137763096Y-97385238D01*
X137810715Y-97480476D01*
X137858334Y-97670952D01*
X137858334Y-97813810D01*
X137810715Y-98004286D01*
X137763096Y-98099524D01*
X137667858Y-98194762D01*
X137525000Y-98242381D01*
X137286905Y-98242381D01*
X135001190Y-99782381D02*
X135334523Y-100782381D01*
X135667857Y-99782381D01*
X136144047Y-100782381D02*
X136048809Y-100734762D01*
X136001190Y-100687143D01*
X135953571Y-100591905D01*
X135953571Y-100306190D01*
X136001190Y-100210952D01*
X136048809Y-100163333D01*
X136144047Y-100115714D01*
X136286905Y-100115714D01*
X136382143Y-100163333D01*
X136429762Y-100210952D01*
X136477381Y-100306190D01*
X136477381Y-100591905D01*
X136429762Y-100687143D01*
X136382143Y-100734762D01*
X136286905Y-100782381D01*
X136144047Y-100782381D01*
X137334524Y-100115714D02*
X137334524Y-100782381D01*
X136905952Y-100115714D02*
X136905952Y-100639524D01*
X136953571Y-100734762D01*
X137048809Y-100782381D01*
X137191667Y-100782381D01*
X137286905Y-100734762D01*
X137334524Y-100687143D01*
X137667857Y-100115714D02*
X138048809Y-100115714D01*
X137810714Y-99782381D02*
X137810714Y-100639524D01*
X137858333Y-100734762D01*
X137953571Y-100782381D01*
X138048809Y-100782381D01*
X136136191Y-102322381D02*
X136469524Y-103322381D01*
X136802858Y-102322381D01*
X137136191Y-103322381D02*
X137136191Y-102655714D01*
X137136191Y-102322381D02*
X137088572Y-102370000D01*
X137136191Y-102417619D01*
X137183810Y-102370000D01*
X137136191Y-102322381D01*
X137136191Y-102417619D01*
X137612381Y-102655714D02*
X137612381Y-103322381D01*
X137612381Y-102750952D02*
X137660000Y-102703333D01*
X137755238Y-102655714D01*
X137898096Y-102655714D01*
X137993334Y-102703333D01*
X138040953Y-102798571D01*
X138040953Y-103322381D01*
X130603810Y-120467381D02*
X130603810Y-119467381D01*
X131651429Y-120372143D02*
X131603810Y-120419762D01*
X131460953Y-120467381D01*
X131365715Y-120467381D01*
X131222857Y-120419762D01*
X131127619Y-120324524D01*
X131080000Y-120229286D01*
X131032381Y-120038810D01*
X131032381Y-119895952D01*
X131080000Y-119705476D01*
X131127619Y-119610238D01*
X131222857Y-119515000D01*
X131365715Y-119467381D01*
X131460953Y-119467381D01*
X131603810Y-119515000D01*
X131651429Y-119562619D01*
X132032381Y-120419762D02*
X132175238Y-120467381D01*
X132413334Y-120467381D01*
X132508572Y-120419762D01*
X132556191Y-120372143D01*
X132603810Y-120276905D01*
X132603810Y-120181667D01*
X132556191Y-120086429D01*
X132508572Y-120038810D01*
X132413334Y-119991190D01*
X132222857Y-119943571D01*
X132127619Y-119895952D01*
X132080000Y-119848333D01*
X132032381Y-119753095D01*
X132032381Y-119657857D01*
X132080000Y-119562619D01*
X132127619Y-119515000D01*
X132222857Y-119467381D01*
X132460953Y-119467381D01*
X132603810Y-119515000D01*
X133032381Y-120467381D02*
X133032381Y-119467381D01*
X133413334Y-119467381D01*
X133508572Y-119515000D01*
X133556191Y-119562619D01*
X133603810Y-119657857D01*
X133603810Y-119800714D01*
X133556191Y-119895952D01*
X133508572Y-119943571D01*
X133413334Y-119991190D01*
X133032381Y-119991190D01*
X143962381Y-122539047D02*
X143962381Y-123110476D01*
X143962381Y-122824762D02*
X142962381Y-122824762D01*
X143105238Y-122920000D01*
X143200476Y-123015238D01*
X143248095Y-123110476D01*
X143057619Y-122158095D02*
X143010000Y-122110476D01*
X142962381Y-122015238D01*
X142962381Y-121777142D01*
X143010000Y-121681904D01*
X143057619Y-121634285D01*
X143152857Y-121586666D01*
X143248095Y-121586666D01*
X143390952Y-121634285D01*
X143962381Y-122205714D01*
X143962381Y-121586666D01*
X142962381Y-121300952D02*
X143962381Y-120967619D01*
X142962381Y-120634285D01*
X140470000Y-122681904D02*
X140422381Y-122777142D01*
X140422381Y-122919999D01*
X140470000Y-123062857D01*
X140565238Y-123158095D01*
X140660476Y-123205714D01*
X140850952Y-123253333D01*
X140993810Y-123253333D01*
X141184286Y-123205714D01*
X141279524Y-123158095D01*
X141374762Y-123062857D01*
X141422381Y-122919999D01*
X141422381Y-122824761D01*
X141374762Y-122681904D01*
X141327143Y-122634285D01*
X140993810Y-122634285D01*
X140993810Y-122824761D01*
X141422381Y-122205714D02*
X140422381Y-122205714D01*
X141422381Y-121634285D01*
X140422381Y-121634285D01*
X141422381Y-121158095D02*
X140422381Y-121158095D01*
X140422381Y-120920000D01*
X140470000Y-120777142D01*
X140565238Y-120681904D01*
X140660476Y-120634285D01*
X140850952Y-120586666D01*
X140993810Y-120586666D01*
X141184286Y-120634285D01*
X141279524Y-120681904D01*
X141374762Y-120777142D01*
X141422381Y-120920000D01*
X141422381Y-121158095D01*
X128722381Y-85224762D02*
X128722381Y-85796191D01*
X128722381Y-85510477D02*
X127722381Y-85510477D01*
X127865238Y-85605715D01*
X127960476Y-85700953D01*
X128008095Y-85796191D01*
X127722381Y-84605715D02*
X127722381Y-84510476D01*
X127770000Y-84415238D01*
X127817619Y-84367619D01*
X127912857Y-84320000D01*
X128103333Y-84272381D01*
X128341429Y-84272381D01*
X128531905Y-84320000D01*
X128627143Y-84367619D01*
X128674762Y-84415238D01*
X128722381Y-84510476D01*
X128722381Y-84605715D01*
X128674762Y-84700953D01*
X128627143Y-84748572D01*
X128531905Y-84796191D01*
X128341429Y-84843810D01*
X128103333Y-84843810D01*
X127912857Y-84796191D01*
X127817619Y-84748572D01*
X127770000Y-84700953D01*
X127722381Y-84605715D01*
X127722381Y-83653334D02*
X127722381Y-83558095D01*
X127770000Y-83462857D01*
X127817619Y-83415238D01*
X127912857Y-83367619D01*
X128103333Y-83320000D01*
X128341429Y-83320000D01*
X128531905Y-83367619D01*
X128627143Y-83415238D01*
X128674762Y-83462857D01*
X128722381Y-83558095D01*
X128722381Y-83653334D01*
X128674762Y-83748572D01*
X128627143Y-83796191D01*
X128531905Y-83843810D01*
X128341429Y-83891429D01*
X128103333Y-83891429D01*
X127912857Y-83843810D01*
X127817619Y-83796191D01*
X127770000Y-83748572D01*
X127722381Y-83653334D01*
X128055714Y-82891429D02*
X128722381Y-82891429D01*
X128150952Y-82891429D02*
X128103333Y-82843810D01*
X128055714Y-82748572D01*
X128055714Y-82605714D01*
X128103333Y-82510476D01*
X128198571Y-82462857D01*
X128722381Y-82462857D01*
X128055714Y-82129524D02*
X128055714Y-81748572D01*
X128722381Y-81986667D02*
X127865238Y-81986667D01*
X127770000Y-81939048D01*
X127722381Y-81843810D01*
X127722381Y-81748572D01*
X182745238Y-86812381D02*
X182173809Y-86812381D01*
X182459523Y-86812381D02*
X182459523Y-85812381D01*
X182364285Y-85955238D01*
X182269047Y-86050476D01*
X182173809Y-86098095D01*
X183364285Y-85812381D02*
X183459524Y-85812381D01*
X183554762Y-85860000D01*
X183602381Y-85907619D01*
X183650000Y-86002857D01*
X183697619Y-86193333D01*
X183697619Y-86431429D01*
X183650000Y-86621905D01*
X183602381Y-86717143D01*
X183554762Y-86764762D01*
X183459524Y-86812381D01*
X183364285Y-86812381D01*
X183269047Y-86764762D01*
X183221428Y-86717143D01*
X183173809Y-86621905D01*
X183126190Y-86431429D01*
X183126190Y-86193333D01*
X183173809Y-86002857D01*
X183221428Y-85907619D01*
X183269047Y-85860000D01*
X183364285Y-85812381D01*
X184316666Y-85812381D02*
X184411905Y-85812381D01*
X184507143Y-85860000D01*
X184554762Y-85907619D01*
X184602381Y-86002857D01*
X184650000Y-86193333D01*
X184650000Y-86431429D01*
X184602381Y-86621905D01*
X184554762Y-86717143D01*
X184507143Y-86764762D01*
X184411905Y-86812381D01*
X184316666Y-86812381D01*
X184221428Y-86764762D01*
X184173809Y-86717143D01*
X184126190Y-86621905D01*
X184078571Y-86431429D01*
X184078571Y-86193333D01*
X184126190Y-86002857D01*
X184173809Y-85907619D01*
X184221428Y-85860000D01*
X184316666Y-85812381D01*
X185078571Y-86145714D02*
X185078571Y-86812381D01*
X185078571Y-86240952D02*
X185126190Y-86193333D01*
X185221428Y-86145714D01*
X185364286Y-86145714D01*
X185459524Y-86193333D01*
X185507143Y-86288571D01*
X185507143Y-86812381D01*
X185840476Y-86145714D02*
X186221428Y-86145714D01*
X185983333Y-86812381D02*
X185983333Y-85955238D01*
X186030952Y-85860000D01*
X186126190Y-85812381D01*
X186221428Y-85812381D01*
X177665238Y-86812381D02*
X177093809Y-86812381D01*
X177379523Y-86812381D02*
X177379523Y-85812381D01*
X177284285Y-85955238D01*
X177189047Y-86050476D01*
X177093809Y-86098095D01*
X178284285Y-85812381D02*
X178379524Y-85812381D01*
X178474762Y-85860000D01*
X178522381Y-85907619D01*
X178570000Y-86002857D01*
X178617619Y-86193333D01*
X178617619Y-86431429D01*
X178570000Y-86621905D01*
X178522381Y-86717143D01*
X178474762Y-86764762D01*
X178379524Y-86812381D01*
X178284285Y-86812381D01*
X178189047Y-86764762D01*
X178141428Y-86717143D01*
X178093809Y-86621905D01*
X178046190Y-86431429D01*
X178046190Y-86193333D01*
X178093809Y-86002857D01*
X178141428Y-85907619D01*
X178189047Y-85860000D01*
X178284285Y-85812381D01*
X179236666Y-85812381D02*
X179331905Y-85812381D01*
X179427143Y-85860000D01*
X179474762Y-85907619D01*
X179522381Y-86002857D01*
X179570000Y-86193333D01*
X179570000Y-86431429D01*
X179522381Y-86621905D01*
X179474762Y-86717143D01*
X179427143Y-86764762D01*
X179331905Y-86812381D01*
X179236666Y-86812381D01*
X179141428Y-86764762D01*
X179093809Y-86717143D01*
X179046190Y-86621905D01*
X178998571Y-86431429D01*
X178998571Y-86193333D01*
X179046190Y-86002857D01*
X179093809Y-85907619D01*
X179141428Y-85860000D01*
X179236666Y-85812381D01*
X179998571Y-86145714D02*
X179998571Y-86812381D01*
X179998571Y-86240952D02*
X180046190Y-86193333D01*
X180141428Y-86145714D01*
X180284286Y-86145714D01*
X180379524Y-86193333D01*
X180427143Y-86288571D01*
X180427143Y-86812381D01*
X180760476Y-86145714D02*
X181141428Y-86145714D01*
X180903333Y-86812381D02*
X180903333Y-85955238D01*
X180950952Y-85860000D01*
X181046190Y-85812381D01*
X181141428Y-85812381D01*
X207343810Y-81732381D02*
X207343810Y-80732381D01*
X207915239Y-81732381D01*
X207915239Y-80732381D01*
X208391429Y-81732381D02*
X208391429Y-81065714D01*
X208391429Y-80732381D02*
X208343810Y-80780000D01*
X208391429Y-80827619D01*
X208439048Y-80780000D01*
X208391429Y-80732381D01*
X208391429Y-80827619D01*
X208772381Y-81732381D02*
X209296191Y-81065714D01*
X208772381Y-81065714D02*
X209296191Y-81732381D01*
X209677143Y-81732381D02*
X209677143Y-81065714D01*
X209677143Y-80732381D02*
X209629524Y-80780000D01*
X209677143Y-80827619D01*
X209724762Y-80780000D01*
X209677143Y-80732381D01*
X209677143Y-80827619D01*
X210534286Y-81684762D02*
X210439048Y-81732381D01*
X210248571Y-81732381D01*
X210153333Y-81684762D01*
X210105714Y-81589524D01*
X210105714Y-81208571D01*
X210153333Y-81113333D01*
X210248571Y-81065714D01*
X210439048Y-81065714D01*
X210534286Y-81113333D01*
X210581905Y-81208571D01*
X210581905Y-81303810D01*
X210105714Y-81399048D01*
X211772381Y-81732381D02*
X211772381Y-80732381D01*
X212153334Y-80732381D01*
X212248572Y-80780000D01*
X212296191Y-80827619D01*
X212343810Y-80922857D01*
X212343810Y-81065714D01*
X212296191Y-81160952D01*
X212248572Y-81208571D01*
X212153334Y-81256190D01*
X211772381Y-81256190D01*
X212724762Y-81684762D02*
X212867619Y-81732381D01*
X213105715Y-81732381D01*
X213200953Y-81684762D01*
X213248572Y-81637143D01*
X213296191Y-81541905D01*
X213296191Y-81446667D01*
X213248572Y-81351429D01*
X213200953Y-81303810D01*
X213105715Y-81256190D01*
X212915238Y-81208571D01*
X212820000Y-81160952D01*
X212772381Y-81113333D01*
X212724762Y-81018095D01*
X212724762Y-80922857D01*
X212772381Y-80827619D01*
X212820000Y-80780000D01*
X212915238Y-80732381D01*
X213153334Y-80732381D01*
X213296191Y-80780000D01*
X213724762Y-80732381D02*
X213724762Y-81541905D01*
X213772381Y-81637143D01*
X213820000Y-81684762D01*
X213915238Y-81732381D01*
X214105715Y-81732381D01*
X214200953Y-81684762D01*
X214248572Y-81637143D01*
X214296191Y-81541905D01*
X214296191Y-80732381D01*
D12*
X218281429Y-81732381D02*
X217948095Y-81256190D01*
X217710000Y-81732381D02*
X217710000Y-80732381D01*
X218090953Y-80732381D01*
X218186191Y-80780000D01*
X218233810Y-80827619D01*
X218281429Y-80922857D01*
X218281429Y-81065714D01*
X218233810Y-81160952D01*
X218186191Y-81208571D01*
X218090953Y-81256190D01*
X217710000Y-81256190D01*
X218710000Y-81208571D02*
X219043334Y-81208571D01*
X219186191Y-81732381D02*
X218710000Y-81732381D01*
X218710000Y-80732381D01*
X219186191Y-80732381D01*
X219471905Y-80732381D02*
X219805238Y-81732381D01*
X220138572Y-80732381D01*
X221710001Y-80732381D02*
X221233810Y-80732381D01*
X221186191Y-81208571D01*
X221233810Y-81160952D01*
X221329048Y-81113333D01*
X221567144Y-81113333D01*
X221662382Y-81160952D01*
X221710001Y-81208571D01*
X221757620Y-81303810D01*
X221757620Y-81541905D01*
X221710001Y-81637143D01*
X221662382Y-81684762D01*
X221567144Y-81732381D01*
X221329048Y-81732381D01*
X221233810Y-81684762D01*
X221186191Y-81637143D01*
D11*
X174570000Y-96686667D02*
X175046191Y-96686667D01*
X174474762Y-96972381D02*
X174808095Y-95972381D01*
X175141429Y-96972381D01*
X175331905Y-95972381D02*
X175903334Y-95972381D01*
X175617619Y-96972381D02*
X175617619Y-95972381D01*
X176236667Y-96972381D02*
X176236667Y-95972381D01*
X176570001Y-96686667D01*
X176903334Y-95972381D01*
X176903334Y-96972381D01*
X177379524Y-96448571D02*
X177712858Y-96448571D01*
X177855715Y-96972381D02*
X177379524Y-96972381D01*
X177379524Y-95972381D01*
X177855715Y-95972381D01*
X178808096Y-96020000D02*
X178712858Y-95972381D01*
X178570001Y-95972381D01*
X178427143Y-96020000D01*
X178331905Y-96115238D01*
X178284286Y-96210476D01*
X178236667Y-96400952D01*
X178236667Y-96543810D01*
X178284286Y-96734286D01*
X178331905Y-96829524D01*
X178427143Y-96924762D01*
X178570001Y-96972381D01*
X178665239Y-96972381D01*
X178808096Y-96924762D01*
X178855715Y-96877143D01*
X178855715Y-96543810D01*
X178665239Y-96543810D01*
X179236667Y-96686667D02*
X179712858Y-96686667D01*
X179141429Y-96972381D02*
X179474762Y-95972381D01*
X179808096Y-96972381D01*
X180046191Y-95972381D02*
X180665239Y-95972381D01*
X180331905Y-96353333D01*
X180474763Y-96353333D01*
X180570001Y-96400952D01*
X180617620Y-96448571D01*
X180665239Y-96543810D01*
X180665239Y-96781905D01*
X180617620Y-96877143D01*
X180570001Y-96924762D01*
X180474763Y-96972381D01*
X180189048Y-96972381D01*
X180093810Y-96924762D01*
X180046191Y-96877143D01*
X181046191Y-96067619D02*
X181093810Y-96020000D01*
X181189048Y-95972381D01*
X181427144Y-95972381D01*
X181522382Y-96020000D01*
X181570001Y-96067619D01*
X181617620Y-96162857D01*
X181617620Y-96258095D01*
X181570001Y-96400952D01*
X180998572Y-96972381D01*
X181617620Y-96972381D01*
X182189048Y-96400952D02*
X182093810Y-96353333D01*
X182046191Y-96305714D01*
X181998572Y-96210476D01*
X181998572Y-96162857D01*
X182046191Y-96067619D01*
X182093810Y-96020000D01*
X182189048Y-95972381D01*
X182379525Y-95972381D01*
X182474763Y-96020000D01*
X182522382Y-96067619D01*
X182570001Y-96162857D01*
X182570001Y-96210476D01*
X182522382Y-96305714D01*
X182474763Y-96353333D01*
X182379525Y-96400952D01*
X182189048Y-96400952D01*
X182093810Y-96448571D01*
X182046191Y-96496190D01*
X181998572Y-96591429D01*
X181998572Y-96781905D01*
X182046191Y-96877143D01*
X182093810Y-96924762D01*
X182189048Y-96972381D01*
X182379525Y-96972381D01*
X182474763Y-96924762D01*
X182522382Y-96877143D01*
X182570001Y-96781905D01*
X182570001Y-96591429D01*
X182522382Y-96496190D01*
X182474763Y-96448571D01*
X182379525Y-96400952D01*
X182998572Y-96972381D02*
X182998572Y-95972381D01*
X183379525Y-95972381D01*
X183474763Y-96020000D01*
X183522382Y-96067619D01*
X183570001Y-96162857D01*
X183570001Y-96305714D01*
X183522382Y-96400952D01*
X183474763Y-96448571D01*
X183379525Y-96496190D01*
X182998572Y-96496190D01*
D13*
X182630000Y-87650000D02*
X185630000Y-87650000D01*
X185630000Y-90150000D02*
X182630000Y-90150000D01*
X126980000Y-82300000D02*
X126980000Y-85300000D01*
X124480000Y-85300000D02*
X124480000Y-82300000D01*
X180590000Y-90150000D02*
X177590000Y-90150000D01*
X177590000Y-87650000D02*
X180590000Y-87650000D01*
X186440000Y-104160000D02*
X189440000Y-104160000D01*
X189440000Y-106660000D02*
X186440000Y-106660000D01*
X181860000Y-106660000D02*
X178860000Y-106660000D01*
X178860000Y-104160000D02*
X181860000Y-104160000D01*
X154899000Y-104195000D02*
X149901000Y-104195000D01*
X154891000Y-104335000D02*
X149909000Y-104335000D01*
X154875000Y-104475000D02*
X152495000Y-104475000D01*
X152305000Y-104475000D02*
X149925000Y-104475000D01*
X154851000Y-104615000D02*
X152890000Y-104615000D01*
X151910000Y-104615000D02*
X149949000Y-104615000D01*
X154818000Y-104755000D02*
X153057000Y-104755000D01*
X151743000Y-104755000D02*
X149982000Y-104755000D01*
X154777000Y-104895000D02*
X153164000Y-104895000D01*
X151636000Y-104895000D02*
X150023000Y-104895000D01*
X154727000Y-105035000D02*
X153235000Y-105035000D01*
X151565000Y-105035000D02*
X150073000Y-105035000D01*
X154666000Y-105175000D02*
X153279000Y-105175000D01*
X151521000Y-105175000D02*
X150134000Y-105175000D01*
X154596000Y-105315000D02*
X153298000Y-105315000D01*
X151502000Y-105315000D02*
X150204000Y-105315000D01*
X154514000Y-105455000D02*
X153296000Y-105455000D01*
X151504000Y-105455000D02*
X150286000Y-105455000D01*
X154419000Y-105595000D02*
X153271000Y-105595000D01*
X151529000Y-105595000D02*
X150381000Y-105595000D01*
X154308000Y-105735000D02*
X153223000Y-105735000D01*
X151577000Y-105735000D02*
X150492000Y-105735000D01*
X154180000Y-105875000D02*
X153145000Y-105875000D01*
X151655000Y-105875000D02*
X150620000Y-105875000D01*
X154031000Y-106015000D02*
X153028000Y-106015000D01*
X151772000Y-106015000D02*
X150769000Y-106015000D01*
X153852000Y-106155000D02*
X152840000Y-106155000D01*
X151960000Y-106155000D02*
X150948000Y-106155000D01*
X153633000Y-106295000D02*
X151167000Y-106295000D01*
X153344000Y-106435000D02*
X151456000Y-106435000D01*
X152872000Y-106575000D02*
X151928000Y-106575000D01*
X153300000Y-105370000D02*
G75*
G03X153300000Y-105370000I-900000J0D01*
G01*
X154937500Y-104120000D02*
G75*
G03X154937500Y-104120000I-2537500J0D01*
G01*
X149901000Y-96465000D02*
X154899000Y-96465000D01*
X149909000Y-96325000D02*
X154891000Y-96325000D01*
X149925000Y-96185000D02*
X152305000Y-96185000D01*
X152495000Y-96185000D02*
X154875000Y-96185000D01*
X149949000Y-96045000D02*
X151910000Y-96045000D01*
X152890000Y-96045000D02*
X154851000Y-96045000D01*
X149982000Y-95905000D02*
X151743000Y-95905000D01*
X153057000Y-95905000D02*
X154818000Y-95905000D01*
X150023000Y-95765000D02*
X151636000Y-95765000D01*
X153164000Y-95765000D02*
X154777000Y-95765000D01*
X150073000Y-95625000D02*
X151565000Y-95625000D01*
X153235000Y-95625000D02*
X154727000Y-95625000D01*
X150134000Y-95485000D02*
X151521000Y-95485000D01*
X153279000Y-95485000D02*
X154666000Y-95485000D01*
X150204000Y-95345000D02*
X151502000Y-95345000D01*
X153298000Y-95345000D02*
X154596000Y-95345000D01*
X150286000Y-95205000D02*
X151504000Y-95205000D01*
X153296000Y-95205000D02*
X154514000Y-95205000D01*
X150381000Y-95065000D02*
X151529000Y-95065000D01*
X153271000Y-95065000D02*
X154419000Y-95065000D01*
X150492000Y-94925000D02*
X151577000Y-94925000D01*
X153223000Y-94925000D02*
X154308000Y-94925000D01*
X150620000Y-94785000D02*
X151655000Y-94785000D01*
X153145000Y-94785000D02*
X154180000Y-94785000D01*
X150769000Y-94645000D02*
X151772000Y-94645000D01*
X153028000Y-94645000D02*
X154031000Y-94645000D01*
X150948000Y-94505000D02*
X151960000Y-94505000D01*
X152840000Y-94505000D02*
X153852000Y-94505000D01*
X151167000Y-94365000D02*
X153633000Y-94365000D01*
X151456000Y-94225000D02*
X153344000Y-94225000D01*
X151928000Y-94085000D02*
X152872000Y-94085000D01*
X153300000Y-95290000D02*
G75*
G03X153300000Y-95290000I-900000J0D01*
G01*
X154937500Y-96540000D02*
G75*
G03X154937500Y-96540000I-2537500J0D01*
G01*
X160265000Y-100195000D02*
X161535000Y-100195000D01*
X160265000Y-92845000D02*
X161535000Y-92845000D01*
X197875000Y-92845000D02*
X196605000Y-92845000D01*
X197875000Y-100195000D02*
X196605000Y-100195000D01*
X160265000Y-100195000D02*
X160265000Y-92845000D01*
X197875000Y-100195000D02*
X197875000Y-92845000D01*
X161535000Y-100195000D02*
X161535000Y-101480000D01*
X209550000Y-86360000D02*
X214630000Y-86360000D01*
X214630000Y-86360000D02*
X214630000Y-83820000D01*
X214630000Y-83820000D02*
X209550000Y-83820000D01*
X206730000Y-83540000D02*
X208280000Y-83540000D01*
X209550000Y-83820000D02*
X209550000Y-86360000D01*
X208280000Y-86640000D02*
X206730000Y-86640000D01*
X206730000Y-86640000D02*
X206730000Y-83540000D01*
X120650000Y-81280000D02*
X120650000Y-88900000D01*
X123190000Y-81280000D02*
X123190000Y-88900000D01*
X123470000Y-78460000D02*
X123470000Y-80010000D01*
X120650000Y-88900000D02*
X123190000Y-88900000D01*
X123190000Y-81280000D02*
X120650000Y-81280000D01*
X120370000Y-80010000D02*
X120370000Y-78460000D01*
X120370000Y-78460000D02*
X123470000Y-78460000D01*
X123190000Y-109220000D02*
X123190000Y-127000000D01*
X123190000Y-127000000D02*
X120650000Y-127000000D01*
X120650000Y-127000000D02*
X120650000Y-109220000D01*
X123470000Y-106400000D02*
X123470000Y-107950000D01*
X123190000Y-109220000D02*
X120650000Y-109220000D01*
X120370000Y-107950000D02*
X120370000Y-106400000D01*
X120370000Y-106400000D02*
X123470000Y-106400000D01*
X223520000Y-97790000D02*
X223520000Y-110490000D01*
X223520000Y-110490000D02*
X220980000Y-110490000D01*
X220980000Y-110490000D02*
X220980000Y-97790000D01*
X223800000Y-94970000D02*
X223800000Y-96520000D01*
X223520000Y-97790000D02*
X220980000Y-97790000D01*
X220700000Y-96520000D02*
X220700000Y-94970000D01*
X220700000Y-94970000D02*
X223800000Y-94970000D01*
X130810000Y-127000000D02*
X135890000Y-127000000D01*
X127990000Y-127280000D02*
X127990000Y-125730000D01*
X128270000Y-124460000D02*
X130810000Y-124460000D01*
X130810000Y-124460000D02*
X130810000Y-127000000D01*
X135890000Y-127000000D02*
X135890000Y-121920000D01*
X135890000Y-121920000D02*
X130810000Y-121920000D01*
X127990000Y-127280000D02*
X129540000Y-127280000D01*
X128270000Y-121920000D02*
X128270000Y-124460000D01*
X130810000Y-121920000D02*
X128270000Y-121920000D01*
X201930000Y-119380000D02*
X201930000Y-116840000D01*
X201650000Y-122200000D02*
X201650000Y-120650000D01*
X201930000Y-119380000D02*
X204470000Y-119380000D01*
X204750000Y-120650000D02*
X204750000Y-122200000D01*
X204750000Y-122200000D02*
X201650000Y-122200000D01*
X204470000Y-119380000D02*
X204470000Y-116840000D01*
X204470000Y-116840000D02*
X201930000Y-116840000D01*
X142240000Y-124460000D02*
X144780000Y-124460000D01*
X139420000Y-124180000D02*
X140970000Y-124180000D01*
X142240000Y-124460000D02*
X142240000Y-127000000D01*
X140970000Y-127280000D02*
X139420000Y-127280000D01*
X139420000Y-127280000D02*
X139420000Y-124180000D01*
X142240000Y-127000000D02*
X144780000Y-127000000D01*
X144780000Y-127000000D02*
X144780000Y-124460000D01*
X163830000Y-106680000D02*
X163830000Y-111760000D01*
X163830000Y-111760000D02*
X161290000Y-111760000D01*
X161290000Y-111760000D02*
X161290000Y-106680000D01*
X161290000Y-106680000D02*
X163830000Y-106680000D01*
X162560000Y-106680000D02*
X162560000Y-105410000D01*
X162560000Y-111760000D02*
X162560000Y-113030000D01*
X173990000Y-111760000D02*
X173990000Y-106680000D01*
X173990000Y-106680000D02*
X176530000Y-106680000D01*
X176530000Y-106680000D02*
X176530000Y-111760000D01*
X176530000Y-111760000D02*
X173990000Y-111760000D01*
X175260000Y-111760000D02*
X175260000Y-113030000D01*
X175260000Y-106680000D02*
X175260000Y-105410000D01*
X188849000Y-110759240D02*
X189049660Y-111160560D01*
X189049660Y-111160560D02*
X189151260Y-111760000D01*
X189151260Y-111760000D02*
X189049660Y-112260380D01*
X189049660Y-112260380D02*
X188650880Y-112958880D01*
X188650880Y-112958880D02*
X188048900Y-113360200D01*
X188048900Y-113360200D02*
X187449460Y-113560860D01*
X187449460Y-113560860D02*
X180850540Y-113560860D01*
X180850540Y-113560860D02*
X180149500Y-113360200D01*
X180149500Y-113360200D02*
X179750720Y-113060480D01*
X179750720Y-113060480D02*
X179349400Y-112560100D01*
X179349400Y-112560100D02*
X179148740Y-111960660D01*
X179148740Y-111960660D02*
X179148740Y-111460280D01*
X179148740Y-111460280D02*
X179349400Y-110959900D01*
X179349400Y-110959900D02*
X179849780Y-110360460D01*
X179849780Y-110360460D02*
X180350160Y-110060740D01*
X180350160Y-110060740D02*
X180850540Y-109959140D01*
X180949600Y-109959140D02*
X187551060Y-109959140D01*
X187551060Y-109959140D02*
X187949840Y-110060740D01*
X187949840Y-110060740D02*
X188450220Y-110360460D01*
X188450220Y-110360460D02*
X188950600Y-110860840D01*
X180959760Y-109430820D02*
X180500020Y-109479080D01*
X180500020Y-109479080D02*
X180101240Y-109590840D01*
X180101240Y-109590840D02*
X179669440Y-109809280D01*
X179669440Y-109809280D02*
X179379880Y-110040420D01*
X179379880Y-110040420D02*
X179049680Y-110390940D01*
X179049680Y-110390940D02*
X178760120Y-110929420D01*
X178760120Y-110929420D02*
X178630580Y-111528860D01*
X178630580Y-111528860D02*
X178630580Y-112039400D01*
X178630580Y-112039400D02*
X178800760Y-112740440D01*
X178800760Y-112740440D02*
X179199540Y-113329720D01*
X179199540Y-113329720D02*
X179659280Y-113700560D01*
X179659280Y-113700560D02*
X180080920Y-113908840D01*
X180080920Y-113908840D02*
X180530500Y-114068860D01*
X180530500Y-114068860D02*
X180969920Y-114099340D01*
X188310520Y-113880900D02*
X188688980Y-113659920D01*
X188688980Y-113659920D02*
X189009020Y-113380520D01*
X189009020Y-113380520D02*
X189260480Y-113050320D01*
X189260480Y-113050320D02*
X189560200Y-112499140D01*
X189560200Y-112499140D02*
X189669420Y-112029240D01*
X189669420Y-112029240D02*
X189689740Y-111569500D01*
X189689740Y-111569500D02*
X189600840Y-111109760D01*
X189600840Y-111109760D02*
X189410340Y-110660180D01*
X189410340Y-110660180D02*
X189049660Y-110190280D01*
X189049660Y-110190280D02*
X188699140Y-109870240D01*
X188699140Y-109870240D02*
X188310520Y-109639100D01*
X188310520Y-109639100D02*
X187881260Y-109499400D01*
X187881260Y-109499400D02*
X187439300Y-109430820D01*
X180949600Y-114089180D02*
X187401200Y-114089180D01*
X187401200Y-114089180D02*
X187820300Y-114051080D01*
X187820300Y-114051080D02*
X188310520Y-113880900D01*
X180949600Y-109430820D02*
X187401200Y-109430820D01*
X139534900Y-96329500D02*
X138935460Y-96829880D01*
X138935460Y-96329500D02*
X138935460Y-104330500D01*
X141734540Y-96329500D02*
X141734540Y-104330500D01*
X141734540Y-96329500D02*
X138935460Y-96329500D01*
X141734540Y-104330500D02*
X138935460Y-104330500D01*
M02*
