G04 #@! TF.FileFunction,Legend,Top*
%FSLAX46Y46*%
G04 Gerber Fmt 4.6, Leading zero omitted, Abs format (unit mm)*
G04 Created by KiCad (PCBNEW (2015-10-31 BZR 6288)-product) date Wednesday, November 04, 2015 'PMt' 06:10:35 PM*
%MOMM*%
G01*
G04 APERTURE LIST*
%ADD10C,0.100000*%
%ADD11C,0.150000*%
G04 APERTURE END LIST*
D10*
D11*
X142485000Y-107815000D02*
X143755000Y-107815000D01*
X142485000Y-100465000D02*
X143755000Y-100465000D01*
X164855000Y-100465000D02*
X163585000Y-100465000D01*
X164855000Y-107815000D02*
X163585000Y-107815000D01*
X142485000Y-107815000D02*
X142485000Y-100465000D01*
X164855000Y-107815000D02*
X164855000Y-100465000D01*
X143755000Y-107815000D02*
X143755000Y-109100000D01*
X129600000Y-111760000D02*
X138430000Y-111760000D01*
X129600000Y-109220000D02*
X129600000Y-111760000D01*
X138430000Y-109220000D02*
X138430000Y-111760000D01*
X138430000Y-106680000D02*
X138430000Y-109220000D01*
X129600000Y-106680000D02*
X129600000Y-109220000D01*
X129600000Y-109220000D02*
X138430000Y-109220000D01*
X129600000Y-106680000D02*
X138430000Y-106680000D01*
X129600000Y-104140000D02*
X129600000Y-106680000D01*
X138430000Y-104140000D02*
X138430000Y-106680000D01*
X138430000Y-101600000D02*
X138430000Y-104140000D01*
X129600000Y-101600000D02*
X129600000Y-104140000D01*
X129600000Y-104140000D02*
X138430000Y-104140000D01*
X129600000Y-101600000D02*
X138430000Y-101600000D01*
X129600000Y-99060000D02*
X129600000Y-101600000D01*
X138430000Y-99060000D02*
X129600000Y-99060000D01*
X138430000Y-99060000D02*
X138430000Y-101600000D01*
X138430000Y-96520000D02*
X138430000Y-99060000D01*
X141100000Y-97790000D02*
X141100000Y-96240000D01*
X141100000Y-96240000D02*
X139700000Y-96240000D01*
X138430000Y-96520000D02*
X129600000Y-96520000D01*
X129600000Y-96520000D02*
X129600000Y-99060000D01*
X129600000Y-99060000D02*
X138430000Y-99060000D01*
X142485000Y-93845000D02*
X143755000Y-93845000D01*
X142485000Y-86495000D02*
X143755000Y-86495000D01*
X164855000Y-86495000D02*
X163585000Y-86495000D01*
X164855000Y-93845000D02*
X163585000Y-93845000D01*
X142485000Y-93845000D02*
X142485000Y-86495000D01*
X164855000Y-93845000D02*
X164855000Y-86495000D01*
X143755000Y-93845000D02*
X143755000Y-95130000D01*
X142485000Y-121785000D02*
X143755000Y-121785000D01*
X142485000Y-114435000D02*
X143755000Y-114435000D01*
X164855000Y-114435000D02*
X163585000Y-114435000D01*
X164855000Y-121785000D02*
X163585000Y-121785000D01*
X142485000Y-121785000D02*
X142485000Y-114435000D01*
X164855000Y-121785000D02*
X164855000Y-114435000D01*
X143755000Y-121785000D02*
X143755000Y-123070000D01*
X140970000Y-82550000D02*
X168910000Y-82550000D01*
X168910000Y-82550000D02*
X168910000Y-80010000D01*
X168910000Y-80010000D02*
X140970000Y-80010000D01*
X138150000Y-82830000D02*
X139700000Y-82830000D01*
X140970000Y-82550000D02*
X140970000Y-80010000D01*
X139700000Y-79730000D02*
X138150000Y-79730000D01*
X138150000Y-79730000D02*
X138150000Y-82830000D01*
X166370000Y-125730000D02*
X138430000Y-125730000D01*
X138430000Y-125730000D02*
X138430000Y-128270000D01*
X138430000Y-128270000D02*
X166370000Y-128270000D01*
X169190000Y-125450000D02*
X167640000Y-125450000D01*
X166370000Y-125730000D02*
X166370000Y-128270000D01*
X167640000Y-128550000D02*
X169190000Y-128550000D01*
X169190000Y-128550000D02*
X169190000Y-125450000D01*
X173990000Y-82550000D02*
X171450000Y-82550000D01*
X171450000Y-82550000D02*
X171450000Y-92710000D01*
X171450000Y-92710000D02*
X173990000Y-92710000D01*
X173990000Y-92710000D02*
X173990000Y-82550000D01*
X172720000Y-93980000D02*
X172720000Y-92710000D01*
X172720000Y-81280000D02*
X172720000Y-82550000D01*
X133350000Y-125730000D02*
X135890000Y-125730000D01*
X135890000Y-125730000D02*
X135890000Y-115570000D01*
X135890000Y-115570000D02*
X133350000Y-115570000D01*
X133350000Y-115570000D02*
X133350000Y-125730000D01*
X134620000Y-114300000D02*
X134620000Y-115570000D01*
X134620000Y-127000000D02*
X134620000Y-125730000D01*
X139012381Y-110259524D02*
X139012381Y-109592857D01*
X140012381Y-110021429D01*
X139345714Y-108783333D02*
X140012381Y-108783333D01*
X138964762Y-109021429D02*
X139679048Y-109259524D01*
X139679048Y-108640476D01*
X140012381Y-108259524D02*
X139012381Y-108259524D01*
X139488571Y-108259524D02*
X139488571Y-107688095D01*
X140012381Y-107688095D02*
X139012381Y-107688095D01*
X139917143Y-106640476D02*
X139964762Y-106688095D01*
X140012381Y-106830952D01*
X140012381Y-106926190D01*
X139964762Y-107069048D01*
X139869524Y-107164286D01*
X139774286Y-107211905D01*
X139583810Y-107259524D01*
X139440952Y-107259524D01*
X139250476Y-107211905D01*
X139155238Y-107164286D01*
X139060000Y-107069048D01*
X139012381Y-106926190D01*
X139012381Y-106830952D01*
X139060000Y-106688095D01*
X139107619Y-106640476D01*
X140012381Y-105688095D02*
X140012381Y-106259524D01*
X140012381Y-105973810D02*
X139012381Y-105973810D01*
X139155238Y-106069048D01*
X139250476Y-106164286D01*
X139298095Y-106259524D01*
X144807143Y-99528095D02*
X144854762Y-99575714D01*
X144902381Y-99718571D01*
X144902381Y-99813809D01*
X144854762Y-99956667D01*
X144759524Y-100051905D01*
X144664286Y-100099524D01*
X144473810Y-100147143D01*
X144330952Y-100147143D01*
X144140476Y-100099524D01*
X144045238Y-100051905D01*
X143950000Y-99956667D01*
X143902381Y-99813809D01*
X143902381Y-99718571D01*
X143950000Y-99575714D01*
X143997619Y-99528095D01*
X143902381Y-98909048D02*
X143902381Y-98718571D01*
X143950000Y-98623333D01*
X144045238Y-98528095D01*
X144235714Y-98480476D01*
X144569048Y-98480476D01*
X144759524Y-98528095D01*
X144854762Y-98623333D01*
X144902381Y-98718571D01*
X144902381Y-98909048D01*
X144854762Y-99004286D01*
X144759524Y-99099524D01*
X144569048Y-99147143D01*
X144235714Y-99147143D01*
X144045238Y-99099524D01*
X143950000Y-99004286D01*
X143902381Y-98909048D01*
X144902381Y-98051905D02*
X143902381Y-98051905D01*
X144902381Y-97480476D01*
X143902381Y-97480476D01*
X144902381Y-97004286D02*
X143902381Y-97004286D01*
X144902381Y-96432857D01*
X143902381Y-96432857D01*
X144902381Y-95432857D02*
X144902381Y-96004286D01*
X144902381Y-95718572D02*
X143902381Y-95718572D01*
X144045238Y-95813810D01*
X144140476Y-95909048D01*
X144188095Y-96004286D01*
X140012381Y-96884762D02*
X139012381Y-96884762D01*
X140012381Y-96313333D02*
X139440952Y-96741905D01*
X139012381Y-96313333D02*
X139583810Y-96884762D01*
X140012381Y-95360952D02*
X140012381Y-95932381D01*
X140012381Y-95646667D02*
X139012381Y-95646667D01*
X139155238Y-95741905D01*
X139250476Y-95837143D01*
X139298095Y-95932381D01*
X139012381Y-94456190D02*
X139012381Y-94932381D01*
X139488571Y-94980000D01*
X139440952Y-94932381D01*
X139393333Y-94837143D01*
X139393333Y-94599047D01*
X139440952Y-94503809D01*
X139488571Y-94456190D01*
X139583810Y-94408571D01*
X139821905Y-94408571D01*
X139917143Y-94456190D01*
X139964762Y-94503809D01*
X140012381Y-94599047D01*
X140012381Y-94837143D01*
X139964762Y-94932381D01*
X139917143Y-94980000D01*
X139012381Y-93503809D02*
X139012381Y-93980000D01*
X139488571Y-94027619D01*
X139440952Y-93980000D01*
X139393333Y-93884762D01*
X139393333Y-93646666D01*
X139440952Y-93551428D01*
X139488571Y-93503809D01*
X139583810Y-93456190D01*
X139821905Y-93456190D01*
X139917143Y-93503809D01*
X139964762Y-93551428D01*
X140012381Y-93646666D01*
X140012381Y-93884762D01*
X139964762Y-93980000D01*
X139917143Y-94027619D01*
X140012381Y-93027619D02*
X139012381Y-93027619D01*
X140012381Y-92551429D02*
X139012381Y-92551429D01*
X139012381Y-92313334D01*
X139060000Y-92170476D01*
X139155238Y-92075238D01*
X139250476Y-92027619D01*
X139440952Y-91980000D01*
X139583810Y-91980000D01*
X139774286Y-92027619D01*
X139869524Y-92075238D01*
X139964762Y-92170476D01*
X140012381Y-92313334D01*
X140012381Y-92551429D01*
X140012381Y-91027619D02*
X140012381Y-91599048D01*
X140012381Y-91313334D02*
X139012381Y-91313334D01*
X139155238Y-91408572D01*
X139250476Y-91503810D01*
X139298095Y-91599048D01*
X140012381Y-124824762D02*
X139012381Y-124824762D01*
X140012381Y-124253333D02*
X139440952Y-124681905D01*
X139012381Y-124253333D02*
X139583810Y-124824762D01*
X140012381Y-123300952D02*
X140012381Y-123872381D01*
X140012381Y-123586667D02*
X139012381Y-123586667D01*
X139155238Y-123681905D01*
X139250476Y-123777143D01*
X139298095Y-123872381D01*
X139012381Y-122396190D02*
X139012381Y-122872381D01*
X139488571Y-122920000D01*
X139440952Y-122872381D01*
X139393333Y-122777143D01*
X139393333Y-122539047D01*
X139440952Y-122443809D01*
X139488571Y-122396190D01*
X139583810Y-122348571D01*
X139821905Y-122348571D01*
X139917143Y-122396190D01*
X139964762Y-122443809D01*
X140012381Y-122539047D01*
X140012381Y-122777143D01*
X139964762Y-122872381D01*
X139917143Y-122920000D01*
X139012381Y-121443809D02*
X139012381Y-121920000D01*
X139488571Y-121967619D01*
X139440952Y-121920000D01*
X139393333Y-121824762D01*
X139393333Y-121586666D01*
X139440952Y-121491428D01*
X139488571Y-121443809D01*
X139583810Y-121396190D01*
X139821905Y-121396190D01*
X139917143Y-121443809D01*
X139964762Y-121491428D01*
X140012381Y-121586666D01*
X140012381Y-121824762D01*
X139964762Y-121920000D01*
X139917143Y-121967619D01*
X140012381Y-120967619D02*
X139012381Y-120967619D01*
X140012381Y-120491429D02*
X139012381Y-120491429D01*
X139012381Y-120253334D01*
X139060000Y-120110476D01*
X139155238Y-120015238D01*
X139250476Y-119967619D01*
X139440952Y-119920000D01*
X139583810Y-119920000D01*
X139774286Y-119967619D01*
X139869524Y-120015238D01*
X139964762Y-120110476D01*
X140012381Y-120253334D01*
X140012381Y-120491429D01*
X139107619Y-119539048D02*
X139060000Y-119491429D01*
X139012381Y-119396191D01*
X139012381Y-119158095D01*
X139060000Y-119062857D01*
X139107619Y-119015238D01*
X139202857Y-118967619D01*
X139298095Y-118967619D01*
X139440952Y-119015238D01*
X140012381Y-119586667D01*
X140012381Y-118967619D01*
X137533334Y-76632381D02*
X137533334Y-75632381D01*
X138104763Y-76632381D01*
X138104763Y-75632381D01*
X138580953Y-76632381D02*
X138580953Y-75632381D01*
X138961905Y-75632381D02*
X139628572Y-76632381D01*
X139628572Y-75632381D02*
X138961905Y-76632381D01*
X140009524Y-76632381D02*
X140009524Y-75632381D01*
X140485714Y-76108571D02*
X140819048Y-76108571D01*
X140961905Y-76632381D02*
X140485714Y-76632381D01*
X140485714Y-75632381D01*
X140961905Y-75632381D01*
X141914286Y-76632381D02*
X141342857Y-76632381D01*
X141628571Y-76632381D02*
X141628571Y-75632381D01*
X141533333Y-75775238D01*
X141438095Y-75870476D01*
X141342857Y-75918095D01*
X165473334Y-132552381D02*
X165473334Y-131552381D01*
X166044763Y-132552381D01*
X166044763Y-131552381D01*
X166520953Y-132552381D02*
X166520953Y-131552381D01*
X166901905Y-131552381D02*
X167568572Y-132552381D01*
X167568572Y-131552381D02*
X166901905Y-132552381D01*
X167949524Y-132552381D02*
X167949524Y-131552381D01*
X168425714Y-132028571D02*
X168759048Y-132028571D01*
X168901905Y-132552381D02*
X168425714Y-132552381D01*
X168425714Y-131552381D01*
X168901905Y-131552381D01*
X169282857Y-131647619D02*
X169330476Y-131600000D01*
X169425714Y-131552381D01*
X169663810Y-131552381D01*
X169759048Y-131600000D01*
X169806667Y-131647619D01*
X169854286Y-131742857D01*
X169854286Y-131838095D01*
X169806667Y-131980952D01*
X169235238Y-132552381D01*
X169854286Y-132552381D01*
X176921421Y-87796666D02*
X176445230Y-88130000D01*
X176921421Y-88368095D02*
X175921421Y-88368095D01*
X175921421Y-87987142D01*
X175969040Y-87891904D01*
X176016659Y-87844285D01*
X176111897Y-87796666D01*
X176254754Y-87796666D01*
X176349992Y-87844285D01*
X176397611Y-87891904D01*
X176445230Y-87987142D01*
X176445230Y-88368095D01*
X176921421Y-86844285D02*
X176921421Y-87415714D01*
X176921421Y-87130000D02*
X175921421Y-87130000D01*
X176064278Y-87225238D01*
X176159516Y-87320476D01*
X176207135Y-87415714D01*
X131323341Y-120816666D02*
X130847150Y-121150000D01*
X131323341Y-121388095D02*
X130323341Y-121388095D01*
X130323341Y-121007142D01*
X130370960Y-120911904D01*
X130418579Y-120864285D01*
X130513817Y-120816666D01*
X130656674Y-120816666D01*
X130751912Y-120864285D01*
X130799531Y-120911904D01*
X130847150Y-121007142D01*
X130847150Y-121388095D01*
X130418579Y-120435714D02*
X130370960Y-120388095D01*
X130323341Y-120292857D01*
X130323341Y-120054761D01*
X130370960Y-119959523D01*
X130418579Y-119911904D01*
X130513817Y-119864285D01*
X130609055Y-119864285D01*
X130751912Y-119911904D01*
X131323341Y-120483333D01*
X131323341Y-119864285D01*
M02*
