M48
INCH,TZ
T1C0.016
T2C0.031
T3C0.039
T4C0.040
%
G90
G05
T1
X53962Y-43994
X54235Y-49181
X56532Y-46084
X57224Y-47062
X58021Y-40999
X64349Y-47107
X66146Y-32768
T2
X57000Y-34000
X57000Y-37000
X57000Y-39500
X57000Y-42500
X57000Y-45000
X57000Y-48000
X58000Y-34000
X58000Y-37000
X58000Y-39500
X58000Y-42500
X58000Y-45000
X58000Y-48000
X59000Y-34000
X59000Y-37000
X59000Y-39500
X59000Y-42500
X59000Y-45000
X59000Y-48000
X60000Y-34000
X60000Y-37000
X60000Y-39500
X60000Y-42500
X60000Y-45000
X60000Y-48000
X61000Y-34000
X61000Y-37000
X61000Y-39500
X61000Y-42500
X61000Y-45000
X61000Y-48000
X62000Y-34000
X62000Y-37000
X62000Y-39500
X62000Y-42500
X62000Y-45000
X62000Y-48000
X63000Y-34000
X63000Y-37000
X63000Y-39500
X63000Y-42500
X63000Y-45000
X63000Y-48000
X64000Y-34000
X64000Y-37000
X64000Y-39500
X64000Y-42500
X64000Y-45000
X64000Y-48000
T3
X53000Y-44547
X53000Y-50453
X68000Y-31547
X68000Y-37453
T4
X55000Y-32000
X55000Y-38500
X55000Y-39500
X55000Y-40500
X55000Y-41500
X55000Y-42500
X55000Y-43500
X55000Y-50000
X56000Y-32000
X56000Y-50000
X57000Y-32000
X57000Y-50000
X58000Y-32000
X58000Y-50000
X59000Y-32000
X59000Y-50000
X60000Y-32000
X60000Y-50000
X61000Y-32000
X61000Y-50000
X62000Y-32000
X62000Y-50000
X63000Y-32000
X63000Y-50000
X64000Y-32000
X64000Y-50000
X65000Y-32000
X65000Y-50000
X66000Y-32000
X66000Y-38500
X66000Y-39500
X66000Y-40500
X66000Y-41500
X66000Y-42500
X66000Y-43500
X66000Y-50000
T0
M30
