G04 #@! TF.FileFunction,Copper,L2,Bot,Signal*
%FSLAX46Y46*%
G04 Gerber Fmt 4.6, Leading zero omitted, Abs format (unit mm)*
G04 Created by KiCad (PCBNEW (2015-10-31 BZR 6288)-product) date Wednesday, November 04, 2015 'PMt' 06:10:35 PM*
%MOMM*%
G01*
G04 APERTURE LIST*
%ADD10C,0.100000*%
%ADD11O,1.600000X2.300000*%
%ADD12R,2.032000X1.727200*%
%ADD13O,2.032000X1.727200*%
%ADD14R,1.727200X2.032000*%
%ADD15O,1.727200X2.032000*%
%ADD16C,1.998980*%
%ADD17C,0.700000*%
%ADD18C,0.750000*%
G04 APERTURE END LIST*
D10*
D11*
X144780000Y-107950000D03*
X147320000Y-107950000D03*
X149860000Y-107950000D03*
X152400000Y-107950000D03*
X154940000Y-107950000D03*
X157480000Y-107950000D03*
X160020000Y-107950000D03*
X162560000Y-107950000D03*
X162560000Y-100330000D03*
X160020000Y-100330000D03*
X157480000Y-100330000D03*
X154940000Y-100330000D03*
X152400000Y-100330000D03*
X149860000Y-100330000D03*
X147320000Y-100330000D03*
X144780000Y-100330000D03*
D12*
X139700000Y-97790000D03*
D13*
X139700000Y-100330000D03*
X139700000Y-102870000D03*
X139700000Y-105410000D03*
X139700000Y-107950000D03*
X139700000Y-110490000D03*
D12*
X167640000Y-97790000D03*
D13*
X167640000Y-100330000D03*
X167640000Y-102870000D03*
X167640000Y-105410000D03*
X167640000Y-107950000D03*
X167640000Y-110490000D03*
D11*
X144780000Y-93980000D03*
X147320000Y-93980000D03*
X149860000Y-93980000D03*
X152400000Y-93980000D03*
X154940000Y-93980000D03*
X157480000Y-93980000D03*
X160020000Y-93980000D03*
X162560000Y-93980000D03*
X162560000Y-86360000D03*
X160020000Y-86360000D03*
X157480000Y-86360000D03*
X154940000Y-86360000D03*
X152400000Y-86360000D03*
X149860000Y-86360000D03*
X147320000Y-86360000D03*
X144780000Y-86360000D03*
X144780000Y-121920000D03*
X147320000Y-121920000D03*
X149860000Y-121920000D03*
X152400000Y-121920000D03*
X154940000Y-121920000D03*
X157480000Y-121920000D03*
X160020000Y-121920000D03*
X162560000Y-121920000D03*
X162560000Y-114300000D03*
X160020000Y-114300000D03*
X157480000Y-114300000D03*
X154940000Y-114300000D03*
X152400000Y-114300000D03*
X149860000Y-114300000D03*
X147320000Y-114300000D03*
X144780000Y-114300000D03*
D14*
X139700000Y-81280000D03*
D15*
X142240000Y-81280000D03*
X144780000Y-81280000D03*
X147320000Y-81280000D03*
X149860000Y-81280000D03*
X152400000Y-81280000D03*
X154940000Y-81280000D03*
X157480000Y-81280000D03*
X160020000Y-81280000D03*
X162560000Y-81280000D03*
X165100000Y-81280000D03*
X167640000Y-81280000D03*
D14*
X167640000Y-127000000D03*
D15*
X165100000Y-127000000D03*
X162560000Y-127000000D03*
X160020000Y-127000000D03*
X157480000Y-127000000D03*
X154940000Y-127000000D03*
X152400000Y-127000000D03*
X149860000Y-127000000D03*
X147320000Y-127000000D03*
X144780000Y-127000000D03*
X142240000Y-127000000D03*
X139700000Y-127000000D03*
D16*
X172720000Y-80130000D03*
X172720000Y-95130000D03*
X134620000Y-128150000D03*
X134620000Y-113150000D03*
D17*
X137063600Y-111744700D03*
X143591500Y-117052100D03*
X163445900Y-119650600D03*
X147372200Y-104137800D03*
X168010100Y-83230600D03*
X145349700Y-119537800D03*
X137758000Y-124921000D03*
D18*
X137307200Y-111988300D02*
X137063600Y-111744700D01*
X140465800Y-111988300D02*
X137307200Y-111988300D01*
X142458700Y-109995400D02*
X140465800Y-111988300D01*
X145274600Y-109995400D02*
X142458700Y-109995400D01*
X147320000Y-107950000D02*
X145274600Y-109995400D01*
X143338300Y-116798900D02*
X143591500Y-117052100D01*
X143338300Y-113340100D02*
X143338300Y-116798900D01*
X145427400Y-111251000D02*
X143338300Y-113340100D01*
X147371500Y-111251000D02*
X145427400Y-111251000D01*
X148106100Y-110516400D02*
X147371500Y-111251000D01*
X149833600Y-110516400D02*
X148106100Y-110516400D01*
X152400000Y-107950000D02*
X149833600Y-110516400D01*
X154669400Y-119650600D02*
X163445900Y-119650600D01*
X152400000Y-121920000D02*
X154669400Y-119650600D01*
X156017500Y-103947500D02*
X152400000Y-100330000D01*
X158557500Y-103947500D02*
X156017500Y-103947500D01*
X162560000Y-107950000D02*
X158557500Y-103947500D01*
X139700000Y-105410000D02*
X141466000Y-105410000D01*
X143738500Y-103137500D02*
X141466000Y-105410000D01*
X149592500Y-103137500D02*
X143738500Y-103137500D01*
X152400000Y-100330000D02*
X149592500Y-103137500D01*
X162560000Y-100330000D02*
X164110000Y-100330000D01*
X167640000Y-102870000D02*
X165874000Y-102870000D01*
X165874000Y-102094000D02*
X164110000Y-100330000D01*
X165874000Y-102870000D02*
X165874000Y-102094000D01*
X160020000Y-102870000D02*
X160020000Y-100330000D01*
X167640000Y-110490000D02*
X160020000Y-102870000D01*
X174377200Y-103752800D02*
X167640000Y-110490000D01*
X174377200Y-94472300D02*
X174377200Y-103752800D01*
X172097400Y-92192500D02*
X174377200Y-94472300D01*
X156727500Y-92192500D02*
X172097400Y-92192500D01*
X154940000Y-93980000D02*
X156727500Y-92192500D01*
X146052200Y-104137800D02*
X139700000Y-110490000D01*
X147372200Y-104137800D02*
X146052200Y-104137800D01*
X139700000Y-100330000D02*
X141466000Y-100330000D01*
X167640000Y-100330000D02*
X165874000Y-100330000D01*
X159255400Y-98554600D02*
X157480000Y-100330000D01*
X164098600Y-98554600D02*
X159255400Y-98554600D01*
X165874000Y-100330000D02*
X164098600Y-98554600D01*
X155678500Y-98528500D02*
X157480000Y-100330000D01*
X143267500Y-98528500D02*
X155678500Y-98528500D01*
X141466000Y-100330000D02*
X143267500Y-98528500D01*
X167640000Y-97790000D02*
X165874000Y-97790000D01*
X139700000Y-97790000D02*
X141466000Y-97790000D01*
X165612100Y-97528100D02*
X165874000Y-97790000D01*
X141727900Y-97528100D02*
X165612100Y-97528100D01*
X141466000Y-97790000D02*
X141727900Y-97528100D01*
X139700000Y-102870000D02*
X141466000Y-102870000D01*
X142198800Y-102137200D02*
X141466000Y-102870000D01*
X148052800Y-102137200D02*
X142198800Y-102137200D01*
X149860000Y-100330000D02*
X148052800Y-102137200D01*
X139700000Y-107950000D02*
X137934000Y-107950000D01*
X134620000Y-111264000D02*
X137934000Y-107950000D01*
X134620000Y-113150000D02*
X134620000Y-111264000D01*
X169297100Y-106292900D02*
X167640000Y-107950000D01*
X169297100Y-96301000D02*
X169297100Y-106292900D01*
X138419100Y-96301000D02*
X169297100Y-96301000D01*
X137934000Y-96786100D02*
X138419100Y-96301000D01*
X137934000Y-107950000D02*
X137934000Y-96786100D01*
X171549000Y-96301000D02*
X172720000Y-95130000D01*
X169297100Y-96301000D02*
X171549000Y-96301000D01*
X150624600Y-88135400D02*
X144780000Y-93980000D01*
X163201000Y-88135400D02*
X150624600Y-88135400D01*
X163989900Y-87346500D02*
X163201000Y-88135400D01*
X163989900Y-82709900D02*
X163989900Y-87346500D01*
X162560000Y-81280000D02*
X163989900Y-82709900D01*
X151770400Y-89529600D02*
X147320000Y-93980000D01*
X163221500Y-89529600D02*
X151770400Y-89529600D01*
X165100000Y-87651100D02*
X163221500Y-89529600D01*
X165100000Y-81280000D02*
X165100000Y-87651100D01*
X169155500Y-82085200D02*
X168010100Y-83230600D01*
X169155500Y-80469100D02*
X169155500Y-82085200D01*
X168317000Y-79630600D02*
X169155500Y-80469100D01*
X151509400Y-79630600D02*
X168317000Y-79630600D01*
X149860000Y-81280000D02*
X151509400Y-79630600D01*
X154940000Y-81280000D02*
X149860000Y-86360000D01*
X144780000Y-83820000D02*
X147320000Y-86360000D01*
X144780000Y-81280000D02*
X144780000Y-83820000D01*
X142240000Y-85370000D02*
X143230000Y-86360000D01*
X142240000Y-81280000D02*
X142240000Y-85370000D01*
X144780000Y-86360000D02*
X143230000Y-86360000D01*
X142240000Y-127000000D02*
X147320000Y-121920000D01*
X165446500Y-117186500D02*
X162560000Y-114300000D01*
X165446500Y-122869100D02*
X165446500Y-117186500D01*
X162957000Y-125358600D02*
X165446500Y-122869100D01*
X159121400Y-125358600D02*
X162957000Y-125358600D01*
X157480000Y-127000000D02*
X159121400Y-125358600D01*
X160020000Y-114300000D02*
X160020000Y-116200000D01*
X161455700Y-116200000D02*
X160020000Y-116200000D01*
X164446200Y-119190500D02*
X161455700Y-116200000D01*
X164446200Y-122421600D02*
X164446200Y-119190500D01*
X163172400Y-123695400D02*
X164446200Y-122421600D01*
X150624600Y-123695400D02*
X163172400Y-123695400D01*
X147320000Y-127000000D02*
X150624600Y-123695400D01*
X152242200Y-119537800D02*
X157480000Y-114300000D01*
X145349700Y-119537800D02*
X152242200Y-119537800D01*
X148317000Y-118383000D02*
X152400000Y-114300000D01*
X145089900Y-118383000D02*
X148317000Y-118383000D01*
X143435000Y-120037900D02*
X145089900Y-118383000D01*
X143435000Y-120899200D02*
X143435000Y-120037900D01*
X138195700Y-126138500D02*
X143435000Y-120899200D01*
X138195700Y-127778200D02*
X138195700Y-126138500D01*
X139087300Y-128669800D02*
X138195700Y-127778200D01*
X153270200Y-128669800D02*
X139087300Y-128669800D01*
X154940000Y-127000000D02*
X153270200Y-128669800D01*
X147639100Y-116520900D02*
X149860000Y-114300000D01*
X145537300Y-116520900D02*
X147639100Y-116520900D01*
X137758000Y-124300200D02*
X145537300Y-116520900D01*
X137758000Y-124921000D02*
X137758000Y-124300200D01*
X149103000Y-112517000D02*
X147320000Y-114300000D01*
X163150800Y-112517000D02*
X149103000Y-112517000D01*
X166446800Y-115813000D02*
X163150800Y-112517000D01*
X166446800Y-123283500D02*
X166446800Y-115813000D01*
X162730300Y-127000000D02*
X166446800Y-123283500D01*
X162560000Y-127000000D02*
X162730300Y-127000000D01*
X146563000Y-112517000D02*
X144780000Y-114300000D01*
X147520100Y-112517000D02*
X146563000Y-112517000D01*
X148520400Y-111516700D02*
X147520100Y-112517000D01*
X163565100Y-111516700D02*
X148520400Y-111516700D01*
X167447100Y-115398700D02*
X163565100Y-111516700D01*
X167447100Y-124426200D02*
X167447100Y-115398700D01*
X165100000Y-126773300D02*
X167447100Y-124426200D01*
X165100000Y-127000000D02*
X165100000Y-126773300D01*
X164911000Y-129729000D02*
X167640000Y-127000000D01*
X136199000Y-129729000D02*
X164911000Y-129729000D01*
X134620000Y-128150000D02*
X136199000Y-129729000D01*
M02*
