G04 #@! TF.FileFunction,Copper,L1,Top,Signal*
%FSLAX46Y46*%
G04 Gerber Fmt 4.6, Leading zero omitted, Abs format (unit mm)*
G04 Created by KiCad (PCBNEW (2015-10-31 BZR 6288)-product) date Tuesday, November 24, 2015 'PMt' 10:06:46 PM*
%MOMM*%
G01*
G04 APERTURE LIST*
%ADD10C,0.100000*%
%ADD11R,2.032000X1.727200*%
%ADD12O,2.032000X1.727200*%
%ADD13R,1.727200X2.032000*%
%ADD14O,1.727200X2.032000*%
%ADD15C,1.998980*%
%ADD16O,1.600000X2.300000*%
%ADD17C,0.700000*%
%ADD18C,0.750000*%
G04 APERTURE END LIST*
D10*
D11*
X167640000Y-97790000D03*
D12*
X167640000Y-100330000D03*
X167640000Y-102870000D03*
X167640000Y-105410000D03*
X167640000Y-107950000D03*
X167640000Y-110490000D03*
D11*
X139700000Y-97790000D03*
D12*
X139700000Y-100330000D03*
X139700000Y-102870000D03*
X139700000Y-105410000D03*
X139700000Y-107950000D03*
X139700000Y-110490000D03*
D13*
X139700000Y-81280000D03*
D14*
X142240000Y-81280000D03*
X144780000Y-81280000D03*
X147320000Y-81280000D03*
X149860000Y-81280000D03*
X152400000Y-81280000D03*
X154940000Y-81280000D03*
X157480000Y-81280000D03*
X160020000Y-81280000D03*
X162560000Y-81280000D03*
X165100000Y-81280000D03*
X167640000Y-81280000D03*
D13*
X167640000Y-127000000D03*
D14*
X165100000Y-127000000D03*
X162560000Y-127000000D03*
X160020000Y-127000000D03*
X157480000Y-127000000D03*
X154940000Y-127000000D03*
X152400000Y-127000000D03*
X149860000Y-127000000D03*
X147320000Y-127000000D03*
X144780000Y-127000000D03*
X142240000Y-127000000D03*
X139700000Y-127000000D03*
D15*
X172720000Y-80130000D03*
X172720000Y-95130000D03*
X134620000Y-128150000D03*
X134620000Y-113150000D03*
D16*
X144780000Y-107950000D03*
X147320000Y-107950000D03*
X149860000Y-107950000D03*
X152400000Y-107950000D03*
X154940000Y-107950000D03*
X157480000Y-107950000D03*
X160020000Y-107950000D03*
X162560000Y-107950000D03*
X162560000Y-100330000D03*
X160020000Y-100330000D03*
X157480000Y-100330000D03*
X154940000Y-100330000D03*
X152400000Y-100330000D03*
X149860000Y-100330000D03*
X147320000Y-100330000D03*
X144780000Y-100330000D03*
X144780000Y-93980000D03*
X147320000Y-93980000D03*
X149860000Y-93980000D03*
X152400000Y-93980000D03*
X154940000Y-93980000D03*
X157480000Y-93980000D03*
X160020000Y-93980000D03*
X162560000Y-93980000D03*
X162560000Y-86360000D03*
X160020000Y-86360000D03*
X157480000Y-86360000D03*
X154940000Y-86360000D03*
X152400000Y-86360000D03*
X149860000Y-86360000D03*
X147320000Y-86360000D03*
X144780000Y-86360000D03*
X144780000Y-121920000D03*
X147320000Y-121920000D03*
X149860000Y-121920000D03*
X152400000Y-121920000D03*
X154940000Y-121920000D03*
X157480000Y-121920000D03*
X160020000Y-121920000D03*
X162560000Y-121920000D03*
X162560000Y-114300000D03*
X160020000Y-114300000D03*
X157480000Y-114300000D03*
X154940000Y-114300000D03*
X152400000Y-114300000D03*
X149860000Y-114300000D03*
X147320000Y-114300000D03*
X144780000Y-114300000D03*
D17*
X162402500Y-102684800D03*
X141853200Y-92163800D03*
X146068500Y-120065600D03*
X160428500Y-88613900D03*
X158915400Y-92116200D03*
X164544900Y-123811500D03*
X148478300Y-129910600D03*
X170241000Y-122544200D03*
X152400000Y-117267500D03*
D18*
X162624200Y-102684800D02*
X162402500Y-102684800D01*
X164006900Y-101302100D02*
X162624200Y-102684800D01*
X164006900Y-97966900D02*
X164006900Y-101302100D01*
X160020000Y-93980000D02*
X164006900Y-97966900D01*
X141853200Y-107413900D02*
X141853200Y-92163800D01*
X144215500Y-109776200D02*
X141853200Y-107413900D01*
X145493800Y-109776200D02*
X144215500Y-109776200D01*
X147320000Y-107950000D02*
X145493800Y-109776200D01*
X143354500Y-101444500D02*
X149860000Y-107950000D01*
X143354500Y-99351300D02*
X143354500Y-101444500D01*
X144156100Y-98549700D02*
X143354500Y-99351300D01*
X145290300Y-98549700D02*
X144156100Y-98549700D01*
X149860000Y-93980000D02*
X145290300Y-98549700D01*
X155571800Y-109858200D02*
X157480000Y-107950000D01*
X146826500Y-109858200D02*
X155571800Y-109858200D01*
X143343300Y-113341400D02*
X146826500Y-109858200D01*
X143343300Y-115249800D02*
X143343300Y-113341400D01*
X148238100Y-120144600D02*
X143343300Y-115249800D01*
X155704600Y-120144600D02*
X148238100Y-120144600D01*
X157480000Y-121920000D02*
X155704600Y-120144600D01*
X161928300Y-109858300D02*
X160020000Y-107950000D01*
X162555400Y-109858300D02*
X161928300Y-109858300D01*
X164710300Y-112013200D02*
X162555400Y-109858300D01*
X168446500Y-112013200D02*
X164710300Y-112013200D01*
X174393500Y-106066200D02*
X168446500Y-112013200D01*
X174393500Y-84314900D02*
X174393500Y-106066200D01*
X168678400Y-78599800D02*
X174393500Y-84314900D01*
X138043200Y-78599800D02*
X168678400Y-78599800D01*
X135900900Y-80742100D02*
X138043200Y-78599800D01*
X135900900Y-109898000D02*
X135900900Y-80742100D01*
X146068500Y-120065600D02*
X135900900Y-109898000D01*
X160469500Y-105859500D02*
X162560000Y-107950000D01*
X157929500Y-105859500D02*
X160469500Y-105859500D01*
X152400000Y-100330000D02*
X157929500Y-105859500D01*
X160020000Y-102870000D02*
X160020000Y-100330000D01*
X167640000Y-110490000D02*
X160020000Y-102870000D01*
X155570000Y-95880000D02*
X154940000Y-95880000D01*
X160020000Y-100330000D02*
X155570000Y-95880000D01*
X154940000Y-93980000D02*
X154940000Y-95880000D01*
X143912100Y-88613900D02*
X160428500Y-88613900D01*
X137934000Y-94592000D02*
X143912100Y-88613900D01*
X137934000Y-100330000D02*
X137934000Y-94592000D01*
X139700000Y-100330000D02*
X137934000Y-100330000D01*
X163579800Y-92116200D02*
X158915400Y-92116200D01*
X167640000Y-96176400D02*
X163579800Y-92116200D01*
X167640000Y-97790000D02*
X167640000Y-96176400D01*
X147950000Y-98430000D02*
X147320000Y-98430000D01*
X152400000Y-93980000D02*
X147950000Y-98430000D01*
X147320000Y-100330000D02*
X147320000Y-98430000D01*
X172720000Y-84069900D02*
X172720000Y-95130000D01*
X168256700Y-79606600D02*
X172720000Y-84069900D01*
X138564500Y-79606600D02*
X168256700Y-79606600D01*
X136908900Y-81262200D02*
X138564500Y-79606600D01*
X136908900Y-105158900D02*
X136908900Y-81262200D01*
X139700000Y-107950000D02*
X136908900Y-105158900D01*
X172720000Y-102870000D02*
X167640000Y-107950000D01*
X172720000Y-95130000D02*
X172720000Y-102870000D01*
X164061500Y-82781500D02*
X162560000Y-81280000D01*
X164061500Y-87261900D02*
X164061500Y-82781500D01*
X161687600Y-89635800D02*
X164061500Y-87261900D01*
X149124200Y-89635800D02*
X161687600Y-89635800D01*
X144780000Y-93980000D02*
X149124200Y-89635800D01*
X165100000Y-87638000D02*
X165100000Y-81280000D01*
X162101900Y-90636100D02*
X165100000Y-87638000D01*
X150663900Y-90636100D02*
X162101900Y-90636100D01*
X147320000Y-93980000D02*
X150663900Y-90636100D01*
X160020000Y-86360000D02*
X160020000Y-81280000D01*
X157480000Y-86360000D02*
X157480000Y-81280000D01*
X152400000Y-86360000D02*
X152400000Y-81280000D01*
X147320000Y-83820000D02*
X144780000Y-81280000D01*
X147320000Y-86360000D02*
X147320000Y-83820000D01*
X143230000Y-84036000D02*
X142240000Y-83046000D01*
X143230000Y-86360000D02*
X143230000Y-84036000D01*
X144780000Y-86360000D02*
X143230000Y-86360000D01*
X142240000Y-81280000D02*
X142240000Y-83046000D01*
X143127000Y-128653000D02*
X144780000Y-127000000D01*
X139029600Y-128653000D02*
X143127000Y-128653000D01*
X138163900Y-127787300D02*
X139029600Y-128653000D01*
X138163900Y-126258200D02*
X138163900Y-127787300D01*
X142502100Y-121920000D02*
X138163900Y-126258200D01*
X144780000Y-121920000D02*
X142502100Y-121920000D01*
X147320000Y-121920000D02*
X142240000Y-127000000D01*
X160020000Y-124460000D02*
X160020000Y-127000000D01*
X162560000Y-121920000D02*
X160020000Y-124460000D01*
X164990200Y-123366200D02*
X164544900Y-123811500D01*
X164990200Y-115180200D02*
X164990200Y-123366200D01*
X164110000Y-114300000D02*
X164990200Y-115180200D01*
X162560000Y-114300000D02*
X164110000Y-114300000D01*
X147333700Y-128766000D02*
X147320000Y-128766000D01*
X148478300Y-129910600D02*
X147333700Y-128766000D01*
X147320000Y-127000000D02*
X147320000Y-128766000D01*
X170241000Y-128653300D02*
X170241000Y-122544200D01*
X169183700Y-129710600D02*
X170241000Y-128653300D01*
X152570600Y-129710600D02*
X169183700Y-129710600D01*
X149860000Y-127000000D02*
X152570600Y-129710600D01*
X152400000Y-114300000D02*
X152400000Y-117267500D01*
X154087900Y-128687900D02*
X152400000Y-127000000D01*
X168746900Y-128687900D02*
X154087900Y-128687900D01*
X169129000Y-128305800D02*
X168746900Y-128687900D01*
X169129000Y-117902900D02*
X169129000Y-128305800D01*
X163739400Y-112513300D02*
X169129000Y-117902900D01*
X151646700Y-112513300D02*
X163739400Y-112513300D01*
X149860000Y-114300000D02*
X151646700Y-112513300D01*
X162560000Y-127000000D02*
X162560000Y-125234000D01*
X162560000Y-124381800D02*
X162560000Y-125234000D01*
X163989800Y-122952000D02*
X162560000Y-124381800D01*
X163989800Y-120949700D02*
X163989800Y-122952000D01*
X162161800Y-119121700D02*
X163989800Y-120949700D01*
X152141700Y-119121700D02*
X162161800Y-119121700D01*
X147320000Y-114300000D02*
X152141700Y-119121700D01*
M02*
