G04 #@! TF.FileFunction,Legend,Top*
%FSLAX46Y46*%
G04 Gerber Fmt 4.6, Leading zero omitted, Abs format (unit mm)*
G04 Created by KiCad (PCBNEW (2015-10-31 BZR 6288)-product) date Friday, November 20, 2015 'PMt' 06:06:22 PM*
%MOMM*%
G01*
G04 APERTURE LIST*
%ADD10C,0.100000*%
%ADD11C,0.150000*%
G04 APERTURE END LIST*
D10*
D11*
X176561667Y-109942381D02*
X176371190Y-109942381D01*
X176275952Y-109990000D01*
X176228333Y-110037619D01*
X176133095Y-110180476D01*
X176085476Y-110370952D01*
X176085476Y-110751905D01*
X176133095Y-110847143D01*
X176180714Y-110894762D01*
X176275952Y-110942381D01*
X176466429Y-110942381D01*
X176561667Y-110894762D01*
X176609286Y-110847143D01*
X176656905Y-110751905D01*
X176656905Y-110513810D01*
X176609286Y-110418571D01*
X176561667Y-110370952D01*
X176466429Y-110323333D01*
X176275952Y-110323333D01*
X176180714Y-110370952D01*
X176133095Y-110418571D01*
X176085476Y-110513810D01*
X176609286Y-107402381D02*
X176133095Y-107402381D01*
X176085476Y-107878571D01*
X176133095Y-107830952D01*
X176228333Y-107783333D01*
X176466429Y-107783333D01*
X176561667Y-107830952D01*
X176609286Y-107878571D01*
X176656905Y-107973810D01*
X176656905Y-108211905D01*
X176609286Y-108307143D01*
X176561667Y-108354762D01*
X176466429Y-108402381D01*
X176228333Y-108402381D01*
X176133095Y-108354762D01*
X176085476Y-108307143D01*
X176561667Y-105195714D02*
X176561667Y-105862381D01*
X176323571Y-104814762D02*
X176085476Y-105529048D01*
X176704524Y-105529048D01*
X176037857Y-102322381D02*
X176656905Y-102322381D01*
X176323571Y-102703333D01*
X176466429Y-102703333D01*
X176561667Y-102750952D01*
X176609286Y-102798571D01*
X176656905Y-102893810D01*
X176656905Y-103131905D01*
X176609286Y-103227143D01*
X176561667Y-103274762D01*
X176466429Y-103322381D01*
X176180714Y-103322381D01*
X176085476Y-103274762D01*
X176037857Y-103227143D01*
X176085476Y-99877619D02*
X176133095Y-99830000D01*
X176228333Y-99782381D01*
X176466429Y-99782381D01*
X176561667Y-99830000D01*
X176609286Y-99877619D01*
X176656905Y-99972857D01*
X176656905Y-100068095D01*
X176609286Y-100210952D01*
X176037857Y-100782381D01*
X176656905Y-100782381D01*
X176656905Y-98242381D02*
X176085476Y-98242381D01*
X176371190Y-98242381D02*
X176371190Y-97242381D01*
X176275952Y-97385238D01*
X176180714Y-97480476D01*
X176085476Y-97528095D01*
X130841667Y-109942381D02*
X130651190Y-109942381D01*
X130555952Y-109990000D01*
X130508333Y-110037619D01*
X130413095Y-110180476D01*
X130365476Y-110370952D01*
X130365476Y-110751905D01*
X130413095Y-110847143D01*
X130460714Y-110894762D01*
X130555952Y-110942381D01*
X130746429Y-110942381D01*
X130841667Y-110894762D01*
X130889286Y-110847143D01*
X130936905Y-110751905D01*
X130936905Y-110513810D01*
X130889286Y-110418571D01*
X130841667Y-110370952D01*
X130746429Y-110323333D01*
X130555952Y-110323333D01*
X130460714Y-110370952D01*
X130413095Y-110418571D01*
X130365476Y-110513810D01*
X130889286Y-107402381D02*
X130413095Y-107402381D01*
X130365476Y-107878571D01*
X130413095Y-107830952D01*
X130508333Y-107783333D01*
X130746429Y-107783333D01*
X130841667Y-107830952D01*
X130889286Y-107878571D01*
X130936905Y-107973810D01*
X130936905Y-108211905D01*
X130889286Y-108307143D01*
X130841667Y-108354762D01*
X130746429Y-108402381D01*
X130508333Y-108402381D01*
X130413095Y-108354762D01*
X130365476Y-108307143D01*
X130841667Y-105195714D02*
X130841667Y-105862381D01*
X130603571Y-104814762D02*
X130365476Y-105529048D01*
X130984524Y-105529048D01*
X130317857Y-102322381D02*
X130936905Y-102322381D01*
X130603571Y-102703333D01*
X130746429Y-102703333D01*
X130841667Y-102750952D01*
X130889286Y-102798571D01*
X130936905Y-102893810D01*
X130936905Y-103131905D01*
X130889286Y-103227143D01*
X130841667Y-103274762D01*
X130746429Y-103322381D01*
X130460714Y-103322381D01*
X130365476Y-103274762D01*
X130317857Y-103227143D01*
X130365476Y-99877619D02*
X130413095Y-99830000D01*
X130508333Y-99782381D01*
X130746429Y-99782381D01*
X130841667Y-99830000D01*
X130889286Y-99877619D01*
X130936905Y-99972857D01*
X130936905Y-100068095D01*
X130889286Y-100210952D01*
X130317857Y-100782381D01*
X130936905Y-100782381D01*
X130936905Y-98242381D02*
X130365476Y-98242381D01*
X130651190Y-98242381D02*
X130651190Y-97242381D01*
X130555952Y-97385238D01*
X130460714Y-97480476D01*
X130365476Y-97528095D01*
X130841667Y-94067381D02*
X130651190Y-94067381D01*
X130555952Y-94115000D01*
X130508333Y-94162619D01*
X130413095Y-94305476D01*
X130365476Y-94495952D01*
X130365476Y-94876905D01*
X130413095Y-94972143D01*
X130460714Y-95019762D01*
X130555952Y-95067381D01*
X130746429Y-95067381D01*
X130841667Y-95019762D01*
X130889286Y-94972143D01*
X130936905Y-94876905D01*
X130936905Y-94638810D01*
X130889286Y-94543571D01*
X130841667Y-94495952D01*
X130746429Y-94448333D01*
X130555952Y-94448333D01*
X130460714Y-94495952D01*
X130413095Y-94543571D01*
X130365476Y-94638810D01*
X130889286Y-92162381D02*
X130413095Y-92162381D01*
X130365476Y-92638571D01*
X130413095Y-92590952D01*
X130508333Y-92543333D01*
X130746429Y-92543333D01*
X130841667Y-92590952D01*
X130889286Y-92638571D01*
X130936905Y-92733810D01*
X130936905Y-92971905D01*
X130889286Y-93067143D01*
X130841667Y-93114762D01*
X130746429Y-93162381D01*
X130508333Y-93162381D01*
X130413095Y-93114762D01*
X130365476Y-93067143D01*
X130841667Y-90590714D02*
X130841667Y-91257381D01*
X130603571Y-90209762D02*
X130365476Y-90924048D01*
X130984524Y-90924048D01*
X130317857Y-88352381D02*
X130936905Y-88352381D01*
X130603571Y-88733333D01*
X130746429Y-88733333D01*
X130841667Y-88780952D01*
X130889286Y-88828571D01*
X130936905Y-88923810D01*
X130936905Y-89161905D01*
X130889286Y-89257143D01*
X130841667Y-89304762D01*
X130746429Y-89352381D01*
X130460714Y-89352381D01*
X130365476Y-89304762D01*
X130317857Y-89257143D01*
X130365476Y-86542619D02*
X130413095Y-86495000D01*
X130508333Y-86447381D01*
X130746429Y-86447381D01*
X130841667Y-86495000D01*
X130889286Y-86542619D01*
X130936905Y-86637857D01*
X130936905Y-86733095D01*
X130889286Y-86875952D01*
X130317857Y-87447381D01*
X130936905Y-87447381D01*
X130936905Y-85542381D02*
X130365476Y-85542381D01*
X130651190Y-85542381D02*
X130651190Y-84542381D01*
X130555952Y-84685238D01*
X130460714Y-84780476D01*
X130365476Y-84828095D01*
X132318095Y-85542381D02*
X132318095Y-84542381D01*
X132699048Y-84542381D01*
X132794286Y-84590000D01*
X132841905Y-84637619D01*
X132889524Y-84732857D01*
X132889524Y-84875714D01*
X132841905Y-84970952D01*
X132794286Y-85018571D01*
X132699048Y-85066190D01*
X132318095Y-85066190D01*
X133889524Y-85542381D02*
X133556190Y-85066190D01*
X133318095Y-85542381D02*
X133318095Y-84542381D01*
X133699048Y-84542381D01*
X133794286Y-84590000D01*
X133841905Y-84637619D01*
X133889524Y-84732857D01*
X133889524Y-84875714D01*
X133841905Y-84970952D01*
X133794286Y-85018571D01*
X133699048Y-85066190D01*
X133318095Y-85066190D01*
X134508571Y-84542381D02*
X134699048Y-84542381D01*
X134794286Y-84590000D01*
X134889524Y-84685238D01*
X134937143Y-84875714D01*
X134937143Y-85209048D01*
X134889524Y-85399524D01*
X134794286Y-85494762D01*
X134699048Y-85542381D01*
X134508571Y-85542381D01*
X134413333Y-85494762D01*
X134318095Y-85399524D01*
X134270476Y-85209048D01*
X134270476Y-84875714D01*
X134318095Y-84685238D01*
X134413333Y-84590000D01*
X134508571Y-84542381D01*
X135365714Y-85542381D02*
X135365714Y-84542381D01*
X135746667Y-84542381D01*
X135841905Y-84590000D01*
X135889524Y-84637619D01*
X135937143Y-84732857D01*
X135937143Y-84875714D01*
X135889524Y-84970952D01*
X135841905Y-85018571D01*
X135746667Y-85066190D01*
X135365714Y-85066190D01*
X132889524Y-87352143D02*
X132841905Y-87399762D01*
X132699048Y-87447381D01*
X132603810Y-87447381D01*
X132460952Y-87399762D01*
X132365714Y-87304524D01*
X132318095Y-87209286D01*
X132270476Y-87018810D01*
X132270476Y-86875952D01*
X132318095Y-86685476D01*
X132365714Y-86590238D01*
X132460952Y-86495000D01*
X132603810Y-86447381D01*
X132699048Y-86447381D01*
X132841905Y-86495000D01*
X132889524Y-86542619D01*
X133794286Y-87447381D02*
X133318095Y-87447381D01*
X133318095Y-86447381D01*
X134127619Y-87447381D02*
X134127619Y-86447381D01*
X134699048Y-87447381D02*
X134270476Y-86875952D01*
X134699048Y-86447381D02*
X134127619Y-87018810D01*
X132318095Y-89352381D02*
X132318095Y-88352381D01*
X132556190Y-88352381D01*
X132699048Y-88400000D01*
X132794286Y-88495238D01*
X132841905Y-88590476D01*
X132889524Y-88780952D01*
X132889524Y-88923810D01*
X132841905Y-89114286D01*
X132794286Y-89209524D01*
X132699048Y-89304762D01*
X132556190Y-89352381D01*
X132318095Y-89352381D01*
X133270476Y-89066667D02*
X133746667Y-89066667D01*
X133175238Y-89352381D02*
X133508571Y-88352381D01*
X133841905Y-89352381D01*
X134032381Y-88352381D02*
X134603810Y-88352381D01*
X134318095Y-89352381D02*
X134318095Y-88352381D01*
X134889524Y-89066667D02*
X135365715Y-89066667D01*
X134794286Y-89352381D02*
X135127619Y-88352381D01*
X135460953Y-89352381D01*
X132841905Y-90305000D02*
X132746667Y-90257381D01*
X132603810Y-90257381D01*
X132460952Y-90305000D01*
X132365714Y-90400238D01*
X132318095Y-90495476D01*
X132270476Y-90685952D01*
X132270476Y-90828810D01*
X132318095Y-91019286D01*
X132365714Y-91114524D01*
X132460952Y-91209762D01*
X132603810Y-91257381D01*
X132699048Y-91257381D01*
X132841905Y-91209762D01*
X132889524Y-91162143D01*
X132889524Y-90828810D01*
X132699048Y-90828810D01*
X133318095Y-91257381D02*
X133318095Y-90257381D01*
X133889524Y-91257381D01*
X133889524Y-90257381D01*
X134365714Y-91257381D02*
X134365714Y-90257381D01*
X134603809Y-90257381D01*
X134746667Y-90305000D01*
X134841905Y-90400238D01*
X134889524Y-90495476D01*
X134937143Y-90685952D01*
X134937143Y-90828810D01*
X134889524Y-91019286D01*
X134841905Y-91114524D01*
X134746667Y-91209762D01*
X134603809Y-91257381D01*
X134365714Y-91257381D01*
X132318095Y-94686429D02*
X133080000Y-94686429D01*
X132699048Y-95067381D02*
X132699048Y-94305476D01*
X134032381Y-94067381D02*
X133556190Y-94067381D01*
X133508571Y-94543571D01*
X133556190Y-94495952D01*
X133651428Y-94448333D01*
X133889524Y-94448333D01*
X133984762Y-94495952D01*
X134032381Y-94543571D01*
X134080000Y-94638810D01*
X134080000Y-94876905D01*
X134032381Y-94972143D01*
X133984762Y-95019762D01*
X133889524Y-95067381D01*
X133651428Y-95067381D01*
X133556190Y-95019762D01*
X133508571Y-94972143D01*
X134365714Y-94067381D02*
X134699047Y-95067381D01*
X135032381Y-94067381D01*
X132318095Y-92781429D02*
X133080000Y-92781429D01*
X132699048Y-93162381D02*
X132699048Y-92400476D01*
X134080000Y-93162381D02*
X133508571Y-93162381D01*
X133794285Y-93162381D02*
X133794285Y-92162381D01*
X133699047Y-92305238D01*
X133603809Y-92400476D01*
X133508571Y-92448095D01*
X134413333Y-92162381D02*
X135080000Y-92162381D01*
X134651428Y-93162381D01*
X135651428Y-92162381D02*
X135746667Y-92162381D01*
X135841905Y-92210000D01*
X135889524Y-92257619D01*
X135937143Y-92352857D01*
X135984762Y-92543333D01*
X135984762Y-92781429D01*
X135937143Y-92971905D01*
X135889524Y-93067143D01*
X135841905Y-93114762D01*
X135746667Y-93162381D01*
X135651428Y-93162381D01*
X135556190Y-93114762D01*
X135508571Y-93067143D01*
X135460952Y-92971905D01*
X135413333Y-92781429D01*
X135413333Y-92543333D01*
X135460952Y-92352857D01*
X135508571Y-92257619D01*
X135556190Y-92210000D01*
X135651428Y-92162381D01*
X136270476Y-92162381D02*
X136603809Y-93162381D01*
X136937143Y-92162381D01*
X177740000Y-111760000D02*
X168910000Y-111760000D01*
X177740000Y-109220000D02*
X177740000Y-111760000D01*
X168910000Y-109220000D02*
X168910000Y-111760000D01*
X168910000Y-106680000D02*
X168910000Y-109220000D01*
X177740000Y-106680000D02*
X177740000Y-109220000D01*
X177740000Y-109220000D02*
X168910000Y-109220000D01*
X177740000Y-106680000D02*
X168910000Y-106680000D01*
X177740000Y-104140000D02*
X177740000Y-106680000D01*
X168910000Y-104140000D02*
X168910000Y-106680000D01*
X168910000Y-101600000D02*
X168910000Y-104140000D01*
X177740000Y-101600000D02*
X177740000Y-104140000D01*
X177740000Y-104140000D02*
X168910000Y-104140000D01*
X177740000Y-101600000D02*
X168910000Y-101600000D01*
X177740000Y-99060000D02*
X177740000Y-101600000D01*
X168910000Y-99060000D02*
X177740000Y-99060000D01*
X168910000Y-99060000D02*
X168910000Y-101600000D01*
X168910000Y-96520000D02*
X168910000Y-99060000D01*
X166240000Y-97790000D02*
X166240000Y-96240000D01*
X166240000Y-96240000D02*
X167640000Y-96240000D01*
X168910000Y-96520000D02*
X177740000Y-96520000D01*
X177740000Y-96520000D02*
X177740000Y-99060000D01*
X129600000Y-111760000D02*
X138430000Y-111760000D01*
X129600000Y-109220000D02*
X129600000Y-111760000D01*
X138430000Y-109220000D02*
X138430000Y-111760000D01*
X138430000Y-106680000D02*
X138430000Y-109220000D01*
X129600000Y-106680000D02*
X129600000Y-109220000D01*
X129600000Y-109220000D02*
X138430000Y-109220000D01*
X129600000Y-106680000D02*
X138430000Y-106680000D01*
X129600000Y-104140000D02*
X129600000Y-106680000D01*
X138430000Y-104140000D02*
X138430000Y-106680000D01*
X138430000Y-101600000D02*
X138430000Y-104140000D01*
X129600000Y-101600000D02*
X129600000Y-104140000D01*
X129600000Y-104140000D02*
X138430000Y-104140000D01*
X129600000Y-101600000D02*
X138430000Y-101600000D01*
X129600000Y-99060000D02*
X129600000Y-101600000D01*
X138430000Y-99060000D02*
X129600000Y-99060000D01*
X138430000Y-99060000D02*
X138430000Y-101600000D01*
X138430000Y-96520000D02*
X138430000Y-99060000D01*
X141100000Y-97790000D02*
X141100000Y-96240000D01*
X141100000Y-96240000D02*
X139700000Y-96240000D01*
X138430000Y-96520000D02*
X129600000Y-96520000D01*
X129600000Y-96520000D02*
X129600000Y-99060000D01*
X129600000Y-99060000D02*
X138430000Y-99060000D01*
X140970000Y-82550000D02*
X168910000Y-82550000D01*
X168910000Y-82550000D02*
X168910000Y-80010000D01*
X168910000Y-80010000D02*
X140970000Y-80010000D01*
X138150000Y-82830000D02*
X139700000Y-82830000D01*
X140970000Y-82550000D02*
X140970000Y-80010000D01*
X139700000Y-79730000D02*
X138150000Y-79730000D01*
X138150000Y-79730000D02*
X138150000Y-82830000D01*
X166370000Y-125730000D02*
X138430000Y-125730000D01*
X138430000Y-125730000D02*
X138430000Y-128270000D01*
X138430000Y-128270000D02*
X166370000Y-128270000D01*
X169190000Y-125450000D02*
X167640000Y-125450000D01*
X166370000Y-125730000D02*
X166370000Y-128270000D01*
X167640000Y-128550000D02*
X169190000Y-128550000D01*
X169190000Y-128550000D02*
X169190000Y-125450000D01*
X173990000Y-82550000D02*
X171450000Y-82550000D01*
X171450000Y-82550000D02*
X171450000Y-92710000D01*
X171450000Y-92710000D02*
X173990000Y-92710000D01*
X173990000Y-92710000D02*
X173990000Y-82550000D01*
X172720000Y-93980000D02*
X172720000Y-92710000D01*
X172720000Y-81280000D02*
X172720000Y-82550000D01*
X133350000Y-125730000D02*
X135890000Y-125730000D01*
X135890000Y-125730000D02*
X135890000Y-115570000D01*
X135890000Y-115570000D02*
X133350000Y-115570000D01*
X133350000Y-115570000D02*
X133350000Y-125730000D01*
X134620000Y-114300000D02*
X134620000Y-115570000D01*
X134620000Y-127000000D02*
X134620000Y-125730000D01*
X163576000Y-121920000D02*
X164846000Y-121920000D01*
X163576000Y-114300000D02*
X164846000Y-114300000D01*
X164846000Y-114300000D02*
X164846000Y-121920000D01*
X143764000Y-114300000D02*
X142494000Y-114300000D01*
X142494000Y-121920000D02*
X143764000Y-121920000D01*
X143764000Y-121920000D02*
X142494000Y-121920000D01*
X142494000Y-116840000D02*
X142494000Y-114300000D01*
X142494000Y-121920000D02*
X142494000Y-119380000D01*
X142494000Y-119380000D02*
X142494000Y-121920000D01*
X142494000Y-119380000D02*
G75*
G03X142494000Y-116840000I0J1270000D01*
G01*
X163576000Y-93980000D02*
X164846000Y-93980000D01*
X163576000Y-86360000D02*
X164846000Y-86360000D01*
X164846000Y-86360000D02*
X164846000Y-93980000D01*
X143764000Y-86360000D02*
X142494000Y-86360000D01*
X142494000Y-93980000D02*
X143764000Y-93980000D01*
X143764000Y-93980000D02*
X142494000Y-93980000D01*
X142494000Y-88900000D02*
X142494000Y-86360000D01*
X142494000Y-93980000D02*
X142494000Y-91440000D01*
X142494000Y-91440000D02*
X142494000Y-93980000D01*
X142494000Y-91440000D02*
G75*
G03X142494000Y-88900000I0J1270000D01*
G01*
X163576000Y-107950000D02*
X164846000Y-107950000D01*
X163576000Y-100330000D02*
X164846000Y-100330000D01*
X164846000Y-100330000D02*
X164846000Y-107950000D01*
X143764000Y-100330000D02*
X142494000Y-100330000D01*
X142494000Y-107950000D02*
X143764000Y-107950000D01*
X143764000Y-107950000D02*
X142494000Y-107950000D01*
X142494000Y-102870000D02*
X142494000Y-100330000D01*
X142494000Y-107950000D02*
X142494000Y-105410000D01*
X142494000Y-105410000D02*
X142494000Y-107950000D01*
X142494000Y-105410000D02*
G75*
G03X142494000Y-102870000I0J1270000D01*
G01*
X132453334Y-81732381D02*
X132453334Y-80732381D01*
X133024763Y-81732381D01*
X133024763Y-80732381D01*
X133500953Y-81732381D02*
X133500953Y-80732381D01*
X133881905Y-80732381D02*
X134548572Y-81732381D01*
X134548572Y-80732381D02*
X133881905Y-81732381D01*
X134929524Y-81732381D02*
X134929524Y-80732381D01*
X135405714Y-81208571D02*
X135739048Y-81208571D01*
X135881905Y-81732381D02*
X135405714Y-81732381D01*
X135405714Y-80732381D01*
X135881905Y-80732381D01*
X136834286Y-81732381D02*
X136262857Y-81732381D01*
X136548571Y-81732381D02*
X136548571Y-80732381D01*
X136453333Y-80875238D01*
X136358095Y-80970476D01*
X136262857Y-81018095D01*
X170553334Y-127452381D02*
X170553334Y-126452381D01*
X171124763Y-127452381D01*
X171124763Y-126452381D01*
X171600953Y-127452381D02*
X171600953Y-126452381D01*
X171981905Y-126452381D02*
X172648572Y-127452381D01*
X172648572Y-126452381D02*
X171981905Y-127452381D01*
X173029524Y-127452381D02*
X173029524Y-126452381D01*
X173505714Y-126928571D02*
X173839048Y-126928571D01*
X173981905Y-127452381D02*
X173505714Y-127452381D01*
X173505714Y-126452381D01*
X173981905Y-126452381D01*
X174362857Y-126547619D02*
X174410476Y-126500000D01*
X174505714Y-126452381D01*
X174743810Y-126452381D01*
X174839048Y-126500000D01*
X174886667Y-126547619D01*
X174934286Y-126642857D01*
X174934286Y-126738095D01*
X174886667Y-126880952D01*
X174315238Y-127452381D01*
X174934286Y-127452381D01*
X174712381Y-88415714D02*
X174712381Y-88606191D01*
X174760000Y-88701429D01*
X174807619Y-88749048D01*
X174950476Y-88844286D01*
X175140952Y-88891905D01*
X175521905Y-88891905D01*
X175617143Y-88844286D01*
X175664762Y-88796667D01*
X175712381Y-88701429D01*
X175712381Y-88510952D01*
X175664762Y-88415714D01*
X175617143Y-88368095D01*
X175521905Y-88320476D01*
X175283810Y-88320476D01*
X175188571Y-88368095D01*
X175140952Y-88415714D01*
X175093333Y-88510952D01*
X175093333Y-88701429D01*
X175140952Y-88796667D01*
X175188571Y-88844286D01*
X175283810Y-88891905D01*
X175140952Y-87749048D02*
X175093333Y-87844286D01*
X175045714Y-87891905D01*
X174950476Y-87939524D01*
X174902857Y-87939524D01*
X174807619Y-87891905D01*
X174760000Y-87844286D01*
X174712381Y-87749048D01*
X174712381Y-87558571D01*
X174760000Y-87463333D01*
X174807619Y-87415714D01*
X174902857Y-87368095D01*
X174950476Y-87368095D01*
X175045714Y-87415714D01*
X175093333Y-87463333D01*
X175140952Y-87558571D01*
X175140952Y-87749048D01*
X175188571Y-87844286D01*
X175236190Y-87891905D01*
X175331429Y-87939524D01*
X175521905Y-87939524D01*
X175617143Y-87891905D01*
X175664762Y-87844286D01*
X175712381Y-87749048D01*
X175712381Y-87558571D01*
X175664762Y-87463333D01*
X175617143Y-87415714D01*
X175521905Y-87368095D01*
X175331429Y-87368095D01*
X175236190Y-87415714D01*
X175188571Y-87463333D01*
X175140952Y-87558571D01*
X175712381Y-86939524D02*
X174712381Y-86939524D01*
X175712381Y-86368095D02*
X175140952Y-86796667D01*
X174712381Y-86368095D02*
X175283810Y-86939524D01*
X131532381Y-121435714D02*
X131532381Y-121626191D01*
X131580000Y-121721429D01*
X131627619Y-121769048D01*
X131770476Y-121864286D01*
X131960952Y-121911905D01*
X132341905Y-121911905D01*
X132437143Y-121864286D01*
X132484762Y-121816667D01*
X132532381Y-121721429D01*
X132532381Y-121530952D01*
X132484762Y-121435714D01*
X132437143Y-121388095D01*
X132341905Y-121340476D01*
X132103810Y-121340476D01*
X132008571Y-121388095D01*
X131960952Y-121435714D01*
X131913333Y-121530952D01*
X131913333Y-121721429D01*
X131960952Y-121816667D01*
X132008571Y-121864286D01*
X132103810Y-121911905D01*
X131960952Y-120769048D02*
X131913333Y-120864286D01*
X131865714Y-120911905D01*
X131770476Y-120959524D01*
X131722857Y-120959524D01*
X131627619Y-120911905D01*
X131580000Y-120864286D01*
X131532381Y-120769048D01*
X131532381Y-120578571D01*
X131580000Y-120483333D01*
X131627619Y-120435714D01*
X131722857Y-120388095D01*
X131770476Y-120388095D01*
X131865714Y-120435714D01*
X131913333Y-120483333D01*
X131960952Y-120578571D01*
X131960952Y-120769048D01*
X132008571Y-120864286D01*
X132056190Y-120911905D01*
X132151429Y-120959524D01*
X132341905Y-120959524D01*
X132437143Y-120911905D01*
X132484762Y-120864286D01*
X132532381Y-120769048D01*
X132532381Y-120578571D01*
X132484762Y-120483333D01*
X132437143Y-120435714D01*
X132341905Y-120388095D01*
X132151429Y-120388095D01*
X132056190Y-120435714D01*
X132008571Y-120483333D01*
X131960952Y-120578571D01*
X132532381Y-119959524D02*
X131532381Y-119959524D01*
X132532381Y-119388095D02*
X131960952Y-119816667D01*
X131532381Y-119388095D02*
X132103810Y-119959524D01*
X150765238Y-118562381D02*
X150765238Y-117562381D01*
X151336667Y-118562381D02*
X150908095Y-117990952D01*
X151336667Y-117562381D02*
X150765238Y-118133810D01*
X152289048Y-118562381D02*
X151717619Y-118562381D01*
X152003333Y-118562381D02*
X152003333Y-117562381D01*
X151908095Y-117705238D01*
X151812857Y-117800476D01*
X151717619Y-117848095D01*
X153193810Y-117562381D02*
X152717619Y-117562381D01*
X152670000Y-118038571D01*
X152717619Y-117990952D01*
X152812857Y-117943333D01*
X153050953Y-117943333D01*
X153146191Y-117990952D01*
X153193810Y-118038571D01*
X153241429Y-118133810D01*
X153241429Y-118371905D01*
X153193810Y-118467143D01*
X153146191Y-118514762D01*
X153050953Y-118562381D01*
X152812857Y-118562381D01*
X152717619Y-118514762D01*
X152670000Y-118467143D01*
X154146191Y-117562381D02*
X153670000Y-117562381D01*
X153622381Y-118038571D01*
X153670000Y-117990952D01*
X153765238Y-117943333D01*
X154003334Y-117943333D01*
X154098572Y-117990952D01*
X154146191Y-118038571D01*
X154193810Y-118133810D01*
X154193810Y-118371905D01*
X154146191Y-118467143D01*
X154098572Y-118514762D01*
X154003334Y-118562381D01*
X153765238Y-118562381D01*
X153670000Y-118514762D01*
X153622381Y-118467143D01*
X154622381Y-118562381D02*
X154622381Y-117562381D01*
X155098571Y-118562381D02*
X155098571Y-117562381D01*
X155336666Y-117562381D01*
X155479524Y-117610000D01*
X155574762Y-117705238D01*
X155622381Y-117800476D01*
X155670000Y-117990952D01*
X155670000Y-118133810D01*
X155622381Y-118324286D01*
X155574762Y-118419524D01*
X155479524Y-118514762D01*
X155336666Y-118562381D01*
X155098571Y-118562381D01*
X156050952Y-117657619D02*
X156098571Y-117610000D01*
X156193809Y-117562381D01*
X156431905Y-117562381D01*
X156527143Y-117610000D01*
X156574762Y-117657619D01*
X156622381Y-117752857D01*
X156622381Y-117848095D01*
X156574762Y-117990952D01*
X156003333Y-118562381D01*
X156622381Y-118562381D01*
X150765238Y-90622381D02*
X150765238Y-89622381D01*
X151336667Y-90622381D02*
X150908095Y-90050952D01*
X151336667Y-89622381D02*
X150765238Y-90193810D01*
X152289048Y-90622381D02*
X151717619Y-90622381D01*
X152003333Y-90622381D02*
X152003333Y-89622381D01*
X151908095Y-89765238D01*
X151812857Y-89860476D01*
X151717619Y-89908095D01*
X153193810Y-89622381D02*
X152717619Y-89622381D01*
X152670000Y-90098571D01*
X152717619Y-90050952D01*
X152812857Y-90003333D01*
X153050953Y-90003333D01*
X153146191Y-90050952D01*
X153193810Y-90098571D01*
X153241429Y-90193810D01*
X153241429Y-90431905D01*
X153193810Y-90527143D01*
X153146191Y-90574762D01*
X153050953Y-90622381D01*
X152812857Y-90622381D01*
X152717619Y-90574762D01*
X152670000Y-90527143D01*
X154146191Y-89622381D02*
X153670000Y-89622381D01*
X153622381Y-90098571D01*
X153670000Y-90050952D01*
X153765238Y-90003333D01*
X154003334Y-90003333D01*
X154098572Y-90050952D01*
X154146191Y-90098571D01*
X154193810Y-90193810D01*
X154193810Y-90431905D01*
X154146191Y-90527143D01*
X154098572Y-90574762D01*
X154003334Y-90622381D01*
X153765238Y-90622381D01*
X153670000Y-90574762D01*
X153622381Y-90527143D01*
X154622381Y-90622381D02*
X154622381Y-89622381D01*
X155098571Y-90622381D02*
X155098571Y-89622381D01*
X155336666Y-89622381D01*
X155479524Y-89670000D01*
X155574762Y-89765238D01*
X155622381Y-89860476D01*
X155670000Y-90050952D01*
X155670000Y-90193810D01*
X155622381Y-90384286D01*
X155574762Y-90479524D01*
X155479524Y-90574762D01*
X155336666Y-90622381D01*
X155098571Y-90622381D01*
X156622381Y-90622381D02*
X156050952Y-90622381D01*
X156336666Y-90622381D02*
X156336666Y-89622381D01*
X156241428Y-89765238D01*
X156146190Y-89860476D01*
X156050952Y-89908095D01*
X150408095Y-103592381D02*
X151074762Y-103592381D01*
X150646190Y-104592381D01*
X151884286Y-103925714D02*
X151884286Y-104592381D01*
X151646190Y-103544762D02*
X151408095Y-104259048D01*
X152027143Y-104259048D01*
X152408095Y-104592381D02*
X152408095Y-103592381D01*
X152408095Y-104068571D02*
X152979524Y-104068571D01*
X152979524Y-104592381D02*
X152979524Y-103592381D01*
X154027143Y-104497143D02*
X153979524Y-104544762D01*
X153836667Y-104592381D01*
X153741429Y-104592381D01*
X153598571Y-104544762D01*
X153503333Y-104449524D01*
X153455714Y-104354286D01*
X153408095Y-104163810D01*
X153408095Y-104020952D01*
X153455714Y-103830476D01*
X153503333Y-103735238D01*
X153598571Y-103640000D01*
X153741429Y-103592381D01*
X153836667Y-103592381D01*
X153979524Y-103640000D01*
X154027143Y-103687619D01*
X154931905Y-103592381D02*
X154455714Y-103592381D01*
X154408095Y-104068571D01*
X154455714Y-104020952D01*
X154550952Y-103973333D01*
X154789048Y-103973333D01*
X154884286Y-104020952D01*
X154931905Y-104068571D01*
X154979524Y-104163810D01*
X154979524Y-104401905D01*
X154931905Y-104497143D01*
X154884286Y-104544762D01*
X154789048Y-104592381D01*
X154550952Y-104592381D01*
X154455714Y-104544762D01*
X154408095Y-104497143D01*
X155455714Y-104592381D02*
X155646190Y-104592381D01*
X155741429Y-104544762D01*
X155789048Y-104497143D01*
X155884286Y-104354286D01*
X155931905Y-104163810D01*
X155931905Y-103782857D01*
X155884286Y-103687619D01*
X155836667Y-103640000D01*
X155741429Y-103592381D01*
X155550952Y-103592381D01*
X155455714Y-103640000D01*
X155408095Y-103687619D01*
X155360476Y-103782857D01*
X155360476Y-104020952D01*
X155408095Y-104116190D01*
X155455714Y-104163810D01*
X155550952Y-104211429D01*
X155741429Y-104211429D01*
X155836667Y-104163810D01*
X155884286Y-104116190D01*
X155931905Y-104020952D01*
X156836667Y-103592381D02*
X156360476Y-103592381D01*
X156312857Y-104068571D01*
X156360476Y-104020952D01*
X156455714Y-103973333D01*
X156693810Y-103973333D01*
X156789048Y-104020952D01*
X156836667Y-104068571D01*
X156884286Y-104163810D01*
X156884286Y-104401905D01*
X156836667Y-104497143D01*
X156789048Y-104544762D01*
X156693810Y-104592381D01*
X156455714Y-104592381D01*
X156360476Y-104544762D01*
X156312857Y-104497143D01*
M02*
