G04 #@! TF.FileFunction,Legend,Top*
%FSLAX46Y46*%
G04 Gerber Fmt 4.6, Leading zero omitted, Abs format (unit mm)*
G04 Created by KiCad (PCBNEW (2015-10-31 BZR 6288)-product) date Saturday, November 21, 2015 'PMt' 01:28:12 PM*
%MOMM*%
G01*
G04 APERTURE LIST*
%ADD10C,0.100000*%
%ADD11C,0.300000*%
%ADD12C,0.150000*%
%ADD13C,0.254000*%
G04 APERTURE END LIST*
D10*
D11*
X132477144Y-61638571D02*
X131977144Y-60924286D01*
X131620001Y-61638571D02*
X131620001Y-60138571D01*
X132191429Y-60138571D01*
X132334287Y-60210000D01*
X132405715Y-60281429D01*
X132477144Y-60424286D01*
X132477144Y-60638571D01*
X132405715Y-60781429D01*
X132334287Y-60852857D01*
X132191429Y-60924286D01*
X131620001Y-60924286D01*
X133120001Y-60852857D02*
X133620001Y-60852857D01*
X133834287Y-61638571D02*
X133120001Y-61638571D01*
X133120001Y-60138571D01*
X133834287Y-60138571D01*
X134262858Y-60138571D02*
X134762858Y-61638571D01*
X135262858Y-60138571D01*
X136762858Y-60138571D02*
X137691429Y-60138571D01*
X137191429Y-60710000D01*
X137405715Y-60710000D01*
X137548572Y-60781429D01*
X137620001Y-60852857D01*
X137691429Y-60995714D01*
X137691429Y-61352857D01*
X137620001Y-61495714D01*
X137548572Y-61567143D01*
X137405715Y-61638571D01*
X136977143Y-61638571D01*
X136834286Y-61567143D01*
X136762858Y-61495714D01*
D12*
X121920000Y-55880000D02*
X149860000Y-55880000D01*
X149860000Y-55880000D02*
X149860000Y-58420000D01*
X149860000Y-58420000D02*
X121920000Y-58420000D01*
X119100000Y-55600000D02*
X120650000Y-55600000D01*
X121920000Y-55880000D02*
X121920000Y-58420000D01*
X120650000Y-58700000D02*
X119100000Y-58700000D01*
X119100000Y-58700000D02*
X119100000Y-55600000D01*
X147320000Y-104140000D02*
X119380000Y-104140000D01*
X119380000Y-104140000D02*
X119380000Y-101600000D01*
X119380000Y-101600000D02*
X147320000Y-101600000D01*
X150140000Y-104420000D02*
X148590000Y-104420000D01*
X147320000Y-104140000D02*
X147320000Y-101600000D01*
X148590000Y-101320000D02*
X150140000Y-101320000D01*
X150140000Y-101320000D02*
X150140000Y-104420000D01*
D13*
X133985000Y-70881875D02*
X133985000Y-89138125D01*
X114935000Y-89138125D02*
X114935000Y-70881875D01*
X114932285Y-89133479D02*
G75*
G03X133985000Y-89138125I9527715J5564431D01*
G01*
X133987715Y-70886521D02*
G75*
G03X114935000Y-70881875I-9527715J-5564431D01*
G01*
X154305000Y-70881875D02*
X154305000Y-89138125D01*
X135255000Y-89138125D02*
X135255000Y-70881875D01*
X135252285Y-89133479D02*
G75*
G03X154305000Y-89138125I9527715J5564431D01*
G01*
X154307715Y-70886521D02*
G75*
G03X135255000Y-70881875I-9527715J-5564431D01*
G01*
D12*
X116002381Y-57888095D02*
X115002381Y-57888095D01*
X115002381Y-57507142D01*
X115050000Y-57411904D01*
X115097619Y-57364285D01*
X115192857Y-57316666D01*
X115335714Y-57316666D01*
X115430952Y-57364285D01*
X115478571Y-57411904D01*
X115526190Y-57507142D01*
X115526190Y-57888095D01*
X116002381Y-56364285D02*
X116002381Y-56935714D01*
X116002381Y-56650000D02*
X115002381Y-56650000D01*
X115145238Y-56745238D01*
X115240476Y-56840476D01*
X115288095Y-56935714D01*
X154142381Y-103608095D02*
X153142381Y-103608095D01*
X153142381Y-103227142D01*
X153190000Y-103131904D01*
X153237619Y-103084285D01*
X153332857Y-103036666D01*
X153475714Y-103036666D01*
X153570952Y-103084285D01*
X153618571Y-103131904D01*
X153666190Y-103227142D01*
X153666190Y-103608095D01*
X153237619Y-102655714D02*
X153190000Y-102608095D01*
X153142381Y-102512857D01*
X153142381Y-102274761D01*
X153190000Y-102179523D01*
X153237619Y-102131904D01*
X153332857Y-102084285D01*
X153428095Y-102084285D01*
X153570952Y-102131904D01*
X154142381Y-102703333D01*
X154142381Y-102084285D01*
X120631857Y-64570429D02*
X120631857Y-63046429D01*
X121357571Y-64570429D02*
X121357571Y-63046429D01*
X122228428Y-64570429D01*
X122228428Y-63046429D01*
X122954142Y-63989857D02*
X124115285Y-63989857D01*
X125639285Y-64570429D02*
X124768428Y-64570429D01*
X125203856Y-64570429D02*
X125203856Y-63046429D01*
X125058713Y-63264143D01*
X124913571Y-63409286D01*
X124768428Y-63481857D01*
X126219857Y-63191571D02*
X126292428Y-63119000D01*
X126437571Y-63046429D01*
X126800428Y-63046429D01*
X126945571Y-63119000D01*
X127018142Y-63191571D01*
X127090714Y-63336714D01*
X127090714Y-63481857D01*
X127018142Y-63699571D01*
X126147285Y-64570429D01*
X127090714Y-64570429D01*
X128251857Y-63772143D02*
X128469571Y-63844714D01*
X128542143Y-63917286D01*
X128614714Y-64062429D01*
X128614714Y-64280143D01*
X128542143Y-64425286D01*
X128469571Y-64497857D01*
X128324429Y-64570429D01*
X127743857Y-64570429D01*
X127743857Y-63046429D01*
X128251857Y-63046429D01*
X128397000Y-63119000D01*
X128469571Y-63191571D01*
X128542143Y-63336714D01*
X128542143Y-63481857D01*
X128469571Y-63627000D01*
X128397000Y-63699571D01*
X128251857Y-63772143D01*
X127743857Y-63772143D01*
X140951857Y-64570429D02*
X140951857Y-63046429D01*
X141677571Y-64570429D02*
X141677571Y-63046429D01*
X142548428Y-64570429D01*
X142548428Y-63046429D01*
X143274142Y-63989857D02*
X144435285Y-63989857D01*
X145959285Y-64570429D02*
X145088428Y-64570429D01*
X145523856Y-64570429D02*
X145523856Y-63046429D01*
X145378713Y-63264143D01*
X145233571Y-63409286D01*
X145088428Y-63481857D01*
X146539857Y-63191571D02*
X146612428Y-63119000D01*
X146757571Y-63046429D01*
X147120428Y-63046429D01*
X147265571Y-63119000D01*
X147338142Y-63191571D01*
X147410714Y-63336714D01*
X147410714Y-63481857D01*
X147338142Y-63699571D01*
X146467285Y-64570429D01*
X147410714Y-64570429D01*
X148571857Y-63772143D02*
X148789571Y-63844714D01*
X148862143Y-63917286D01*
X148934714Y-64062429D01*
X148934714Y-64280143D01*
X148862143Y-64425286D01*
X148789571Y-64497857D01*
X148644429Y-64570429D01*
X148063857Y-64570429D01*
X148063857Y-63046429D01*
X148571857Y-63046429D01*
X148717000Y-63119000D01*
X148789571Y-63191571D01*
X148862143Y-63336714D01*
X148862143Y-63481857D01*
X148789571Y-63627000D01*
X148717000Y-63699571D01*
X148571857Y-63772143D01*
X148063857Y-63772143D01*
M02*
