G04 #@! TF.FileFunction,Legend,Top*
%FSLAX46Y46*%
G04 Gerber Fmt 4.6, Leading zero omitted, Abs format (unit mm)*
G04 Created by KiCad (PCBNEW (2015-10-31 BZR 6288)-product) date Tuesday, November 24, 2015 'PMt' 09:59:33 PM*
%MOMM*%
G01*
G04 APERTURE LIST*
%ADD10C,0.100000*%
%ADD11C,0.150000*%
%ADD12C,0.300000*%
%ADD13C,0.254000*%
G04 APERTURE END LIST*
D10*
D11*
X145153334Y-100782381D02*
X145153334Y-99782381D01*
X145724763Y-100782381D01*
X145724763Y-99782381D01*
X146200953Y-100782381D02*
X146200953Y-99782381D01*
X146581905Y-99782381D02*
X147248572Y-100782381D01*
X147248572Y-99782381D02*
X146581905Y-100782381D01*
X147629524Y-100782381D02*
X147629524Y-99782381D01*
X148105714Y-100258571D02*
X148439048Y-100258571D01*
X148581905Y-100782381D02*
X148105714Y-100782381D01*
X148105714Y-99782381D01*
X148581905Y-99782381D01*
X148962857Y-99877619D02*
X149010476Y-99830000D01*
X149105714Y-99782381D01*
X149343810Y-99782381D01*
X149439048Y-99830000D01*
X149486667Y-99877619D01*
X149534286Y-99972857D01*
X149534286Y-100068095D01*
X149486667Y-100210952D01*
X148915238Y-100782381D01*
X149534286Y-100782381D01*
X119753334Y-60142381D02*
X119753334Y-59142381D01*
X120324763Y-60142381D01*
X120324763Y-59142381D01*
X120800953Y-60142381D02*
X120800953Y-59142381D01*
X121181905Y-59142381D02*
X121848572Y-60142381D01*
X121848572Y-59142381D02*
X121181905Y-60142381D01*
X122229524Y-60142381D02*
X122229524Y-59142381D01*
X122705714Y-59618571D02*
X123039048Y-59618571D01*
X123181905Y-60142381D02*
X122705714Y-60142381D01*
X122705714Y-59142381D01*
X123181905Y-59142381D01*
X124134286Y-60142381D02*
X123562857Y-60142381D01*
X123848571Y-60142381D02*
X123848571Y-59142381D01*
X123753333Y-59285238D01*
X123658095Y-59380476D01*
X123562857Y-59428095D01*
D12*
X132477144Y-62908571D02*
X131977144Y-62194286D01*
X131620001Y-62908571D02*
X131620001Y-61408571D01*
X132191429Y-61408571D01*
X132334287Y-61480000D01*
X132405715Y-61551429D01*
X132477144Y-61694286D01*
X132477144Y-61908571D01*
X132405715Y-62051429D01*
X132334287Y-62122857D01*
X132191429Y-62194286D01*
X131620001Y-62194286D01*
X133120001Y-62122857D02*
X133620001Y-62122857D01*
X133834287Y-62908571D02*
X133120001Y-62908571D01*
X133120001Y-61408571D01*
X133834287Y-61408571D01*
X134262858Y-61408571D02*
X134762858Y-62908571D01*
X135262858Y-61408571D01*
X136762858Y-61408571D02*
X137691429Y-61408571D01*
X137191429Y-61980000D01*
X137405715Y-61980000D01*
X137548572Y-62051429D01*
X137620001Y-62122857D01*
X137691429Y-62265714D01*
X137691429Y-62622857D01*
X137620001Y-62765714D01*
X137548572Y-62837143D01*
X137405715Y-62908571D01*
X136977143Y-62908571D01*
X136834286Y-62837143D01*
X136762858Y-62765714D01*
D11*
X121920000Y-55880000D02*
X149860000Y-55880000D01*
X149860000Y-55880000D02*
X149860000Y-58420000D01*
X149860000Y-58420000D02*
X121920000Y-58420000D01*
X119100000Y-55600000D02*
X120650000Y-55600000D01*
X121920000Y-55880000D02*
X121920000Y-58420000D01*
X120650000Y-58700000D02*
X119100000Y-58700000D01*
X119100000Y-58700000D02*
X119100000Y-55600000D01*
X147320000Y-104140000D02*
X119380000Y-104140000D01*
X119380000Y-104140000D02*
X119380000Y-101600000D01*
X119380000Y-101600000D02*
X147320000Y-101600000D01*
X150140000Y-104420000D02*
X148590000Y-104420000D01*
X147320000Y-104140000D02*
X147320000Y-101600000D01*
X148590000Y-101320000D02*
X150140000Y-101320000D01*
X150140000Y-101320000D02*
X150140000Y-104420000D01*
D13*
X133985000Y-70881875D02*
X133985000Y-89138125D01*
X114935000Y-89138125D02*
X114935000Y-70881875D01*
X114932285Y-89133479D02*
G75*
G03X133985000Y-89138125I9527715J5564431D01*
G01*
X133987715Y-70886521D02*
G75*
G03X114935000Y-70881875I-9527715J-5564431D01*
G01*
X154305000Y-70881875D02*
X154305000Y-89138125D01*
X135255000Y-89138125D02*
X135255000Y-70881875D01*
X135252285Y-89133479D02*
G75*
G03X154305000Y-89138125I9527715J5564431D01*
G01*
X154307715Y-70886521D02*
G75*
G03X135255000Y-70881875I-9527715J-5564431D01*
G01*
D11*
X120631857Y-64570429D02*
X120631857Y-63046429D01*
X121357571Y-64570429D02*
X121357571Y-63046429D01*
X122228428Y-64570429D01*
X122228428Y-63046429D01*
X122954142Y-63989857D02*
X124115285Y-63989857D01*
X125639285Y-64570429D02*
X124768428Y-64570429D01*
X125203856Y-64570429D02*
X125203856Y-63046429D01*
X125058713Y-63264143D01*
X124913571Y-63409286D01*
X124768428Y-63481857D01*
X126219857Y-63191571D02*
X126292428Y-63119000D01*
X126437571Y-63046429D01*
X126800428Y-63046429D01*
X126945571Y-63119000D01*
X127018142Y-63191571D01*
X127090714Y-63336714D01*
X127090714Y-63481857D01*
X127018142Y-63699571D01*
X126147285Y-64570429D01*
X127090714Y-64570429D01*
X128251857Y-63772143D02*
X128469571Y-63844714D01*
X128542143Y-63917286D01*
X128614714Y-64062429D01*
X128614714Y-64280143D01*
X128542143Y-64425286D01*
X128469571Y-64497857D01*
X128324429Y-64570429D01*
X127743857Y-64570429D01*
X127743857Y-63046429D01*
X128251857Y-63046429D01*
X128397000Y-63119000D01*
X128469571Y-63191571D01*
X128542143Y-63336714D01*
X128542143Y-63481857D01*
X128469571Y-63627000D01*
X128397000Y-63699571D01*
X128251857Y-63772143D01*
X127743857Y-63772143D01*
X140951857Y-64570429D02*
X140951857Y-63046429D01*
X141677571Y-64570429D02*
X141677571Y-63046429D01*
X142548428Y-64570429D01*
X142548428Y-63046429D01*
X143274142Y-63989857D02*
X144435285Y-63989857D01*
X145959285Y-64570429D02*
X145088428Y-64570429D01*
X145523856Y-64570429D02*
X145523856Y-63046429D01*
X145378713Y-63264143D01*
X145233571Y-63409286D01*
X145088428Y-63481857D01*
X146539857Y-63191571D02*
X146612428Y-63119000D01*
X146757571Y-63046429D01*
X147120428Y-63046429D01*
X147265571Y-63119000D01*
X147338142Y-63191571D01*
X147410714Y-63336714D01*
X147410714Y-63481857D01*
X147338142Y-63699571D01*
X146467285Y-64570429D01*
X147410714Y-64570429D01*
X148571857Y-63772143D02*
X148789571Y-63844714D01*
X148862143Y-63917286D01*
X148934714Y-64062429D01*
X148934714Y-64280143D01*
X148862143Y-64425286D01*
X148789571Y-64497857D01*
X148644429Y-64570429D01*
X148063857Y-64570429D01*
X148063857Y-63046429D01*
X148571857Y-63046429D01*
X148717000Y-63119000D01*
X148789571Y-63191571D01*
X148862143Y-63336714D01*
X148862143Y-63481857D01*
X148789571Y-63627000D01*
X148717000Y-63699571D01*
X148571857Y-63772143D01*
X148063857Y-63772143D01*
M02*
