G04 #@! TF.FileFunction,Copper,L2,Bot,Signal*
%FSLAX46Y46*%
G04 Gerber Fmt 4.6, Leading zero omitted, Abs format (unit mm)*
G04 Created by KiCad (PCBNEW (2015-10-31 BZR 6288)-product) date Thursday, November 19, 2015 'PMt' 08:35:42 PM*
%MOMM*%
G01*
G04 APERTURE LIST*
%ADD10C,0.100000*%
%ADD11R,1.727200X2.032000*%
%ADD12O,1.727200X2.032000*%
%ADD13C,2.540000*%
%ADD14C,5.500000*%
%ADD15C,0.800000*%
%ADD16C,1.000000*%
G04 APERTURE END LIST*
D10*
D11*
X120650000Y-57150000D03*
D12*
X123190000Y-57150000D03*
X125730000Y-57150000D03*
X128270000Y-57150000D03*
X130810000Y-57150000D03*
X133350000Y-57150000D03*
X135890000Y-57150000D03*
X138430000Y-57150000D03*
X140970000Y-57150000D03*
X143510000Y-57150000D03*
X146050000Y-57150000D03*
X148590000Y-57150000D03*
D11*
X148590000Y-102870000D03*
D12*
X146050000Y-102870000D03*
X143510000Y-102870000D03*
X140970000Y-102870000D03*
X138430000Y-102870000D03*
X135890000Y-102870000D03*
X133350000Y-102870000D03*
X130810000Y-102870000D03*
X128270000Y-102870000D03*
X125730000Y-102870000D03*
X123190000Y-102870000D03*
X120650000Y-102870000D03*
D13*
X129887980Y-84508340D03*
X120525540Y-87825580D03*
X118841520Y-84508340D03*
X118714520Y-80010000D03*
X118841520Y-75511660D03*
X120525540Y-72194420D03*
X124523500Y-71193660D03*
X128521460Y-72194420D03*
X129887980Y-75511660D03*
X130014980Y-80010000D03*
X128521460Y-87825580D03*
X124523500Y-88826340D03*
D14*
X124501000Y-80010000D03*
D13*
X150207980Y-84508340D03*
X140845540Y-87825580D03*
X139161520Y-84508340D03*
X139034520Y-80010000D03*
X139161520Y-75511660D03*
X140845540Y-72194420D03*
X144843500Y-71193660D03*
X148841460Y-72194420D03*
X150207980Y-75511660D03*
X150334980Y-80010000D03*
X148841460Y-87825580D03*
X144843500Y-88826340D03*
D14*
X144821000Y-80010000D03*
D15*
X132077100Y-88665100D03*
X127888600Y-98731600D03*
X130810000Y-88234500D03*
D16*
X135884000Y-69856000D02*
X148590000Y-57150000D01*
X135884000Y-78684000D02*
X135884000Y-69856000D01*
X130059700Y-84508300D02*
X135884000Y-78684000D01*
X129888000Y-84508300D02*
X130059700Y-84508300D01*
X145250500Y-55409500D02*
X143510000Y-57150000D01*
X149221400Y-55409500D02*
X145250500Y-55409500D01*
X154651400Y-60839500D02*
X149221400Y-55409500D01*
X154651400Y-99691500D02*
X154651400Y-60839500D01*
X148544400Y-105798500D02*
X154651400Y-99691500D01*
X119509500Y-105798500D02*
X148544400Y-105798500D01*
X117858300Y-104147300D02*
X119509500Y-105798500D01*
X117858300Y-90492800D02*
X117858300Y-104147300D01*
X120525500Y-87825600D02*
X117858300Y-90492800D01*
X132024700Y-66095300D02*
X140970000Y-57150000D01*
X132024700Y-80816300D02*
X132024700Y-66095300D01*
X130518400Y-82322600D02*
X132024700Y-80816300D01*
X129248900Y-82322600D02*
X130518400Y-82322600D01*
X127063200Y-84508300D02*
X129248900Y-82322600D01*
X118841500Y-84508300D02*
X127063200Y-84508300D01*
X132952400Y-54212400D02*
X135890000Y-57150000D01*
X118964300Y-54212400D02*
X132952400Y-54212400D01*
X117841500Y-55335200D02*
X118964300Y-54212400D01*
X117841500Y-74511700D02*
X117841500Y-55335200D01*
X118841500Y-75511700D02*
X117841500Y-74511700D01*
X129083200Y-55423200D02*
X130810000Y-57150000D01*
X119451200Y-55423200D02*
X129083200Y-55423200D01*
X119086000Y-55788400D02*
X119451200Y-55423200D01*
X119086000Y-65756200D02*
X119086000Y-55788400D01*
X124523500Y-71193700D02*
X119086000Y-65756200D01*
X128521500Y-59417500D02*
X128270000Y-59166000D01*
X128521500Y-72194400D02*
X128521500Y-59417500D01*
X128270000Y-57150000D02*
X128270000Y-59166000D01*
X126522600Y-60482600D02*
X123190000Y-57150000D01*
X126522600Y-76517600D02*
X126522600Y-60482600D01*
X130015000Y-80010000D02*
X126522600Y-76517600D01*
X130938300Y-89803900D02*
X132077100Y-88665100D01*
X125501100Y-89803900D02*
X130938300Y-89803900D01*
X124523500Y-88826300D02*
X125501100Y-89803900D01*
X129939500Y-98731600D02*
X127888600Y-98731600D01*
X140845500Y-87825600D02*
X129939500Y-98731600D01*
X126547800Y-104592200D02*
X128270000Y-102870000D01*
X120000900Y-104592200D02*
X126547800Y-104592200D01*
X119072400Y-103663700D02*
X120000900Y-104592200D01*
X119072400Y-102027500D02*
X119072400Y-103663700D01*
X120877800Y-100222100D02*
X119072400Y-102027500D01*
X123447700Y-100222100D02*
X120877800Y-100222100D01*
X139161500Y-84508300D02*
X123447700Y-100222100D01*
X139034500Y-80010000D02*
X130810000Y-88234500D01*
X135241700Y-100978300D02*
X133350000Y-102870000D01*
X135547700Y-100978300D02*
X135241700Y-100978300D01*
X146842500Y-89683500D02*
X135547700Y-100978300D01*
X146842500Y-86938100D02*
X146842500Y-89683500D01*
X141187700Y-81283300D02*
X146842500Y-86938100D01*
X141187700Y-77537900D02*
X141187700Y-81283300D01*
X139161500Y-75511700D02*
X141187700Y-77537900D01*
X138599700Y-100854000D02*
X138430000Y-100854000D01*
X152190900Y-87262800D02*
X138599700Y-100854000D01*
X152190900Y-83695800D02*
X152190900Y-87262800D01*
X150817700Y-82322600D02*
X152190900Y-83695800D01*
X149806900Y-82322600D02*
X150817700Y-82322600D01*
X148318000Y-80833700D02*
X149806900Y-82322600D01*
X148318000Y-76408300D02*
X148318000Y-80833700D01*
X144843500Y-72933800D02*
X148318000Y-76408300D01*
X144843500Y-71193700D02*
X144843500Y-72933800D01*
X138430000Y-102870000D02*
X138430000Y-100854000D01*
X153400300Y-92979700D02*
X143510000Y-102870000D01*
X153400300Y-78704000D02*
X153400300Y-92979700D01*
X150208000Y-75511700D02*
X153400300Y-78704000D01*
X125838100Y-100221900D02*
X123190000Y-102870000D01*
X133447900Y-100221900D02*
X125838100Y-100221900D01*
X144843500Y-88826300D02*
X133447900Y-100221900D01*
M02*
