G04 #@! TF.FileFunction,Copper,L1,Top,Signal*
%FSLAX46Y46*%
G04 Gerber Fmt 4.6, Leading zero omitted, Abs format (unit mm)*
G04 Created by KiCad (PCBNEW (2015-10-31 BZR 6288)-product) date Thursday, November 19, 2015 'PMt' 08:35:42 PM*
%MOMM*%
G01*
G04 APERTURE LIST*
%ADD10C,0.100000*%
%ADD11R,1.727200X2.032000*%
%ADD12O,1.727200X2.032000*%
%ADD13C,2.540000*%
%ADD14C,5.500000*%
%ADD15C,0.800000*%
%ADD16C,1.000000*%
G04 APERTURE END LIST*
D10*
D11*
X120650000Y-57150000D03*
D12*
X123190000Y-57150000D03*
X125730000Y-57150000D03*
X128270000Y-57150000D03*
X130810000Y-57150000D03*
X133350000Y-57150000D03*
X135890000Y-57150000D03*
X138430000Y-57150000D03*
X140970000Y-57150000D03*
X143510000Y-57150000D03*
X146050000Y-57150000D03*
X148590000Y-57150000D03*
D11*
X148590000Y-102870000D03*
D12*
X146050000Y-102870000D03*
X143510000Y-102870000D03*
X140970000Y-102870000D03*
X138430000Y-102870000D03*
X135890000Y-102870000D03*
X133350000Y-102870000D03*
X130810000Y-102870000D03*
X128270000Y-102870000D03*
X125730000Y-102870000D03*
X123190000Y-102870000D03*
X120650000Y-102870000D03*
D13*
X129887980Y-84508340D03*
X120525540Y-87825580D03*
X118841520Y-84508340D03*
X118714520Y-80010000D03*
X118841520Y-75511660D03*
X120525540Y-72194420D03*
X124523500Y-71193660D03*
X128521460Y-72194420D03*
X129887980Y-75511660D03*
X130014980Y-80010000D03*
X128521460Y-87825580D03*
X124523500Y-88826340D03*
D14*
X124501000Y-80010000D03*
D13*
X150207980Y-84508340D03*
X140845540Y-87825580D03*
X139161520Y-84508340D03*
X139034520Y-80010000D03*
X139161520Y-75511660D03*
X140845540Y-72194420D03*
X144843500Y-71193660D03*
X148841460Y-72194420D03*
X150207980Y-75511660D03*
X150334980Y-80010000D03*
X148841460Y-87825580D03*
X144843500Y-88826340D03*
D14*
X144821000Y-80010000D03*
D15*
X132077100Y-88665100D03*
X127888600Y-98731600D03*
X130810000Y-88234500D03*
D16*
X135503300Y-54223300D02*
X138430000Y-57150000D01*
X118989100Y-54223300D02*
X135503300Y-54223300D01*
X116821000Y-56391400D02*
X118989100Y-54223300D01*
X116821000Y-78116500D02*
X116821000Y-56391400D01*
X118714500Y-80010000D02*
X116821000Y-78116500D01*
X119086000Y-70754900D02*
X120525500Y-72194400D01*
X119086000Y-55824100D02*
X119086000Y-70754900D01*
X119476500Y-55433600D02*
X119086000Y-55824100D01*
X131633600Y-55433600D02*
X119476500Y-55433600D01*
X133350000Y-57150000D02*
X131633600Y-55433600D01*
X130497700Y-61917700D02*
X125730000Y-57150000D01*
X130497700Y-74902000D02*
X130497700Y-61917700D01*
X129888000Y-75511700D02*
X130497700Y-74902000D01*
X126493900Y-62993900D02*
X120650000Y-57150000D01*
X126493900Y-75101600D02*
X126493900Y-62993900D01*
X127998000Y-76605700D02*
X126493900Y-75101600D01*
X127998000Y-83611700D02*
X127998000Y-76605700D01*
X127880800Y-83728900D02*
X127998000Y-83611700D01*
X127880800Y-87184900D02*
X127880800Y-83728900D01*
X128521500Y-87825600D02*
X127880800Y-87184900D01*
X132077100Y-71122900D02*
X132077100Y-88665100D01*
X146050000Y-57150000D02*
X132077100Y-71122900D01*
X122366400Y-104586400D02*
X120650000Y-102870000D01*
X149754200Y-104586400D02*
X122366400Y-104586400D01*
X150862700Y-103477900D02*
X149754200Y-104586400D01*
X150862700Y-85163000D02*
X150862700Y-103477900D01*
X150208000Y-84508300D02*
X150862700Y-85163000D01*
X125730000Y-102870000D02*
X125730000Y-100854000D01*
X125766200Y-100854000D02*
X125730000Y-100854000D01*
X127888600Y-98731600D02*
X125766200Y-100854000D01*
X130810000Y-100854000D02*
X130810000Y-88234500D01*
X130810000Y-102870000D02*
X130810000Y-100854000D01*
X135890000Y-75979600D02*
X135890000Y-102870000D01*
X139675200Y-72194400D02*
X135890000Y-75979600D01*
X140845500Y-72194400D02*
X139675200Y-72194400D01*
X142819400Y-101020600D02*
X140970000Y-102870000D01*
X142819400Y-83463900D02*
X142819400Y-101020600D01*
X141342400Y-81986900D02*
X142819400Y-83463900D01*
X141342400Y-78575900D02*
X141342400Y-81986900D01*
X147723900Y-72194400D02*
X141342400Y-78575900D01*
X148841500Y-72194400D02*
X147723900Y-72194400D01*
X146822000Y-100082000D02*
X146050000Y-100854000D01*
X146822000Y-83523000D02*
X146822000Y-100082000D01*
X150335000Y-80010000D02*
X146822000Y-83523000D01*
X146050000Y-102870000D02*
X146050000Y-100854000D01*
X148841500Y-100602500D02*
X148590000Y-100854000D01*
X148841500Y-87825600D02*
X148841500Y-100602500D01*
X148590000Y-102870000D02*
X148590000Y-100854000D01*
M02*
