G04 #@! TF.FileFunction,Copper,L2,Bot,Signal*
%FSLAX46Y46*%
G04 Gerber Fmt 4.6, Leading zero omitted, Abs format (unit mm)*
G04 Created by KiCad (PCBNEW (2015-10-31 BZR 6288)-product) date Tuesday, November 24, 2015 'PMt' 09:59:33 PM*
%MOMM*%
G01*
G04 APERTURE LIST*
%ADD10C,0.100000*%
%ADD11R,1.727200X2.032000*%
%ADD12O,1.727200X2.032000*%
%ADD13C,2.540000*%
%ADD14C,5.500000*%
%ADD15C,1.000000*%
G04 APERTURE END LIST*
D10*
D11*
X120650000Y-57150000D03*
D12*
X123190000Y-57150000D03*
X125730000Y-57150000D03*
X128270000Y-57150000D03*
X130810000Y-57150000D03*
X133350000Y-57150000D03*
X135890000Y-57150000D03*
X138430000Y-57150000D03*
X140970000Y-57150000D03*
X143510000Y-57150000D03*
X146050000Y-57150000D03*
X148590000Y-57150000D03*
D11*
X148590000Y-102870000D03*
D12*
X146050000Y-102870000D03*
X143510000Y-102870000D03*
X140970000Y-102870000D03*
X138430000Y-102870000D03*
X135890000Y-102870000D03*
X133350000Y-102870000D03*
X130810000Y-102870000D03*
X128270000Y-102870000D03*
X125730000Y-102870000D03*
X123190000Y-102870000D03*
X120650000Y-102870000D03*
D13*
X129887980Y-84508340D03*
X120525540Y-87825580D03*
X118841520Y-84508340D03*
X118714520Y-80010000D03*
X118841520Y-75511660D03*
X120525540Y-72194420D03*
X124523500Y-71193660D03*
X128521460Y-72194420D03*
X129887980Y-75511660D03*
X130014980Y-80010000D03*
X128521460Y-87825580D03*
X124523500Y-88826340D03*
D14*
X124501000Y-80010000D03*
D13*
X150207980Y-84508340D03*
X140845540Y-87825580D03*
X139161520Y-84508340D03*
X139034520Y-80010000D03*
X139161520Y-75511660D03*
X140845540Y-72194420D03*
X144843500Y-71193660D03*
X148841460Y-72194420D03*
X150207980Y-75511660D03*
X150334980Y-80010000D03*
X148841460Y-87825580D03*
X144843500Y-88826340D03*
D14*
X144821000Y-80010000D03*
D15*
X114427400Y-68452600D02*
X125730000Y-57150000D01*
X114427400Y-82939900D02*
X114427400Y-68452600D01*
X119313100Y-87825600D02*
X114427400Y-82939900D01*
X120525500Y-87825600D02*
X119313100Y-87825600D01*
X115631900Y-69788100D02*
X128270000Y-57150000D01*
X115631900Y-81298700D02*
X115631900Y-69788100D01*
X118841500Y-84508300D02*
X115631900Y-81298700D01*
X116862600Y-71097400D02*
X130810000Y-57150000D01*
X116862600Y-78158100D02*
X116862600Y-71097400D01*
X118714500Y-80010000D02*
X116862600Y-78158100D01*
X131531700Y-58968300D02*
X133350000Y-57150000D01*
X130939000Y-58968300D02*
X131531700Y-58968300D01*
X118554900Y-71352400D02*
X130939000Y-58968300D01*
X118554900Y-75225100D02*
X118554900Y-71352400D01*
X118841500Y-75511700D02*
X118554900Y-75225100D01*
X123816700Y-69223300D02*
X135890000Y-57150000D01*
X123496600Y-69223300D02*
X123816700Y-69223300D01*
X120525500Y-72194400D02*
X123496600Y-69223300D01*
X136551200Y-59166000D02*
X138430000Y-59166000D01*
X124523500Y-71193700D02*
X136551200Y-59166000D01*
X138430000Y-57150000D02*
X138430000Y-59166000D01*
X140970000Y-59745900D02*
X140970000Y-57150000D01*
X128521500Y-72194400D02*
X140970000Y-59745900D01*
X143510000Y-61889700D02*
X143510000Y-57150000D01*
X129888000Y-75511700D02*
X143510000Y-61889700D01*
X148590000Y-59631700D02*
X148590000Y-57150000D01*
X130524300Y-77697400D02*
X148590000Y-59631700D01*
X129486900Y-77697400D02*
X130524300Y-77697400D01*
X127998000Y-79186300D02*
X129486900Y-77697400D01*
X127998000Y-83611700D02*
X127998000Y-79186300D01*
X124523500Y-87086200D02*
X127998000Y-83611700D01*
X124523500Y-88826300D02*
X124523500Y-87086200D01*
X124005300Y-104594700D02*
X125730000Y-102870000D01*
X119980700Y-104594700D02*
X124005300Y-104594700D01*
X119058200Y-103672200D02*
X119980700Y-104594700D01*
X119058200Y-101797900D02*
X119058200Y-103672200D01*
X138533500Y-82322600D02*
X119058200Y-101797900D01*
X139543300Y-82322600D02*
X138533500Y-82322600D01*
X141187800Y-80678100D02*
X139543300Y-82322600D01*
X141187800Y-78730500D02*
X141187800Y-80678100D01*
X144406600Y-75511700D02*
X141187800Y-78730500D01*
X150208000Y-75511700D02*
X144406600Y-75511700D01*
X125008300Y-101051700D02*
X123190000Y-102870000D01*
X138404700Y-101051700D02*
X125008300Y-101051700D01*
X152182500Y-87273900D02*
X138404700Y-101051700D01*
X152182500Y-81857500D02*
X152182500Y-87273900D01*
X150335000Y-80010000D02*
X152182500Y-81857500D01*
X130110300Y-93409700D02*
X120650000Y-102870000D01*
X140260100Y-93409700D02*
X130110300Y-93409700D01*
X144843500Y-88826300D02*
X140260100Y-93409700D01*
M02*
