G04 #@! TF.FileFunction,Copper,L2,Bot,Signal*
%FSLAX46Y46*%
G04 Gerber Fmt 4.6, Leading zero omitted, Abs format (unit mm)*
G04 Created by KiCad (PCBNEW (2015-10-31 BZR 6288)-product) date Wednesday, November 04, 2015 'PMt' 07:14:10 PM*
%MOMM*%
G01*
G04 APERTURE LIST*
%ADD10C,0.100000*%
%ADD11R,1.727200X2.032000*%
%ADD12O,1.727200X2.032000*%
%ADD13C,2.540000*%
%ADD14C,5.500000*%
%ADD15C,0.800000*%
%ADD16C,1.000000*%
G04 APERTURE END LIST*
D10*
D11*
X120650000Y-57150000D03*
D12*
X123190000Y-57150000D03*
X125730000Y-57150000D03*
X128270000Y-57150000D03*
X130810000Y-57150000D03*
X133350000Y-57150000D03*
X135890000Y-57150000D03*
X138430000Y-57150000D03*
X140970000Y-57150000D03*
X143510000Y-57150000D03*
X146050000Y-57150000D03*
X148590000Y-57150000D03*
D11*
X148590000Y-102870000D03*
D12*
X146050000Y-102870000D03*
X143510000Y-102870000D03*
X140970000Y-102870000D03*
X138430000Y-102870000D03*
X135890000Y-102870000D03*
X133350000Y-102870000D03*
X130810000Y-102870000D03*
X128270000Y-102870000D03*
X125730000Y-102870000D03*
X123190000Y-102870000D03*
X120650000Y-102870000D03*
D13*
X149826980Y-84508340D03*
X140464540Y-87825580D03*
X138780520Y-84508340D03*
X138653520Y-80010000D03*
X138780520Y-75511660D03*
X140464540Y-72194420D03*
X144462500Y-71193660D03*
X148460460Y-72194420D03*
X149826980Y-75511660D03*
X149953980Y-80010000D03*
X148460460Y-87825580D03*
X144462500Y-88826340D03*
D14*
X144440000Y-80010000D03*
D13*
X130776980Y-84508340D03*
X121414540Y-87825580D03*
X119730520Y-84508340D03*
X119603520Y-80010000D03*
X119730520Y-75511660D03*
X121414540Y-72194420D03*
X125412500Y-71193660D03*
X129410460Y-72194420D03*
X130776980Y-75511660D03*
X130903980Y-80010000D03*
X129410460Y-87825580D03*
X125412500Y-88826340D03*
D14*
X125390000Y-80010000D03*
D15*
X134944300Y-98096300D03*
D16*
X151844100Y-58540500D02*
X150453600Y-57150000D01*
X151844100Y-76295800D02*
X151844100Y-58540500D01*
X150644300Y-77495600D02*
X151844100Y-76295800D01*
X147704200Y-77495600D02*
X150644300Y-77495600D01*
X146768200Y-76559600D02*
X147704200Y-77495600D01*
X142434900Y-76559600D02*
X146768200Y-76559600D01*
X140971900Y-78022600D02*
X142434900Y-76559600D01*
X137262700Y-78022600D02*
X140971900Y-78022600D01*
X130777000Y-84508300D02*
X137262700Y-78022600D01*
X148590000Y-57150000D02*
X150453600Y-57150000D01*
X132952400Y-54212400D02*
X135890000Y-57150000D01*
X118964300Y-54212400D02*
X132952400Y-54212400D01*
X117868000Y-55308700D02*
X118964300Y-54212400D01*
X117868000Y-73649200D02*
X117868000Y-55308700D01*
X119730500Y-75511700D02*
X117868000Y-73649200D01*
X129083200Y-55423200D02*
X130810000Y-57150000D01*
X119451200Y-55423200D02*
X129083200Y-55423200D01*
X119086000Y-55788400D02*
X119451200Y-55423200D01*
X119086000Y-64867200D02*
X119086000Y-55788400D01*
X125412500Y-71193700D02*
X119086000Y-64867200D01*
X128270000Y-71053900D02*
X128270000Y-57150000D01*
X129410500Y-72194400D02*
X128270000Y-71053900D01*
X146050000Y-63035200D02*
X146050000Y-57150000D01*
X131387800Y-77697400D02*
X146050000Y-63035200D01*
X130375900Y-77697400D02*
X131387800Y-77697400D01*
X128887000Y-79186300D02*
X130375900Y-77697400D01*
X128887000Y-83611700D02*
X128887000Y-79186300D01*
X125412500Y-87086200D02*
X128887000Y-83611700D01*
X125412500Y-88826300D02*
X125412500Y-87086200D01*
X128913300Y-94606700D02*
X120650000Y-102870000D01*
X136478000Y-94606700D02*
X128913300Y-94606700D01*
X142492100Y-88592600D02*
X136478000Y-94606700D01*
X142492100Y-88010100D02*
X142492100Y-88592600D01*
X145993900Y-84508300D02*
X142492100Y-88010100D01*
X149827000Y-84508300D02*
X145993900Y-84508300D01*
X124009200Y-104590800D02*
X125730000Y-102870000D01*
X119997400Y-104590800D02*
X124009200Y-104590800D01*
X119047600Y-103641000D02*
X119997400Y-104590800D01*
X119047600Y-102031300D02*
X119047600Y-103641000D01*
X128177700Y-92901200D02*
X119047600Y-102031300D01*
X135388900Y-92901200D02*
X128177700Y-92901200D01*
X140464500Y-87825600D02*
X135388900Y-92901200D01*
X125348900Y-105791100D02*
X128270000Y-102870000D01*
X119500200Y-105791100D02*
X125348900Y-105791100D01*
X117847300Y-104138200D02*
X119500200Y-105791100D01*
X117847300Y-101534100D02*
X117847300Y-104138200D01*
X127680600Y-91700800D02*
X117847300Y-101534100D01*
X131588000Y-91700800D02*
X127680600Y-91700800D01*
X138780500Y-84508300D02*
X131588000Y-91700800D01*
X130810000Y-102870000D02*
X130810000Y-100854000D01*
X132186600Y-100854000D02*
X134944300Y-98096300D01*
X130810000Y-100854000D02*
X132186600Y-100854000D01*
X146050000Y-93048700D02*
X146050000Y-102870000D01*
X151813500Y-87285200D02*
X146050000Y-93048700D01*
X151813500Y-81869500D02*
X151813500Y-87285200D01*
X149954000Y-80010000D02*
X151813500Y-81869500D01*
X129454000Y-96606000D02*
X123190000Y-102870000D01*
X136682800Y-96606000D02*
X129454000Y-96606000D01*
X144462500Y-88826300D02*
X136682800Y-96606000D01*
M02*
