G04 #@! TF.FileFunction,Legend,Top*
%FSLAX46Y46*%
G04 Gerber Fmt 4.6, Leading zero omitted, Abs format (unit mm)*
G04 Created by KiCad (PCBNEW (2015-10-31 BZR 6288)-product) date Wednesday, November 04, 2015 'PMt' 06:10:20 PM*
%MOMM*%
G01*
G04 APERTURE LIST*
%ADD10C,0.100000*%
%ADD11C,0.150000*%
%ADD12C,0.254000*%
%ADD13C,0.063500*%
%ADD14C,0.127000*%
G04 APERTURE END LIST*
D10*
D11*
X121920000Y-55880000D02*
X149860000Y-55880000D01*
X149860000Y-55880000D02*
X149860000Y-58420000D01*
X149860000Y-58420000D02*
X121920000Y-58420000D01*
X119100000Y-55600000D02*
X120650000Y-55600000D01*
X121920000Y-55880000D02*
X121920000Y-58420000D01*
X120650000Y-58700000D02*
X119100000Y-58700000D01*
X119100000Y-58700000D02*
X119100000Y-55600000D01*
X147320000Y-104140000D02*
X119380000Y-104140000D01*
X119380000Y-104140000D02*
X119380000Y-101600000D01*
X119380000Y-101600000D02*
X147320000Y-101600000D01*
X150140000Y-104420000D02*
X148590000Y-104420000D01*
X147320000Y-104140000D02*
X147320000Y-101600000D01*
X148590000Y-101320000D02*
X150140000Y-101320000D01*
X150140000Y-101320000D02*
X150140000Y-104420000D01*
D12*
X133667500Y-73342500D02*
X133667500Y-86360000D01*
X116840000Y-86199980D02*
X116840000Y-73342500D01*
X116840000Y-86199980D02*
X116840000Y-86360000D01*
D13*
X127526051Y-80010000D02*
G75*
G03X127526051Y-80010000I-1796051J0D01*
G01*
D14*
X127497314Y-80010000D02*
G75*
G03X127497314Y-80010000I-1767314J0D01*
G01*
X123230640Y-80010000D02*
X128229360Y-80010000D01*
X125730000Y-82509360D02*
X125730000Y-77510640D01*
X133659982Y-73329719D02*
G75*
G03X116840000Y-73342500I-8404962J-6624401D01*
G01*
X116842035Y-86359295D02*
G75*
G03X133667500Y-86360000I8412985J6011475D01*
G01*
D12*
X116849179Y-86369623D02*
G75*
G03X133667500Y-86360000I8405841J5805903D01*
G01*
X133659063Y-73328373D02*
G75*
G03X116840000Y-73342500I-8404043J-6541927D01*
G01*
X152717500Y-73342500D02*
X152717500Y-86360000D01*
X135890000Y-86199980D02*
X135890000Y-73342500D01*
X135890000Y-86199980D02*
X135890000Y-86360000D01*
D13*
X146576051Y-80010000D02*
G75*
G03X146576051Y-80010000I-1796051J0D01*
G01*
D14*
X146547314Y-80010000D02*
G75*
G03X146547314Y-80010000I-1767314J0D01*
G01*
X142280640Y-80010000D02*
X147279360Y-80010000D01*
X144780000Y-82509360D02*
X144780000Y-77510640D01*
X152709982Y-73329719D02*
G75*
G03X135890000Y-73342500I-8404962J-6624401D01*
G01*
X135892035Y-86359295D02*
G75*
G03X152717500Y-86360000I8412985J6011475D01*
G01*
D12*
X135899179Y-86369623D02*
G75*
G03X152717500Y-86360000I8405841J5805903D01*
G01*
X152709063Y-73328373D02*
G75*
G03X135890000Y-73342500I-8404043J-6541927D01*
G01*
D11*
X116002381Y-57888095D02*
X115002381Y-57888095D01*
X115002381Y-57507142D01*
X115050000Y-57411904D01*
X115097619Y-57364285D01*
X115192857Y-57316666D01*
X115335714Y-57316666D01*
X115430952Y-57364285D01*
X115478571Y-57411904D01*
X115526190Y-57507142D01*
X115526190Y-57888095D01*
X116002381Y-56364285D02*
X116002381Y-56935714D01*
X116002381Y-56650000D02*
X115002381Y-56650000D01*
X115145238Y-56745238D01*
X115240476Y-56840476D01*
X115288095Y-56935714D01*
X154142381Y-103608095D02*
X153142381Y-103608095D01*
X153142381Y-103227142D01*
X153190000Y-103131904D01*
X153237619Y-103084285D01*
X153332857Y-103036666D01*
X153475714Y-103036666D01*
X153570952Y-103084285D01*
X153618571Y-103131904D01*
X153666190Y-103227142D01*
X153666190Y-103608095D01*
X153237619Y-102655714D02*
X153190000Y-102608095D01*
X153142381Y-102512857D01*
X153142381Y-102274761D01*
X153190000Y-102179523D01*
X153237619Y-102131904D01*
X153332857Y-102084285D01*
X153428095Y-102084285D01*
X153570952Y-102131904D01*
X154142381Y-102703333D01*
X154142381Y-102084285D01*
X121774857Y-80699429D02*
X121774857Y-79175429D01*
X122500571Y-80699429D02*
X122500571Y-79175429D01*
X123371428Y-80699429D01*
X123371428Y-79175429D01*
X124097142Y-80118857D02*
X125258285Y-80118857D01*
X126782285Y-80699429D02*
X125911428Y-80699429D01*
X126346856Y-80699429D02*
X126346856Y-79175429D01*
X126201713Y-79393143D01*
X126056571Y-79538286D01*
X125911428Y-79610857D01*
X127362857Y-79320571D02*
X127435428Y-79248000D01*
X127580571Y-79175429D01*
X127943428Y-79175429D01*
X128088571Y-79248000D01*
X128161142Y-79320571D01*
X128233714Y-79465714D01*
X128233714Y-79610857D01*
X128161142Y-79828571D01*
X127290285Y-80699429D01*
X128233714Y-80699429D01*
X129394857Y-79901143D02*
X129612571Y-79973714D01*
X129685143Y-80046286D01*
X129757714Y-80191429D01*
X129757714Y-80409143D01*
X129685143Y-80554286D01*
X129612571Y-80626857D01*
X129467429Y-80699429D01*
X128886857Y-80699429D01*
X128886857Y-79175429D01*
X129394857Y-79175429D01*
X129540000Y-79248000D01*
X129612571Y-79320571D01*
X129685143Y-79465714D01*
X129685143Y-79610857D01*
X129612571Y-79756000D01*
X129540000Y-79828571D01*
X129394857Y-79901143D01*
X128886857Y-79901143D01*
X140824857Y-80699429D02*
X140824857Y-79175429D01*
X141550571Y-80699429D02*
X141550571Y-79175429D01*
X142421428Y-80699429D01*
X142421428Y-79175429D01*
X143147142Y-80118857D02*
X144308285Y-80118857D01*
X145832285Y-80699429D02*
X144961428Y-80699429D01*
X145396856Y-80699429D02*
X145396856Y-79175429D01*
X145251713Y-79393143D01*
X145106571Y-79538286D01*
X144961428Y-79610857D01*
X146412857Y-79320571D02*
X146485428Y-79248000D01*
X146630571Y-79175429D01*
X146993428Y-79175429D01*
X147138571Y-79248000D01*
X147211142Y-79320571D01*
X147283714Y-79465714D01*
X147283714Y-79610857D01*
X147211142Y-79828571D01*
X146340285Y-80699429D01*
X147283714Y-80699429D01*
X148444857Y-79901143D02*
X148662571Y-79973714D01*
X148735143Y-80046286D01*
X148807714Y-80191429D01*
X148807714Y-80409143D01*
X148735143Y-80554286D01*
X148662571Y-80626857D01*
X148517429Y-80699429D01*
X147936857Y-80699429D01*
X147936857Y-79175429D01*
X148444857Y-79175429D01*
X148590000Y-79248000D01*
X148662571Y-79320571D01*
X148735143Y-79465714D01*
X148735143Y-79610857D01*
X148662571Y-79756000D01*
X148590000Y-79828571D01*
X148444857Y-79901143D01*
X147936857Y-79901143D01*
M02*
