G04 #@! TF.FileFunction,Legend,Top*
%FSLAX46Y46*%
G04 Gerber Fmt 4.6, Leading zero omitted, Abs format (unit mm)*
G04 Created by KiCad (PCBNEW (2015-10-31 BZR 6288)-product) date Wednesday, November 04, 2015 'PMt' 07:14:10 PM*
%MOMM*%
G01*
G04 APERTURE LIST*
%ADD10C,0.100000*%
%ADD11C,0.150000*%
%ADD12C,0.254000*%
%ADD13C,0.127000*%
G04 APERTURE END LIST*
D10*
D11*
X121920000Y-55880000D02*
X149860000Y-55880000D01*
X149860000Y-55880000D02*
X149860000Y-58420000D01*
X149860000Y-58420000D02*
X121920000Y-58420000D01*
X119100000Y-55600000D02*
X120650000Y-55600000D01*
X121920000Y-55880000D02*
X121920000Y-58420000D01*
X120650000Y-58700000D02*
X119100000Y-58700000D01*
X119100000Y-58700000D02*
X119100000Y-55600000D01*
X147320000Y-104140000D02*
X119380000Y-104140000D01*
X119380000Y-104140000D02*
X119380000Y-101600000D01*
X119380000Y-101600000D02*
X147320000Y-101600000D01*
X150140000Y-104420000D02*
X148590000Y-104420000D01*
X147320000Y-104140000D02*
X147320000Y-101600000D01*
X148590000Y-101320000D02*
X150140000Y-101320000D01*
X150140000Y-101320000D02*
X150140000Y-104420000D01*
D12*
X152717500Y-73342500D02*
X152717500Y-86360000D01*
X135890000Y-86199980D02*
X135890000Y-73342500D01*
X135890000Y-86199980D02*
X135890000Y-86360000D01*
D13*
X152709982Y-73329719D02*
G75*
G03X135890000Y-73342500I-8404962J-6624401D01*
G01*
X135892035Y-86359295D02*
G75*
G03X152717500Y-86360000I8412985J6011475D01*
G01*
D12*
X135899179Y-86369623D02*
G75*
G03X152717500Y-86360000I8405841J5805903D01*
G01*
X152709063Y-73328373D02*
G75*
G03X135890000Y-73342500I-8404043J-6541927D01*
G01*
X133667500Y-73342500D02*
X133667500Y-86360000D01*
X116840000Y-86199980D02*
X116840000Y-73342500D01*
X116840000Y-86199980D02*
X116840000Y-86360000D01*
D13*
X133659982Y-73329719D02*
G75*
G03X116840000Y-73342500I-8404962J-6624401D01*
G01*
X116842035Y-86359295D02*
G75*
G03X133667500Y-86360000I8412985J6011475D01*
G01*
D12*
X116849179Y-86369623D02*
G75*
G03X133667500Y-86360000I8405841J5805903D01*
G01*
X133659063Y-73328373D02*
G75*
G03X116840000Y-73342500I-8404043J-6541927D01*
G01*
D11*
X116002381Y-57888095D02*
X115002381Y-57888095D01*
X115002381Y-57507142D01*
X115050000Y-57411904D01*
X115097619Y-57364285D01*
X115192857Y-57316666D01*
X115335714Y-57316666D01*
X115430952Y-57364285D01*
X115478571Y-57411904D01*
X115526190Y-57507142D01*
X115526190Y-57888095D01*
X116002381Y-56364285D02*
X116002381Y-56935714D01*
X116002381Y-56650000D02*
X115002381Y-56650000D01*
X115145238Y-56745238D01*
X115240476Y-56840476D01*
X115288095Y-56935714D01*
X154142381Y-103608095D02*
X153142381Y-103608095D01*
X153142381Y-103227142D01*
X153190000Y-103131904D01*
X153237619Y-103084285D01*
X153332857Y-103036666D01*
X153475714Y-103036666D01*
X153570952Y-103084285D01*
X153618571Y-103131904D01*
X153666190Y-103227142D01*
X153666190Y-103608095D01*
X153237619Y-102655714D02*
X153190000Y-102608095D01*
X153142381Y-102512857D01*
X153142381Y-102274761D01*
X153190000Y-102179523D01*
X153237619Y-102131904D01*
X153332857Y-102084285D01*
X153428095Y-102084285D01*
X153570952Y-102131904D01*
X154142381Y-102703333D01*
X154142381Y-102084285D01*
X140316857Y-76254429D02*
X140316857Y-74730429D01*
X141042571Y-76254429D02*
X141042571Y-74730429D01*
X141913428Y-76254429D01*
X141913428Y-74730429D01*
X142639142Y-75673857D02*
X143800285Y-75673857D01*
X145324285Y-76254429D02*
X144453428Y-76254429D01*
X144888856Y-76254429D02*
X144888856Y-74730429D01*
X144743713Y-74948143D01*
X144598571Y-75093286D01*
X144453428Y-75165857D01*
X145904857Y-74875571D02*
X145977428Y-74803000D01*
X146122571Y-74730429D01*
X146485428Y-74730429D01*
X146630571Y-74803000D01*
X146703142Y-74875571D01*
X146775714Y-75020714D01*
X146775714Y-75165857D01*
X146703142Y-75383571D01*
X145832285Y-76254429D01*
X146775714Y-76254429D01*
X147936857Y-75456143D02*
X148154571Y-75528714D01*
X148227143Y-75601286D01*
X148299714Y-75746429D01*
X148299714Y-75964143D01*
X148227143Y-76109286D01*
X148154571Y-76181857D01*
X148009429Y-76254429D01*
X147428857Y-76254429D01*
X147428857Y-74730429D01*
X147936857Y-74730429D01*
X148082000Y-74803000D01*
X148154571Y-74875571D01*
X148227143Y-75020714D01*
X148227143Y-75165857D01*
X148154571Y-75311000D01*
X148082000Y-75383571D01*
X147936857Y-75456143D01*
X147428857Y-75456143D01*
X121266857Y-76254429D02*
X121266857Y-74730429D01*
X121992571Y-76254429D02*
X121992571Y-74730429D01*
X122863428Y-76254429D01*
X122863428Y-74730429D01*
X123589142Y-75673857D02*
X124750285Y-75673857D01*
X126274285Y-76254429D02*
X125403428Y-76254429D01*
X125838856Y-76254429D02*
X125838856Y-74730429D01*
X125693713Y-74948143D01*
X125548571Y-75093286D01*
X125403428Y-75165857D01*
X126854857Y-74875571D02*
X126927428Y-74803000D01*
X127072571Y-74730429D01*
X127435428Y-74730429D01*
X127580571Y-74803000D01*
X127653142Y-74875571D01*
X127725714Y-75020714D01*
X127725714Y-75165857D01*
X127653142Y-75383571D01*
X126782285Y-76254429D01*
X127725714Y-76254429D01*
X128886857Y-75456143D02*
X129104571Y-75528714D01*
X129177143Y-75601286D01*
X129249714Y-75746429D01*
X129249714Y-75964143D01*
X129177143Y-76109286D01*
X129104571Y-76181857D01*
X128959429Y-76254429D01*
X128378857Y-76254429D01*
X128378857Y-74730429D01*
X128886857Y-74730429D01*
X129032000Y-74803000D01*
X129104571Y-74875571D01*
X129177143Y-75020714D01*
X129177143Y-75165857D01*
X129104571Y-75311000D01*
X129032000Y-75383571D01*
X128886857Y-75456143D01*
X128378857Y-75456143D01*
M02*
