M48
INCH,TZ
T1C0.024
T2C0.040
T3C0.063
T4C0.187
%
G90
G05
T1
X53128Y-38621
T2
X47500Y-22500
X47500Y-40500
X48500Y-22500
X48500Y-40500
X49500Y-22500
X49500Y-40500
X50500Y-22500
X50500Y-40500
X51500Y-22500
X51500Y-40500
X52500Y-22500
X52500Y-40500
X53500Y-22500
X53500Y-40500
X54500Y-22500
X54500Y-40500
X55500Y-22500
X55500Y-40500
X56500Y-22500
X56500Y-40500
X57500Y-22500
X57500Y-40500
X58500Y-22500
X58500Y-40500
T3
X47088Y-31500
X47138Y-29729
X47138Y-33271
X47801Y-28423
X47801Y-34577
X49375Y-28029
X49375Y-34971
X50949Y-28423
X50949Y-34577
X51487Y-29729
X51487Y-33271
X51537Y-31500
X54588Y-31500
X54638Y-29729
X54638Y-33271
X55301Y-28423
X55301Y-34577
X56875Y-28029
X56875Y-34971
X58449Y-28423
X58449Y-34577
X58987Y-29729
X58987Y-33271
X59037Y-31500
T4
X49366Y-31500
X56866Y-31500
T0
M30
