G04 #@! TF.FileFunction,Copper,L2,Bot,Signal*
%FSLAX46Y46*%
G04 Gerber Fmt 4.6, Leading zero omitted, Abs format (unit mm)*
G04 Created by KiCad (PCBNEW (2015-10-31 BZR 6288)-product) date Wednesday, November 04, 2015 'PMt' 06:10:20 PM*
%MOMM*%
G01*
G04 APERTURE LIST*
%ADD10C,0.100000*%
%ADD11R,1.727200X2.032000*%
%ADD12O,1.727200X2.032000*%
%ADD13C,2.540000*%
%ADD14C,5.500000*%
%ADD15C,0.800000*%
%ADD16C,1.000000*%
G04 APERTURE END LIST*
D10*
D11*
X120650000Y-57150000D03*
D12*
X123190000Y-57150000D03*
X125730000Y-57150000D03*
X128270000Y-57150000D03*
X130810000Y-57150000D03*
X133350000Y-57150000D03*
X135890000Y-57150000D03*
X138430000Y-57150000D03*
X140970000Y-57150000D03*
X143510000Y-57150000D03*
X146050000Y-57150000D03*
X148590000Y-57150000D03*
D11*
X148590000Y-102870000D03*
D12*
X146050000Y-102870000D03*
X143510000Y-102870000D03*
X140970000Y-102870000D03*
X138430000Y-102870000D03*
X135890000Y-102870000D03*
X133350000Y-102870000D03*
X130810000Y-102870000D03*
X128270000Y-102870000D03*
X125730000Y-102870000D03*
X123190000Y-102870000D03*
X120650000Y-102870000D03*
D13*
X130776980Y-84508340D03*
X121414540Y-87825580D03*
X119730520Y-84508340D03*
X119603520Y-80010000D03*
X119730520Y-75511660D03*
X121414540Y-72194420D03*
X125412500Y-71193660D03*
X129410460Y-72194420D03*
X130776980Y-75511660D03*
X130903980Y-80010000D03*
X129410460Y-87825580D03*
X125412500Y-88826340D03*
D14*
X125730000Y-80010000D03*
D13*
X149826980Y-84508340D03*
X140464540Y-87825580D03*
X138780520Y-84508340D03*
X138653520Y-80010000D03*
X138780520Y-75511660D03*
X140464540Y-72194420D03*
X144462500Y-71193660D03*
X148460460Y-72194420D03*
X149826980Y-75511660D03*
X149953980Y-80010000D03*
X148460460Y-87825580D03*
X144462500Y-88826340D03*
D14*
X144780000Y-80010000D03*
D15*
X129760300Y-62632000D03*
X129044600Y-65052500D03*
X124119800Y-65549800D03*
X148553300Y-91695200D03*
D16*
X122184500Y-87055600D02*
X121414500Y-87825600D01*
X122184500Y-78606300D02*
X122184500Y-87055600D01*
X124272200Y-76518600D02*
X122184500Y-78606300D01*
X127950800Y-76518600D02*
X124272200Y-76518600D01*
X128939800Y-77507600D02*
X127950800Y-76518600D01*
X131568400Y-77507600D02*
X128939800Y-77507600D01*
X132978600Y-76097400D02*
X131568400Y-77507600D01*
X132978600Y-67681400D02*
X132978600Y-76097400D01*
X143510000Y-57150000D02*
X132978600Y-67681400D01*
X117620200Y-82398000D02*
X119730500Y-84508300D01*
X117620200Y-57243200D02*
X117620200Y-82398000D01*
X119429800Y-55433600D02*
X117620200Y-57243200D01*
X139253600Y-55433600D02*
X119429800Y-55433600D01*
X140970000Y-57150000D02*
X139253600Y-55433600D01*
X138430000Y-57150000D02*
X138430000Y-59166000D01*
X138326000Y-59166000D02*
X138430000Y-59166000D01*
X138326000Y-59166100D02*
X138326000Y-59166000D01*
X127440200Y-70051900D02*
X138326000Y-59166100D01*
X127440200Y-72011700D02*
X127440200Y-70051900D01*
X126287800Y-73164100D02*
X127440200Y-72011700D01*
X125865300Y-73164100D02*
X126287800Y-73164100D01*
X119603500Y-79425900D02*
X125865300Y-73164100D01*
X119603500Y-80010000D02*
X119603500Y-79425900D01*
X135890000Y-57150000D02*
X135890000Y-59166000D01*
X135890000Y-59904600D02*
X135890000Y-59166000D01*
X128754500Y-67040100D02*
X135890000Y-59904600D01*
X123773800Y-67040100D02*
X128754500Y-67040100D01*
X119389300Y-71424600D02*
X123773800Y-67040100D01*
X119389300Y-75170500D02*
X119389300Y-71424600D01*
X119730500Y-75511700D02*
X119389300Y-75170500D01*
X130810000Y-61582300D02*
X129760300Y-62632000D01*
X130810000Y-57150000D02*
X130810000Y-61582300D01*
X128270000Y-64277900D02*
X129044600Y-65052500D01*
X128270000Y-59166000D02*
X128270000Y-64277900D01*
X128270000Y-57150000D02*
X128270000Y-59166000D01*
X125730000Y-57150000D02*
X125730000Y-59166000D01*
X124119800Y-60776200D02*
X124119800Y-65549800D01*
X125730000Y-59166000D02*
X124119800Y-60776200D01*
X126408000Y-89821800D02*
X125412500Y-88826300D01*
X130209200Y-89821800D02*
X126408000Y-89821800D01*
X134778800Y-85252200D02*
X130209200Y-89821800D01*
X134778800Y-68421200D02*
X134778800Y-85252200D01*
X146050000Y-57150000D02*
X134778800Y-68421200D01*
X145990100Y-84508300D02*
X149827000Y-84508300D01*
X142434900Y-88063500D02*
X145990100Y-84508300D01*
X142434900Y-88641900D02*
X142434900Y-88063500D01*
X138688700Y-92388100D02*
X142434900Y-88641900D01*
X131131900Y-92388100D02*
X138688700Y-92388100D01*
X120650000Y-102870000D02*
X131131900Y-92388100D01*
X137262500Y-84508300D02*
X138780500Y-84508300D01*
X129272300Y-92498500D02*
X137262500Y-84508300D01*
X128657200Y-92498500D02*
X129272300Y-92498500D01*
X119069200Y-102086500D02*
X128657200Y-92498500D01*
X119069200Y-103675600D02*
X119069200Y-102086500D01*
X119988700Y-104595100D02*
X119069200Y-103675600D01*
X126544900Y-104595100D02*
X119988700Y-104595100D01*
X128270000Y-102870000D02*
X126544900Y-104595100D01*
X153071500Y-78756200D02*
X149827000Y-75511700D01*
X153071500Y-101314900D02*
X153071500Y-78756200D01*
X149800000Y-104586400D02*
X153071500Y-101314900D01*
X145226400Y-104586400D02*
X149800000Y-104586400D01*
X143510000Y-102870000D02*
X145226400Y-104586400D01*
X146050000Y-92501100D02*
X146050000Y-100854000D01*
X148754900Y-89796200D02*
X146050000Y-92501100D01*
X149280700Y-89796200D02*
X148754900Y-89796200D01*
X151824600Y-87252300D02*
X149280700Y-89796200D01*
X151824600Y-81880600D02*
X151824600Y-87252300D01*
X149954000Y-80010000D02*
X151824600Y-81880600D01*
X146050000Y-102870000D02*
X146050000Y-100854000D01*
X148590000Y-102870000D02*
X148590000Y-100854000D01*
X148590000Y-91731900D02*
X148553300Y-91695200D01*
X148590000Y-100854000D02*
X148590000Y-91731900D01*
X130728400Y-95331600D02*
X123190000Y-102870000D01*
X137957200Y-95331600D02*
X130728400Y-95331600D01*
X144462500Y-88826300D02*
X137957200Y-95331600D01*
M02*
