M48
INCH,TZ
T1C0.040
T2C0.063
T3C0.187
%
G90
G05
T1
X47500Y-22500
X47500Y-40500
X48500Y-22500
X48500Y-40500
X49500Y-22500
X49500Y-40500
X50500Y-22500
X50500Y-40500
X51500Y-22500
X51500Y-40500
X52500Y-22500
X52500Y-40500
X53500Y-22500
X53500Y-40500
X54500Y-22500
X54500Y-40500
X55500Y-22500
X55500Y-40500
X56500Y-22500
X56500Y-40500
X57500Y-22500
X57500Y-40500
X58500Y-22500
X58500Y-40500
T2
X46738Y-31500
X46788Y-29729
X46788Y-33271
X47451Y-28423
X47451Y-34577
X49025Y-28029
X49025Y-34971
X50599Y-28423
X50599Y-34577
X51137Y-29729
X51137Y-33271
X51187Y-31500
X54738Y-31500
X54788Y-29729
X54788Y-33271
X55451Y-28423
X55451Y-34577
X57025Y-28029
X57025Y-34971
X58599Y-28423
X58599Y-34577
X59137Y-29729
X59137Y-33271
X59187Y-31500
T3
X49016Y-31500
X57016Y-31500
T0
M30
