G04 #@! TF.FileFunction,Copper,L1,Top,Signal*
%FSLAX46Y46*%
G04 Gerber Fmt 4.6, Leading zero omitted, Abs format (unit mm)*
G04 Created by KiCad (PCBNEW (2015-10-31 BZR 6288)-product) date Wednesday, November 04, 2015 'PMt' 06:10:20 PM*
%MOMM*%
G01*
G04 APERTURE LIST*
%ADD10C,0.100000*%
%ADD11R,1.727200X2.032000*%
%ADD12O,1.727200X2.032000*%
%ADD13C,2.540000*%
%ADD14C,5.500000*%
%ADD15C,0.800000*%
%ADD16C,1.000000*%
G04 APERTURE END LIST*
D10*
D11*
X120650000Y-57150000D03*
D12*
X123190000Y-57150000D03*
X125730000Y-57150000D03*
X128270000Y-57150000D03*
X130810000Y-57150000D03*
X133350000Y-57150000D03*
X135890000Y-57150000D03*
X138430000Y-57150000D03*
X140970000Y-57150000D03*
X143510000Y-57150000D03*
X146050000Y-57150000D03*
X148590000Y-57150000D03*
D11*
X148590000Y-102870000D03*
D12*
X146050000Y-102870000D03*
X143510000Y-102870000D03*
X140970000Y-102870000D03*
X138430000Y-102870000D03*
X135890000Y-102870000D03*
X133350000Y-102870000D03*
X130810000Y-102870000D03*
X128270000Y-102870000D03*
X125730000Y-102870000D03*
X123190000Y-102870000D03*
X120650000Y-102870000D03*
D13*
X130776980Y-84508340D03*
X121414540Y-87825580D03*
X119730520Y-84508340D03*
X119603520Y-80010000D03*
X119730520Y-75511660D03*
X121414540Y-72194420D03*
X125412500Y-71193660D03*
X129410460Y-72194420D03*
X130776980Y-75511660D03*
X130903980Y-80010000D03*
X129410460Y-87825580D03*
X125412500Y-88826340D03*
D14*
X125730000Y-80010000D03*
D13*
X149826980Y-84508340D03*
X140464540Y-87825580D03*
X138780520Y-84508340D03*
X138653520Y-80010000D03*
X138780520Y-75511660D03*
X140464540Y-72194420D03*
X144462500Y-71193660D03*
X148460460Y-72194420D03*
X149826980Y-75511660D03*
X149953980Y-80010000D03*
X148460460Y-87825580D03*
X144462500Y-88826340D03*
D14*
X144780000Y-80010000D03*
D15*
X129760300Y-62632000D03*
X129044600Y-65052500D03*
X124119800Y-65549800D03*
X148553300Y-91695200D03*
D16*
X134259400Y-81025900D02*
X130777000Y-84508300D01*
X134259400Y-71480600D02*
X134259400Y-81025900D01*
X148590000Y-57150000D02*
X134259400Y-71480600D01*
X121414500Y-66543600D02*
X121414500Y-72194400D01*
X123956200Y-64001900D02*
X121414500Y-66543600D01*
X126498100Y-64001900D02*
X123956200Y-64001900D01*
X133350000Y-57150000D02*
X126498100Y-64001900D01*
X125412500Y-66979800D02*
X125412500Y-71193700D01*
X129760300Y-62632000D02*
X125412500Y-66979800D01*
X129410500Y-65418400D02*
X129410500Y-72194400D01*
X129044600Y-65052500D02*
X129410500Y-65418400D01*
X123413500Y-66256100D02*
X124119800Y-65549800D01*
X123413500Y-71988000D02*
X123413500Y-66256100D01*
X126937200Y-75511700D02*
X123413500Y-71988000D01*
X130777000Y-75511700D02*
X126937200Y-75511700D01*
X127386000Y-83528000D02*
X130904000Y-80010000D01*
X124344100Y-83528000D02*
X127386000Y-83528000D01*
X121744700Y-80928600D02*
X124344100Y-83528000D01*
X121744700Y-79286500D02*
X121744700Y-80928600D01*
X120282500Y-77824300D02*
X121744700Y-79286500D01*
X119214800Y-77824300D02*
X120282500Y-77824300D01*
X117742000Y-76351500D02*
X119214800Y-77824300D01*
X117742000Y-64614000D02*
X117742000Y-76351500D01*
X123190000Y-59166000D02*
X117742000Y-64614000D01*
X123190000Y-57150000D02*
X123190000Y-59166000D01*
X128063600Y-86478700D02*
X129410500Y-87825600D01*
X125362500Y-86478700D02*
X128063600Y-86478700D01*
X121079500Y-82195700D02*
X125362500Y-86478700D01*
X118998400Y-82195700D02*
X121079500Y-82195700D01*
X116523400Y-79720700D02*
X118998400Y-82195700D01*
X116523400Y-59413000D02*
X116523400Y-79720700D01*
X118786400Y-57150000D02*
X116523400Y-59413000D01*
X120650000Y-57150000D02*
X118786400Y-57150000D01*
X127436100Y-100854000D02*
X140464500Y-87825600D01*
X125730000Y-100854000D02*
X127436100Y-100854000D01*
X125730000Y-102870000D02*
X125730000Y-100854000D01*
X142443600Y-89220400D02*
X130810000Y-100854000D01*
X142443600Y-83800100D02*
X142443600Y-89220400D01*
X138653500Y-80010000D02*
X142443600Y-83800100D01*
X130810000Y-102870000D02*
X130810000Y-100854000D01*
X136252600Y-78039600D02*
X138780500Y-75511700D01*
X136252600Y-84889400D02*
X136252600Y-78039600D01*
X119081600Y-102060400D02*
X136252600Y-84889400D01*
X119081600Y-103695900D02*
X119081600Y-102060400D01*
X120002200Y-104616500D02*
X119081600Y-103695900D01*
X131603500Y-104616500D02*
X120002200Y-104616500D01*
X133350000Y-102870000D02*
X131603500Y-104616500D01*
X145822800Y-92937200D02*
X135890000Y-102870000D01*
X149092300Y-92937200D02*
X145822800Y-92937200D01*
X151973500Y-90056000D02*
X149092300Y-92937200D01*
X151973500Y-79193800D02*
X151973500Y-90056000D01*
X150819300Y-78039600D02*
X151973500Y-79193800D01*
X148521800Y-78039600D02*
X150819300Y-78039600D01*
X142676600Y-72194400D02*
X148521800Y-78039600D01*
X140464500Y-72194400D02*
X142676600Y-72194400D01*
X145448300Y-70207900D02*
X144462500Y-71193700D01*
X149309100Y-70207900D02*
X145448300Y-70207900D01*
X154400200Y-75299000D02*
X149309100Y-70207900D01*
X154400200Y-99978200D02*
X154400200Y-75299000D01*
X149792000Y-104586400D02*
X154400200Y-99978200D01*
X140146400Y-104586400D02*
X149792000Y-104586400D01*
X138430000Y-102870000D02*
X140146400Y-104586400D01*
X149313500Y-72194400D02*
X148460500Y-72194400D01*
X153199800Y-76080700D02*
X149313500Y-72194400D01*
X153199800Y-90640200D02*
X153199800Y-76080700D01*
X140970000Y-102870000D02*
X153199800Y-90640200D01*
X148460500Y-91602400D02*
X148460500Y-87825600D01*
X148553300Y-91695200D02*
X148460500Y-91602400D01*
M02*
