G04 #@! TF.FileFunction,Copper,L1,Top,Signal*
%FSLAX46Y46*%
G04 Gerber Fmt 4.6, Leading zero omitted, Abs format (unit mm)*
G04 Created by KiCad (PCBNEW (2015-10-31 BZR 6288)-product) date Tuesday, November 24, 2015 'PMt' 09:59:33 PM*
%MOMM*%
G01*
G04 APERTURE LIST*
%ADD10C,0.100000*%
%ADD11R,1.727200X2.032000*%
%ADD12O,1.727200X2.032000*%
%ADD13C,2.540000*%
%ADD14C,5.500000*%
%ADD15C,1.000000*%
G04 APERTURE END LIST*
D10*
D11*
X120650000Y-57150000D03*
D12*
X123190000Y-57150000D03*
X125730000Y-57150000D03*
X128270000Y-57150000D03*
X130810000Y-57150000D03*
X133350000Y-57150000D03*
X135890000Y-57150000D03*
X138430000Y-57150000D03*
X140970000Y-57150000D03*
X143510000Y-57150000D03*
X146050000Y-57150000D03*
X148590000Y-57150000D03*
D11*
X148590000Y-102870000D03*
D12*
X146050000Y-102870000D03*
X143510000Y-102870000D03*
X140970000Y-102870000D03*
X138430000Y-102870000D03*
X135890000Y-102870000D03*
X133350000Y-102870000D03*
X130810000Y-102870000D03*
X128270000Y-102870000D03*
X125730000Y-102870000D03*
X123190000Y-102870000D03*
X120650000Y-102870000D03*
D13*
X129887980Y-84508340D03*
X120525540Y-87825580D03*
X118841520Y-84508340D03*
X118714520Y-80010000D03*
X118841520Y-75511660D03*
X120525540Y-72194420D03*
X124523500Y-71193660D03*
X128521460Y-72194420D03*
X129887980Y-75511660D03*
X130014980Y-80010000D03*
X128521460Y-87825580D03*
X124523500Y-88826340D03*
D14*
X124501000Y-80010000D03*
D13*
X150207980Y-84508340D03*
X140845540Y-87825580D03*
X139161520Y-84508340D03*
X139034520Y-80010000D03*
X139161520Y-75511660D03*
X140845540Y-72194420D03*
X144843500Y-71193660D03*
X148841460Y-72194420D03*
X150207980Y-75511660D03*
X150334980Y-80010000D03*
X148841460Y-87825580D03*
X144843500Y-88826340D03*
D14*
X144821000Y-80010000D03*
D15*
X126494000Y-60454000D02*
X123190000Y-57150000D01*
X126494000Y-75101700D02*
X126494000Y-60454000D01*
X127998000Y-76605700D02*
X126494000Y-75101700D01*
X127998000Y-82618300D02*
X127998000Y-76605700D01*
X129888000Y-84508300D02*
X127998000Y-82618300D01*
X130015000Y-78312500D02*
X130015000Y-80010000D01*
X146050000Y-62277500D02*
X130015000Y-78312500D01*
X146050000Y-57150000D02*
X146050000Y-62277500D01*
X116865900Y-59070500D02*
X118786400Y-57150000D01*
X116865900Y-76324600D02*
X116865900Y-59070500D01*
X118238700Y-77697400D02*
X116865900Y-76324600D01*
X119302300Y-77697400D02*
X118238700Y-77697400D01*
X120867800Y-79262900D02*
X119302300Y-77697400D01*
X120867800Y-81289500D02*
X120867800Y-79262900D01*
X127403900Y-87825600D02*
X120867800Y-81289500D01*
X128521500Y-87825600D02*
X127403900Y-87825600D01*
X120650000Y-57150000D02*
X118786400Y-57150000D01*
X146822000Y-100082000D02*
X146050000Y-100854000D01*
X146822000Y-87051500D02*
X146822000Y-100082000D01*
X149365200Y-84508300D02*
X146822000Y-87051500D01*
X150208000Y-84508300D02*
X149365200Y-84508300D01*
X146050000Y-102870000D02*
X146050000Y-100854000D01*
X143510000Y-90490100D02*
X143510000Y-102870000D01*
X140845500Y-87825600D02*
X143510000Y-90490100D01*
X140970000Y-96622500D02*
X140970000Y-102870000D01*
X138875100Y-94527600D02*
X140970000Y-96622500D01*
X138875100Y-84794700D02*
X138875100Y-94527600D01*
X139161500Y-84508300D02*
X138875100Y-84794700D01*
X137181300Y-99605300D02*
X138430000Y-100854000D01*
X137181300Y-81863200D02*
X137181300Y-99605300D01*
X139034500Y-80010000D02*
X137181300Y-81863200D01*
X138430000Y-102870000D02*
X138430000Y-100854000D01*
X135890000Y-78783200D02*
X135890000Y-102870000D01*
X139161500Y-75511700D02*
X135890000Y-78783200D01*
X133350000Y-78532200D02*
X133350000Y-102870000D01*
X139687800Y-72194400D02*
X133350000Y-78532200D01*
X140845500Y-72194400D02*
X139687800Y-72194400D01*
X132149600Y-99514400D02*
X130810000Y-100854000D01*
X132149600Y-77996700D02*
X132149600Y-99514400D01*
X139933700Y-70212600D02*
X132149600Y-77996700D01*
X143862400Y-70212600D02*
X139933700Y-70212600D01*
X144843500Y-71193700D02*
X143862400Y-70212600D01*
X130810000Y-102870000D02*
X130810000Y-100854000D01*
X130010500Y-104610500D02*
X128270000Y-102870000D01*
X149790500Y-104610500D02*
X130010500Y-104610500D01*
X152210800Y-102190200D02*
X149790500Y-104610500D01*
X152210800Y-83677700D02*
X152210800Y-102190200D01*
X150855700Y-82322600D02*
X152210800Y-83677700D01*
X149806900Y-82322600D02*
X150855700Y-82322600D01*
X148318000Y-80833700D02*
X149806900Y-82322600D01*
X148318000Y-76917500D02*
X148318000Y-80833700D01*
X148194200Y-76793700D02*
X148318000Y-76917500D01*
X148194200Y-72841700D02*
X148194200Y-76793700D01*
X148841500Y-72194400D02*
X148194200Y-72841700D01*
X148841500Y-100602500D02*
X148590000Y-100854000D01*
X148841500Y-87825600D02*
X148841500Y-100602500D01*
X148590000Y-102870000D02*
X148590000Y-100854000D01*
M02*
