G04 #@! TF.FileFunction,Copper,L1,Top,Signal*
%FSLAX46Y46*%
G04 Gerber Fmt 4.6, Leading zero omitted, Abs format (unit mm)*
G04 Created by KiCad (PCBNEW (2015-10-31 BZR 6288)-product) date Wednesday, November 04, 2015 'PMt' 07:14:10 PM*
%MOMM*%
G01*
G04 APERTURE LIST*
%ADD10C,0.100000*%
%ADD11R,1.727200X2.032000*%
%ADD12O,1.727200X2.032000*%
%ADD13C,2.540000*%
%ADD14C,5.500000*%
%ADD15C,0.800000*%
%ADD16C,1.000000*%
G04 APERTURE END LIST*
D10*
D11*
X120650000Y-57150000D03*
D12*
X123190000Y-57150000D03*
X125730000Y-57150000D03*
X128270000Y-57150000D03*
X130810000Y-57150000D03*
X133350000Y-57150000D03*
X135890000Y-57150000D03*
X138430000Y-57150000D03*
X140970000Y-57150000D03*
X143510000Y-57150000D03*
X146050000Y-57150000D03*
X148590000Y-57150000D03*
D11*
X148590000Y-102870000D03*
D12*
X146050000Y-102870000D03*
X143510000Y-102870000D03*
X140970000Y-102870000D03*
X138430000Y-102870000D03*
X135890000Y-102870000D03*
X133350000Y-102870000D03*
X130810000Y-102870000D03*
X128270000Y-102870000D03*
X125730000Y-102870000D03*
X123190000Y-102870000D03*
X120650000Y-102870000D03*
D13*
X149826980Y-84508340D03*
X140464540Y-87825580D03*
X138780520Y-84508340D03*
X138653520Y-80010000D03*
X138780520Y-75511660D03*
X140464540Y-72194420D03*
X144462500Y-71193660D03*
X148460460Y-72194420D03*
X149826980Y-75511660D03*
X149953980Y-80010000D03*
X148460460Y-87825580D03*
X144462500Y-88826340D03*
D14*
X144440000Y-80010000D03*
D13*
X130776980Y-84508340D03*
X121414540Y-87825580D03*
X119730520Y-84508340D03*
X119603520Y-80010000D03*
X119730520Y-75511660D03*
X121414540Y-72194420D03*
X125412500Y-71193660D03*
X129410460Y-72194420D03*
X130776980Y-75511660D03*
X130903980Y-80010000D03*
X129410460Y-87825580D03*
X125412500Y-88826340D03*
D14*
X125390000Y-80010000D03*
D15*
X134944300Y-98096300D03*
D16*
X121759400Y-87480700D02*
X121414500Y-87825600D01*
X121759400Y-83733500D02*
X121759400Y-87480700D01*
X120550300Y-82524400D02*
X121759400Y-83733500D01*
X118902600Y-82524400D02*
X120550300Y-82524400D01*
X117756800Y-83670200D02*
X118902600Y-82524400D01*
X117756800Y-88679500D02*
X117756800Y-83670200D01*
X121090200Y-92012900D02*
X117756800Y-88679500D01*
X129729900Y-92012900D02*
X121090200Y-92012900D01*
X134247400Y-87495400D02*
X129729900Y-92012900D01*
X134247400Y-66412600D02*
X134247400Y-87495400D01*
X143510000Y-57150000D02*
X134247400Y-66412600D01*
X132906600Y-65213400D02*
X140970000Y-57150000D01*
X132906600Y-87138500D02*
X132906600Y-65213400D01*
X129240500Y-90804600D02*
X132906600Y-87138500D01*
X121597100Y-90804600D02*
X129240500Y-90804600D01*
X119440500Y-88648000D02*
X121597100Y-90804600D01*
X119440500Y-84798300D02*
X119440500Y-88648000D01*
X119730500Y-84508300D02*
X119440500Y-84798300D01*
X117714300Y-78120800D02*
X119603500Y-80010000D01*
X117714300Y-55509600D02*
X117714300Y-78120800D01*
X119014700Y-54209200D02*
X117714300Y-55509600D01*
X135489200Y-54209200D02*
X119014700Y-54209200D01*
X138430000Y-57150000D02*
X135489200Y-54209200D01*
X131621600Y-55421600D02*
X133350000Y-57150000D01*
X119500000Y-55421600D02*
X131621600Y-55421600D01*
X119086000Y-55835600D02*
X119500000Y-55421600D01*
X119086000Y-69865900D02*
X119086000Y-55835600D01*
X121414500Y-72194400D02*
X119086000Y-69865900D01*
X131390300Y-62810300D02*
X125730000Y-57150000D01*
X131390300Y-74898400D02*
X131390300Y-62810300D01*
X130777000Y-75511700D02*
X131390300Y-74898400D01*
X127382900Y-76488900D02*
X130904000Y-80010000D01*
X127382900Y-61342900D02*
X127382900Y-76488900D01*
X123190000Y-57150000D02*
X127382900Y-61342900D01*
X123413500Y-59913500D02*
X120650000Y-57150000D01*
X123413500Y-75644800D02*
X123413500Y-59913500D01*
X121904100Y-77154200D02*
X123413500Y-75644800D01*
X121904100Y-81409800D02*
X121904100Y-77154200D01*
X128319900Y-87825600D02*
X121904100Y-81409800D01*
X129410500Y-87825600D02*
X128319900Y-87825600D01*
X136810100Y-96230500D02*
X134944300Y-98096300D01*
X136810100Y-81853400D02*
X136810100Y-96230500D01*
X138653500Y-80010000D02*
X136810100Y-81853400D01*
X133350000Y-97321000D02*
X133350000Y-102870000D01*
X135609700Y-95061300D02*
X133350000Y-97321000D01*
X135609700Y-78682500D02*
X135609700Y-95061300D01*
X138780500Y-75511700D02*
X135609700Y-78682500D01*
X142463500Y-96296500D02*
X135890000Y-102870000D01*
X142463500Y-84869800D02*
X142463500Y-96296500D01*
X140750900Y-83157200D02*
X142463500Y-84869800D01*
X140750900Y-72480800D02*
X140750900Y-83157200D01*
X140464500Y-72194400D02*
X140750900Y-72480800D01*
X146461600Y-94838400D02*
X138430000Y-102870000D01*
X146461600Y-84352700D02*
X146461600Y-94838400D01*
X147890400Y-82923900D02*
X146461600Y-84352700D01*
X147890400Y-76870900D02*
X147890400Y-82923900D01*
X144462500Y-73443000D02*
X147890400Y-76870900D01*
X144462500Y-71193700D02*
X144462500Y-73443000D01*
X149296200Y-72194400D02*
X148460500Y-72194400D01*
X153128100Y-76026300D02*
X149296200Y-72194400D01*
X153128100Y-102913100D02*
X153128100Y-76026300D01*
X150230400Y-105810800D02*
X153128100Y-102913100D01*
X143910800Y-105810800D02*
X150230400Y-105810800D01*
X140970000Y-102870000D02*
X143910800Y-105810800D01*
X145250500Y-104610500D02*
X143510000Y-102870000D01*
X149733200Y-104610500D02*
X145250500Y-104610500D01*
X151927800Y-102415900D02*
X149733200Y-104610500D01*
X151927800Y-77612500D02*
X151927800Y-102415900D01*
X149827000Y-75511700D02*
X151927800Y-77612500D01*
X148460500Y-100724500D02*
X148590000Y-100854000D01*
X148460500Y-87825600D02*
X148460500Y-100724500D01*
X148590000Y-102870000D02*
X148590000Y-100854000D01*
M02*
